<?xml version="1.0" encoding="utf-8"?>
<!-- Generator: Adobe Illustrator 27.2.0, SVG Export Plug-In . SVG Version: 6.00 Build 0)  -->
<svg version="1.1" id="Capa_1" xmlns="http://www.w3.org/2000/svg" xmlns:xlink="http://www.w3.org/1999/xlink" x="0px" y="0px"
	 viewBox="0 0 132.2 75.4" style="enable-background:new 0 0 132.2 75.4;" xml:space="preserve">
<style type="text/css">
	.st0{fill:#FFFFFF;}
	.st1{fill:#B4241D;}
	.st2{fill:#020203;}
	.st3{fill:#1E1F1D;}
	.st4{fill:#E4352B;}
	.st5{fill:#C7C7C6;}
	.st6{opacity:0.5;}
	.st7{fill:#552770;}
</style>
<g>
	<path class="st0" d="M130.9,67.4l-0.3-3.2c-0.1-1.3-0.7-2.6-1.6-3.6c0-0.1,0-0.2,0-0.4l0-0.1v0v0c-0.1-0.6-0.1-1.1-0.2-1.7
		c0-0.4-0.1-0.8-0.1-1.2v0c0-0.1,0-0.1,0-0.2c0.5-1,0.7-2.2,0.6-3.3l-0.3-3c-0.3-3.1-2.9-5.5-6-5.6c-3.9-0.1-7.8-0.1-11.4-0.1h-0.1
		c-1,0-2,0.3-2.9,0.7c-1.6-0.7-3.3-1-5.4-1.1c-0.1,0-0.2,0-0.3,0h-0.1c-2.6,0.1-4.7,0.6-6.7,1.6c-1.1-0.9-2.5-1.4-3.9-1.4
		c-0.5,0-1,0-1.5,0h-0.2h-0.8l-1,0c-0.2,0-0.4,0-0.6,0c-0.2,0-0.4,0-0.5,0c-0.4,0.5-0.7,1-1.1,1.4c0.3,0,0.7,0,1,0
		c0.2,0,0.4,0,0.6,0c0.2,0,0.4,0,0.6,0h0.1l1.8,0c0.6,0,1.1,0,1.7,0c1.5,0,2.8,0.7,3.7,1.8c0.2-0.1,0.5-0.3,0.7-0.4
		c1.8-1,3.8-1.5,6.3-1.6h0.1c0.1,0,0.1,0,0.2,0c2,0.1,3.7,0.4,5.3,1.1c0.1,0,0.2,0.1,0.3,0.1c0.8-0.6,1.8-0.9,2.8-0.9h0.1
		c3.4,0,7.4,0.1,11.4,0.1c2.4,0,4.4,1.9,4.6,4.3l0.3,3c0.1,1-0.2,2.1-0.7,2.9c0,0.2,0.1,0.4,0.1,0.6c0,0.4,0.1,0.8,0.1,1.2
		c0.1,0.5,0.1,1.1,0.2,1.6l0,0.1c0,0.3,0,0.6,0,0.8c0.9,0.8,1.5,1.9,1.6,3.1l0.3,3.2c0.1,1.4-0.4,2.7-1.3,3.7
		c-0.9,0.9-2.1,1.4-3.4,1.4c-0.1,0-0.2,0-0.3,0c-3.8-0.2-7.8-0.4-11.9-0.6c-1.1-0.1-2.1-0.5-2.9-1.2c-0.1,0-0.2,0.1-0.3,0.1
		c-1.5,0.6-3.2,1-5,1c-0.2,0-0.4,0-0.6,0c-2.2-0.1-4.2-0.7-6.3-1.8c-0.1,0-0.1-0.1-0.1-0.1c-0.3-0.2-0.5-0.3-0.8-0.5
		c-0.1,0.1-0.2,0.2-0.3,0.3c-0.9,0.9-2.1,1.4-3.4,1.4c-0.1,0-0.1,0-0.2,0c-1.3,0-2.5-0.1-3.5-0.1c-1.7,0-3.1-1-3.9-2.3
		C84.5,70.2,83,71,81.4,71h-0.1c-1.1,0-2.3,0-3.4,0h-0.1c-1.4,0-2.7-0.7-3.6-1.8c-0.1,0.1-0.2,0.2-0.3,0.3c-0.9,0.9-2.1,1.4-3.3,1.4
		h0c-1.5,0-3,0-4.4,0c-2.5,0-5,0-7.5,0h0c-0.3,0-0.5,0-0.8-0.1c-0.3,0-0.5,0.1-0.8,0.1c-1.4,0-2.8,0-4.2,0.1h-0.1
		c-1.3,0-2.6-0.6-3.5-1.5c-0.8,1-2.1,1.6-3.5,1.6h-0.1c-1.2,0-2.3,0.1-3.5,0.1h-0.1c-1.2,0-2.5-0.5-3.3-1.4
		c-0.1-0.1-0.1-0.2-0.2-0.2c-2.1,1.3-4.4,2.1-6.8,2.1c-0.2,0-0.3,0-0.5,0c-1.7,0-3.3-0.3-4.8-0.9c0,0-0.1,0-0.1,0c0,0-0.1,0-0.2-0.1
		l0,0c0,0-0.1,0-0.1,0c-0.6-0.3-1.1-0.5-1.6-0.9c-0.2-0.1-0.4-0.3-0.6-0.4l-0.2-0.1c-0.5-0.4-1-0.8-1.4-1.2c0,0-0.1-0.1-0.1-0.1
		l-0.1-0.1c-0.2-0.2-0.4-0.5-0.7-0.8c-0.3-0.4-0.6-0.7-0.9-1.1c-0.2,0.1-0.4,0.2-0.6,0.3c-1.6,0.8-3.1,1.1-4.4,1.2
		c0,0.1,0,0.2,0,0.4l0,0.2c-0.2,2.3-2.1,4.2-4.4,4.3c-1.1,0.1-2.3,0.1-3.4,0.2l-0.2,0c-0.1,0-0.2,0-0.2,0c-1.3,0-2.5-0.5-3.4-1.4
		c-0.9-1-1.4-2.3-1.3-3.7c0.2-3,0.5-5.9,0.7-8.8c0.1-1.6,0.3-3.2,0.4-4.8l0.3-3c0.2-2.4,2.2-4.3,4.6-4.3c2.2,0,4.4-0.1,6.5-0.1h0.1
		c1.4,0,3.3,0.2,5.3,1.1l0.1,0.1c0,0,0,0,0,0c0.9,0.4,1.6,0.9,2.3,1.6c0.1-0.1,0.2-0.2,0.3-0.2c0.3-0.3,0.6-0.4,0.7-0.5l0,0
		c1.1-0.7,2.2-1.3,3.5-1.8c0.1,0,0.1,0,0.2-0.1l0,0c0.7-0.2,1.4-0.4,2.1-0.5c0.6-0.1,1.1-0.1,1.7-0.1c0.2,0,0.4,0,0.6,0l0.1,0h0
		c0.9,0.1,1.7,0.2,2.6,0.4l0.1,0c0.1,0,0.2,0,0.2,0.1c1.2,0.4,2.3,0.9,3.4,1.5c0.1,0,0.1,0.1,0.1,0.1c0.9-1.1,2.2-1.9,3.7-1.9h0.7
		l2.3,0c-0.4-0.5-0.8-0.9-1.1-1.4l-1.9,0c-0.1,0-0.2,0-0.3,0c-1.4,0.1-2.7,0.6-3.7,1.5c-0.9-0.5-1.9-0.9-2.9-1.2
		c-0.1,0-0.2-0.1-0.3-0.1l-0.1,0c-0.9-0.2-1.9-0.4-2.9-0.5h0h0h-0.1h0h0c-0.2,0-0.5,0-0.7,0c-0.6,0-1.2,0-1.9,0.1
		c-0.8,0.1-1.6,0.3-2.4,0.5l0,0l0,0l0,0l0,0c-0.1,0-0.1,0-0.2,0.1c-1.5,0.5-2.7,1.1-3.9,1.9l0,0l0,0h0l0,0c0,0-0.1,0.1-0.1,0.1
		c-0.5-0.4-1.1-0.7-1.7-1l0,0l0,0l-0.1-0.1h0h0c-2.2-1-4.3-1.2-5.9-1.2h-0.2c-2.1,0-4.3,0.1-6.4,0.1H8.8c-3.2,0-5.8,2.5-6,5.6
		l-0.3,3l-0.1,1.6l-0.3,3.2c-0.3,2.9-0.5,5.9-0.7,8.8c-0.1,1.8,0.5,3.5,1.7,4.8c1.1,1.2,2.8,1.9,4.4,1.9c0.1,0,0.2,0,0.3,0l0.2,0h0
		c1.1-0.1,2.3-0.1,3.4-0.2c2.8-0.2,5.2-2.3,5.7-5c1.2-0.2,2.2-0.5,3.3-1c0.1,0.1,0.1,0.2,0.2,0.2c0.3,0.3,0.5,0.6,0.7,0.8l0.1,0.1
		c0,0,0.1,0.1,0.1,0.1c0.5,0.5,1,0.9,1.6,1.3l0,0l0,0l0.2,0.1l0,0l0,0c0.2,0.2,0.4,0.3,0.7,0.4c0.6,0.4,1.2,0.7,1.8,1l0.1,0l0,0l0,0
		l0,0c0.1,0,0.1,0.1,0.2,0.1l0,0l0,0l0,0c0,0,0,0,0.1,0c1.7,0.7,3.5,1,5.3,1c0.2,0,0.3,0,0.5,0c2.3-0.1,4.5-0.7,6.6-1.8
		c1.1,0.8,2.4,1.3,3.7,1.3h0.2c1,0,2.2-0.1,3.5-0.1H46c1.3,0,2.5-0.4,3.5-1.2c1,0.7,2.2,1,3.4,1h0.1c1.4,0,2.8,0,4.2-0.1
		c0.3,0,0.5,0,0.8-0.1c0.3,0,0.5,0,0.8,0h0c2.5,0,5,0,7.5,0c1.3,0,2.7,0,4.4,0h0c1.3,0,2.5-0.4,3.6-1.2c1,0.8,2.3,1.2,3.6,1.2h0.1
		c1.3,0,2.4,0,3.4,0h0.1c1.5,0,2.8-0.5,3.9-1.4c1.1,1,2.4,1.5,3.9,1.5c1,0,2.1,0.1,3.3,0.1h0.2c0.1,0,0.2,0,0.2,0
		c1.4,0,2.7-0.5,3.8-1.3l0,0l0,0l0,0c2.3,1.2,4.5,1.8,6.9,1.9c0.2,0,0.4,0,0.7,0c1.8,0,3.5-0.3,5-0.9c0.9,0.6,1.9,0.9,3,1
		c4.1,0.2,8.1,0.4,11.9,0.6c0.1,0,0.3,0,0.4,0c1.7,0,3.3-0.7,4.4-1.9C130.4,70.9,131,69.2,130.9,67.4z"/>
	<path class="st1" d="M92.6,29.5c0,7.1-2.8,13.7-7.7,18.7c-5,5-11.6,7.7-18.7,7.7s-13.7-2.8-18.7-7.7c-5-5-7.7-11.6-7.7-18.7
		s2.8-13.7,7.7-18.7c5-5,11.6-7.7,18.7-7.7s13.7,2.8,18.7,7.7C89.8,15.8,92.6,22.4,92.6,29.5z"/>
	<path class="st0" d="M86.1,9.5c-5.3-5.3-12.4-8.3-20-8.3s-14.6,2.9-20,8.3c-5.3,5.3-8.3,12.4-8.3,20c0,5.6,1.6,10.9,4.6,15.4
		c0.3,0.5,0.7,1,1,1.4c0.8,1.1,1.7,2.1,2.7,3.1c5.3,5.3,12.4,8.3,20,8.3s14.6-2.9,20-8.3c1-1,1.9-2,2.7-3.1c0.4-0.5,0.7-0.9,1-1.4
		c3-4.5,4.6-9.9,4.6-15.4C94.4,21.9,91.4,14.8,86.1,9.5z M87.6,44.9c-0.4,0.5-0.7,1-1.1,1.4c-0.5,0.6-1.1,1.2-1.7,1.8
		c-5,5-11.6,7.7-18.7,7.7c-7.1,0-13.7-2.8-18.7-7.7c-0.6-0.6-1.1-1.2-1.7-1.8c-0.4-0.5-0.8-0.9-1.1-1.4c-3.2-4.5-5-9.8-5-15.4
		c0-7.1,2.8-13.7,7.7-18.7c5-5,11.6-7.7,18.7-7.7s13.7,2.8,18.7,7.7c5,5,7.7,11.6,7.7,18.7C92.6,35.1,90.8,40.4,87.6,44.9z"/>
	<circle class="st2" cx="66.1" cy="29.5" r="24.6"/>
	<path class="st1" d="M83.8,31c-0.4,0.6-0.9,1-1.5,1.3c-2.3,1-4.6,2-6.9,2.9c-0.5,0.2-1,0.4-1.2,0.9c-0.1,0.2-0.2,0.3-0.4,0.4
		c-0.5,0.3-1.1,0.5-1.6,0.8c-0.2,0.1-0.3,0.2-0.3,0.4c-0.2,0.8-0.3,1.6-0.5,2.4c-0.3,1.2-0.4,2.5-0.9,3.7c0,0.1,0,0.2,0,0.2
		c0.2,0.3,0.4,0.7,0.6,1c0.9,1.2,1.9,2.4,2.8,3.6c0.5,0.6,1,1.2,1.4,1.8c0.3,0.4,0.4,0.8,0.6,1.2l0,0c0,0,0,0,0,0.1
		c0,0,0,0.1,0.1,0.1l0.1,0.1c-3.1,1.4-6.5,2.2-10.1,2.2h-0.1c0,0-0.1,0-0.1,0c-7.7-0.1-14.5-3.6-19-9.2l0.3-0.1l0,0
		c0.8-0.3,1.6-0.5,2.4-0.8c0.5-0.1,0.9-0.2,1.4-0.4c0.3-0.1,0.5-0.3,0.7-0.5c0.8-1,1.7-1.9,2.7-2.6c0.1-0.1,0.1-0.1,0.2-0.2
		c0-0.1,0-0.2,0.1-0.3c0.3-1.8,0.8-3.5,1.6-5.2c0.3-0.6,0.6-1.1,1-1.6c0.1-0.1,0.1-0.2,0-0.4c-0.4-0.5-0.6-1.1-0.8-1.7
		c-0.1-0.4-0.2-0.4-0.5-0.2c-0.3,0.2-0.5,0.5-0.6,0.9c-0.2,0.4-0.2,0.9-0.2,1.4c0,0.4,0,0.4-0.4,0.3c-0.8-0.1-1.4,0.2-2,0.8
		c-0.4,0.5-0.8,1.1-1,1.7c-0.5,1.1-0.7,2.3-0.9,3.5c-0.1,0.4-0.1,0.8-0.2,1.3c0-0.1-0.1-0.1-0.1-0.1c-0.1-0.5-0.2-1-0.3-1.4
		c-0.2-1.3-0.2-2.6-0.3-3.9c0-0.3,0-0.7-0.1-1c0,0,0-0.1,0-0.1c-0.1,0-0.1,0-0.1,0.1c-0.2,0.3-0.5,0.7-0.7,1c-0.8,1.4-1.2,3-1.4,4.6
		c0,0.3-0.1,0.6-0.1,0.9c0-0.1-0.1-0.1-0.1-0.1c0-0.1,0-0.1-0.1-0.2c-0.4-1.3-0.6-2.7-0.7-4.1c0-1.3,0-2.7,0.3-4
		c0.4-2.8,1.2-5.6,2.3-8.2c0.1-0.3,0.3-0.4,0.5-0.2c0.5,0.2,0.9,0.3,1.4,0.4c1,0.3,2.1,0.4,3.2,0.4c0.8,0,1.4-0.4,1.8-1
		c0.6-1,1.2-1.9,1.9-2.8c0.9-1,2-1.8,3.1-2.6c0.3-0.2,0.6-0.4,0.9-0.6c0.6-0.6,1.2-1.2,1.9-1.7c0.2-0.2,0.5-0.3,0.8-0.2
		c0.4,0,0.7,0,1.1,0c0.3,0,0.6-0.1,0.9-0.2c0.4-0.2,0.8-0.5,1.2-0.9c0.2-0.2,0.5-0.4,0.7-0.6c1.9-1.3,3.8-2.6,5.8-4
		c0.2-0.2,0.4-0.3,0.6-0.5c0.2-0.1,0.3-0.1,0.5,0c0.1,0.1,0.2,0.2,0.3,0.3c0.1,0.1,0.2,0.1,0.3,0.1c0.3,0,0.6,0.2,0.8,0.4
		c0.3,0.2,0.6,0.5,0.9,0.7c0.9,0.8,1.7,1.8,2.5,2.8c0.5,0.7,0.5,1.3,0.1,2c0,0.1-0.1,0.1-0.1,0.2c-0.1,0.1-0.1,0.1-0.2,0.2
		c-0.2,0.1-0.2,0.3-0.2,0.6c0,0.3,0,0.5,0.1,0.8c0,0.1,0,0.2-0.2,0.2c-0.2,0-0.5-0.1-0.7-0.1c-0.2,0-0.4,0-0.5,0.1
		c-0.6,0.4-1.2,0.9-1.8,1.3c-0.2,0.1-0.3,0.3-0.3,0.5c-0.1,0.2-0.1,0.4-0.2,0.6c-0.1,0.2-0.1,0.2-0.3,0.1c-0.1,0-0.1-0.1-0.2-0.1
		c-0.2-0.1-0.2-0.1-0.2,0.1c0,0.2,0,0.3,0,0.5c0,0.1-0.1,0.2-0.2,0.1c-0.2-0.1-0.3-0.1-0.5-0.2c0,0-0.1,0-0.1,0
		c-0.1,0-0.3,0-0.4,0.1c-0.4,0.4-0.7,0.7-1.1,1.1c-0.2,0.1-0.3,0.3-0.4,0.4c-0.2,0.2-0.3,0.4-0.3,0.7c0,0.1,0,0.2-0.1,0.2
		c-0.3,0-0.3,0-0.3,0.4c0,0,0,0.1,0,0.1c0,0.1-0.1,0.2-0.2,0.2c-0.1,0-0.1,0-0.2,0c-0.2,0-0.3,0.1-0.4,0.3c-0.1,0.1-0.2,0.3-0.2,0.4
		c-0.1,0.2-0.1,0.3-0.1,0.5c0.1,0.2,0.1,0.2-0.2,0.3c-0.2,0-0.3,0.1-0.4,0.3c-0.1,0.3-0.3,0.7-0.4,1c0,0.1-0.1,0.1,0,0.2
		c0,0.1,0.1,0,0.2,0c0.4-0.1,0.8-0.1,1.2,0c0.6,0.1,1.2,0.4,1.7,0.8c0.5,0.4,1,0.8,1.4,1.3c0.1,0.1,0.2,0.2,0.4,0.2
		c0.8-0.1,1.5-0.2,2.3-0.4c0.1,0,0.3-0.1,0.3-0.2c0,0,0,0,0,0c0.1-0.2,0.2-0.3,0.3-0.5c0.1-0.2,0.2-0.2,0.3,0c0,0,0.1,0.1,0.1,0.1
		c0.1,0.1,0.2,0.2,0.3,0.2c0.1,0,0.2,0,0.3,0c0.4-0.1,0.9-0.2,1.3-0.3c0.2,0,0.3-0.1,0.5-0.1c0.6-0.2,0.6,0,0.9-0.7
		c0-0.1,0.1-0.1,0.2-0.1c0.2,0.2,0.5,0.2,0.8,0.3c0.2,0,0.4,0,0.6,0c0,0,0,0,0,0l0,0c0.2,0,0.2,0,0.3,0.2c0.1,0.6,0.2,1.2,0.3,1.8
		C84.2,30.1,84.1,30.5,83.8,31z"/>
	<path class="st1" d="M128.1,71.2c-0.9,0.9-2.1,1.4-3.4,1.4c-0.1,0-0.2,0-0.3,0c-3.8-0.2-7.8-0.4-11.9-0.6c-1.1-0.1-2.1-0.5-2.9-1.2
		c-0.1,0-0.2,0.1-0.3,0.1c-1.5,0.6-3.2,1-5,1c-0.2,0-0.4,0-0.6,0c-2.2-0.1-4.2-0.7-6.3-1.8c-0.1,0-0.1-0.1-0.1-0.1
		c-0.3-0.2-0.5-0.3-0.8-0.5c-0.1,0.1-0.2,0.2-0.3,0.3c-0.9,0.9-2.1,1.4-3.4,1.4c-0.1,0-0.1,0-0.2,0c-1.3,0-2.5-0.1-3.5-0.1
		c-1.7,0-3.1-1-3.9-2.3c-0.9,1.3-2.3,2.1-3.9,2.1h-0.1c-1.1,0-2.3,0-3.4,0h-0.1c-1.4,0-2.7-0.7-3.6-1.8c-0.1,0.1-0.2,0.2-0.3,0.3
		c-0.9,0.9-2.1,1.4-3.3,1.4h0c-1.5,0-3,0-4.4,0c-2.5,0-5,0-7.5,0h0c-0.3,0-0.5,0-0.8-0.1c-0.3,0-0.5,0.1-0.8,0.1
		c-1.4,0-2.8,0-4.2,0.1h-0.1c-1.3,0-2.6-0.6-3.5-1.5c-0.8,1-2.1,1.6-3.5,1.6h-0.1c-1.2,0-2.3,0.1-3.5,0.1h-0.1
		c-1.2,0-2.5-0.5-3.3-1.4c-0.1-0.1-0.1-0.2-0.2-0.2c-2.1,1.3-4.4,2.1-6.8,2.1c-0.2,0-0.3,0-0.5,0c-1.7,0-3.3-0.3-4.8-0.9
		c0,0-0.1,0-0.1,0c0,0-0.1,0-0.2-0.1l0,0c0,0-0.1,0-0.1,0c-0.6-0.3-1.1-0.5-1.6-0.9c-0.2-0.1-0.4-0.3-0.6-0.4l-0.2-0.1
		c-0.5-0.4-1-0.8-1.4-1.2c0,0-0.1-0.1-0.1-0.1L22.3,68c-0.2-0.2-0.4-0.5-0.7-0.8c-0.3-0.4-0.6-0.7-0.9-1.1c-0.2,0.1-0.4,0.2-0.6,0.3
		c-1.6,0.8-3.1,1.1-4.4,1.2c0,0.1,0,0.2,0,0.4l0,0.2c-0.2,2.3-2.1,4.2-4.4,4.3c-1.1,0.1-2.3,0.1-3.4,0.2l-0.2,0c-0.1,0-0.2,0-0.2,0
		c-1.3,0-2.5-0.5-3.4-1.4c-0.9-1-1.4-2.3-1.3-3.7c0.2-3,0.5-5.9,0.7-8.8C3.7,57.2,3.8,55.6,4,54l0.3-3c0.2-2.4,2.2-4.3,4.6-4.3
		c2.2,0,4.4-0.1,6.5-0.1h0.1c1.4,0,3.3,0.2,5.3,1.1l0.1,0.1c0,0,0,0,0,0c0.9,0.4,1.6,0.9,2.3,1.6c0.1-0.1,0.2-0.2,0.3-0.2
		c0.3-0.3,0.6-0.4,0.7-0.5l0,0c1.1-0.7,2.2-1.3,3.5-1.8c0.1,0,0.1,0,0.2-0.1l0,0c0.7-0.2,1.4-0.4,2.1-0.5c0.8-0.1,1.6-0.1,2.3-0.1
		l0.1,0h0c0.9,0.1,1.7,0.2,2.6,0.4l0.1,0c0.1,0,0.2,0,0.2,0.1c1.2,0.4,2.3,0.9,3.4,1.5c0.1,0,0.1,0.1,0.1,0.1
		c0.9-1.1,2.2-1.9,3.7-1.9l3.5,0c1.2,0,2.4,0.5,3.3,1.4c0.9-0.9,2.1-1.4,3.3-1.4c1.3,0,2.6,0,3.9,0h0c0.3,0,0.6,0,0.9,0.1
		c0.3-0.1,0.6-0.1,1-0.1c3.8,0,7.6,0,11.4,0c0.1,0,0.3,0,0.4,0c0.1,0,0.3,0,0.4,0l3.8,0c1.8,0,3.5,1.1,4.3,2.8
		c0.1,0.3,0.2,0.5,0.4,0.8c0.1-0.2,0.2-0.4,0.2-0.6c0.7-1.8,2.4-3,4.4-3h0.2c1.1,0,2.2,0,3.3,0c0.2,0,0.4,0,0.6,0c0.2,0,0.4,0,0.6,0
		l1.8,0c0.6,0,1.1,0,1.7,0c1.5,0,2.8,0.7,3.7,1.8c0.2-0.1,0.5-0.3,0.7-0.4c1.8-1,3.8-1.5,6.3-1.6h0.1c0.1,0,0.1,0,0.2,0
		c2,0.1,3.7,0.4,5.3,1.1c0.1,0,0.2,0.1,0.3,0.1c0.8-0.6,1.8-0.9,2.8-0.9h0.1c3.4,0,7.4,0.1,11.4,0.1c2.4,0,4.4,1.9,4.6,4.3l0.3,3
		c0.1,1-0.2,2.1-0.7,2.9c0,0.2,0.1,0.4,0.1,0.6c0,0.4,0.1,0.8,0.1,1.2c0.1,0.5,0.1,1.1,0.2,1.6l0,0.1c0,0.3,0,0.6,0,0.8
		c0.9,0.8,1.5,1.9,1.6,3.1l0.3,3.2C129.6,68.9,129.1,70.2,128.1,71.2z"/>
	<path class="st3" d="M127.5,67.7l-0.3-3.2c-0.1-1.1-0.9-2-1.9-2.3c0.3-0.5,0.4-1,0.3-1.6l0-0.1c-0.1-0.6-0.1-1.1-0.2-1.7
		c0-0.4-0.1-0.8-0.1-1.2c0-0.4-0.2-0.8-0.4-1.2c0.1-0.1,0.2-0.2,0.3-0.3c0.5-0.6,0.8-1.3,0.7-2.1l0-0.2l-0.3-2.8
		c-0.1-1.4-1.3-2.4-2.7-2.4c-4-0.1-8-0.1-11.4-0.1h0c-0.8,0-1.5,0.3-2,0.9c-0.2,0.2-0.3,0.4-0.4,0.6c-0.5-0.3-1-0.6-1.5-0.8
		c-1.3-0.6-2.8-0.9-4.6-1c0,0-0.1,0-0.1,0h-0.1c-2.1,0.1-3.8,0.5-5.4,1.3c-1,0.6-1.9,1.3-2.6,2.1l0-0.7c-0.1-1.4-1.3-2.6-2.7-2.6
		c-0.6,0-1.1,0-1.7,0c-0.6,0-1.2,0-1.8,0h0c-0.2,0-0.4,0-0.6,0.1c-0.2-0.1-0.4-0.1-0.6-0.1c-1.1,0-2.2,0-3.3,0H84
		c-1.1,0-2.1,0.7-2.5,1.7c-0.7,1.8-1.4,3.4-2,4.9c-0.7-1.6-1.5-3.3-2.3-5.1c-0.4-1-1.4-1.6-2.5-1.6h-1.9H71l0,0c-0.2,0-0.3,0-0.4,0
		c-0.1,0-0.3,0-0.4,0c-1.3,0-2.7,0-4,0c-2.5,0-4.9,0-7.4,0c-0.3,0-0.7,0.1-1,0.2c-0.3-0.1-0.6-0.2-0.9-0.2h0c-1.3,0-2.6,0-3.9,0
		c-0.7,0-1.4,0.3-1.9,0.8c-0.7,0.7-1.4,1.4-2,2.1c0,0,0-0.1,0-0.1c0-0.7-0.3-1.4-0.8-2c-0.5-0.5-1.2-0.8-1.9-0.8h0l-3.4,0
		c-1.5,0-2.6,1.2-2.7,2.6l0,0.8c-0.1-0.1-0.2-0.2-0.3-0.3c0,0-0.1-0.1-0.1-0.1c0,0-0.1-0.1-0.1-0.1c-0.5-0.4-0.9-0.9-1.4-1.2l0,0
		C38.1,50,38.1,50,38,49.9c0,0-0.1,0-0.1-0.1c-0.9-0.6-1.9-1-2.9-1.3c0,0-0.1,0-0.1,0c-0.1,0-0.1,0-0.2,0h0
		c-0.7-0.2-1.5-0.3-2.3-0.4c0,0,0,0-0.1,0h0c-0.2,0-0.4,0-0.6,0c-0.5,0-0.9,0-1.4,0.1c-0.6,0.1-1.3,0.2-1.8,0.4c0,0-0.1,0-0.1,0
		c-1.2,0.4-2.2,0.9-3.1,1.5l0,0c-0.1,0.1-0.3,0.2-0.5,0.4c-0.3,0.2-0.6,0.5-0.9,0.8c-0.1,0.1-0.2,0.1-0.2,0.2
		c-0.1,0.2-0.3,0.4-0.5,0.6c-0.7-1.1-1.8-2.1-3.1-2.7c0,0,0,0,0,0c-1.6-0.8-3.3-0.9-4.5-0.9h-0.1c-2.2,0-4.3,0.1-6.5,0.1
		c-1.4,0-2.5,1.1-2.7,2.5L6,53.6c-0.2,1.8-0.3,3.5-0.4,5.3c-0.3,3-0.5,5.9-0.7,8.8c-0.1,0.8,0.2,1.6,0.8,2.1
		c0.5,0.5,1.2,0.8,1.9,0.8c0.1,0,0.1,0,0.2,0c1.2-0.1,2.4-0.1,3.6-0.2c1.4-0.1,2.4-1.1,2.5-2.5c0.1-0.8,0.1-1.5,0.2-2.2
		c0.2,0,0.5,0,0.7,0c0,0,0.1,0,0.1,0c1.3-0.1,2.9-0.3,4.6-1.1c0.8-0.4,1.5-0.9,2.2-1.5c0.4,1,1,2,1.7,2.8c0.2,0.3,0.4,0.5,0.6,0.7
		c0,0,0.1,0.1,0.1,0.1c0.4,0.4,0.8,0.7,1.2,1c0,0,0.1,0,0.1,0.1c0.2,0.1,0.4,0.2,0.6,0.4c0.5,0.3,0.9,0.6,1.5,0.8c0,0,0,0,0,0
		c0,0,0.1,0,0.1,0.1c0,0,0.1,0,0.1,0c1.3,0.5,2.7,0.8,4.1,0.8c0.1,0,0.3,0,0.4,0c2.2-0.1,4.3-0.8,6.2-2.1l0.1,0
		c0.1-0.1,0.2-0.1,0.3-0.2c0.1,0,0.1-0.1,0.2-0.1c0.1-0.1,0.2-0.1,0.3-0.2c0,0,0,0,0,0c0,0,0.1-0.1,0.1-0.1c0.2-0.2,0.4-0.4,0.7-0.6
		v0c0,0.7,0.3,1.5,0.8,2c0.5,0.5,1.2,0.8,1.9,0.8h0.1c1.2,0,2.3-0.1,3.5-0.1h0.1c1.4,0,2.6-1.2,2.6-2.6l0-1.3
		c0.7,0.9,1.4,1.8,2.2,2.7c0.5,0.7,1.3,1,2.1,1h0c1.4,0,2.8,0,4.2-0.1c0.3,0,0.5-0.1,0.8-0.1c0.3,0.1,0.5,0.1,0.8,0.1h0
		c2.5,0,5,0,7.5,0c1.5,0,2.9,0,4.4,0h0c0.7,0,1.4-0.3,1.9-0.8c0.5-0.5,0.8-1.2,0.8-1.9v-0.1c0-0.9,0-1.8,0-2.8c0-1.1-0.6-2-1.5-2.4
		c0.2-0.3,0.2-0.7,0.3-1.1c1.2,2.7,2.4,5.3,3.4,7.6c0.4,1,1.4,1.6,2.4,1.6h0c1.2,0,2.3,0,3.5,0.1h0c1.1,0,2.1-0.7,2.5-1.7
		c0.8-2,1.6-4.1,2.5-6.3l0,0.3l0.2,5.3c0.1,1.4,1.2,2.6,2.6,2.6c1.1,0,2.2,0.1,3.6,0.1c0,0,0.1,0,0.1,0c0.7,0,1.4-0.3,1.9-0.8
		c0.5-0.5,0.8-1.3,0.8-2l0-0.2c0.8,0.8,1.7,1.6,2.7,2.1c0,0,0.1,0,0.1,0c1.8,1,3.6,1.5,5.5,1.5c0.2,0,0.3,0,0.5,0
		c1.5,0,3-0.3,4.2-0.8c0.6-0.2,1.1-0.5,1.6-0.9c0.4,1,1.3,1.7,2.4,1.8c4,0.2,8,0.4,11.9,0.6c0.1,0,0.1,0,0.2,0
		c0.7,0,1.4-0.3,1.9-0.8C127.3,69.3,127.5,68.5,127.5,67.7z"/>
	<path class="st0" d="M21.4,53.4c-0.5-0.9-1.3-1.5-2.1-2c-1.1-0.5-2.2-0.6-3.4-0.7c-2.2,0-4.3,0.1-6.5,0.1c-0.2,2.6-0.4,5.2-0.7,7.8
		c-0.3,3-0.5,5.9-0.7,8.8c1.2-0.1,2.4-0.1,3.6-0.2c0.1-1.5,0.2-3.1,0.4-4.6c1,0,2.1-0.1,3.1-0.1c1.2-0.1,2.5-0.3,3.6-0.9
		c1-0.5,1.8-1.2,2.4-2.1c0.3-0.4,0.5-0.8,0.6-1.2c0.2-0.6,0.3-1.2,0.4-1.9C22.1,55.4,22,54.4,21.4,53.4z M17.5,58.7
		c-0.7,0.6-1.6,0.8-2.5,0.8c-1,0-1.9,0.1-2.9,0.1c0-0.3,0.1-0.7,0.1-1c0.1-1.6,0.3-3.1,0.4-4.7c1,0,1.9,0,2.9-0.1
		c0.8,0,1.7,0.1,2.3,0.7c0.6,0.6,0.7,1.3,0.7,2.1c0,0.7-0.3,1.4-0.8,1.9C17.6,58.5,17.6,58.6,17.5,58.7z"/>
	<path class="st0" d="M51.4,57.9c-0.2-0.2-0.3-0.4-0.5-0.6c2.1-2.3,4.3-4.5,6.4-6.8c-1.3,0-2.6,0-3.9,0c-2.3,2.4-4.6,4.7-6.9,7.1
		c0.1-2.4,0.1-4.7,0.2-7.1c-1.2,0-2.3,0-3.5,0c-0.1,2.5-0.2,4.9-0.3,7.4c-0.1,2.7-0.2,5.4-0.3,8.1c1.2,0,2.4-0.1,3.6-0.1
		c0-1.3,0.1-2.6,0.1-4c0.7-0.7,1.4-1.5,2.1-2.2c1.6,2,3.2,4,4.8,6.1c1.4,0,2.8,0,4.2-0.1C55.5,63.2,53.4,60.6,51.4,57.9z"/>
	<path class="st0" d="M71,62.9c-2.8,0-5.6,0-8.4,0c0-1.2,0-2.4,0-3.6c2.4,0,4.7,0,7.1,0c0-0.5,0-1,0-1.5c0-0.4,0-0.9,0-1.3
		c-2.4,0-4.7,0-7.1,0c0-1.1,0-2.2,0-3.3c2.6,0,5.3,0,8,0c0-0.9,0-1.9,0-2.8c-3.8,0-7.6,0-11.4,0c0,2.4,0,4.9-0.1,7.3
		c0,2.6,0,5.3-0.1,7.9c4,0,8,0,12,0C71,64.9,71,63.9,71,62.9z"/>
	<path class="st0" d="M84.4,50.6c-1,2.4-2,4.9-2.9,7.4c-0.5,1.2-0.9,2.3-1.4,3.5c-0.5-1.2-1.1-2.3-1.6-3.5c-1.1-2.5-2.2-4.9-3.3-7.4
		c-1.3,0-2.5,0-3.8,0c1.1,2.4,2.2,4.9,3.3,7.3c1.2,2.7,2.4,5.3,3.6,8c1.2,0,2.4,0,3.5,0.1c1.1-2.6,2.1-5.3,3.2-8
		c1-2.5,1.9-4.9,2.9-7.4C86.8,50.6,85.6,50.6,84.4,50.6z"/>
	<path class="st0" d="M93,58.1c-0.1-2.5-0.2-4.9-0.4-7.4c-1.2,0-2.3,0-3.5,0c0.1,2.5,0.2,4.9,0.3,7.4c0.1,2.7,0.2,5.4,0.4,8.1
		c1.2,0,2.4,0.1,3.6,0.1C93.3,63.5,93.2,60.8,93,58.1z"/>
	<path class="st0" d="M108.2,61.8c-0.9,1.2-2.2,1.8-3.7,1.8c-0.9,0-1.8-0.3-2.6-0.7c-0.8-0.4-1.4-1.1-1.9-1.9
		c-0.5-0.8-0.7-1.7-0.8-2.6c0-0.1,0-0.2,0-0.3c0-0.8,0.1-1.5,0.5-2.3c0.4-0.7,0.9-1.3,1.6-1.7c0.8-0.5,1.6-0.6,2.5-0.6
		c1.5,0,2.9,0.8,3.9,1.9c0.7-0.7,1.4-1.4,2.1-2.1c-0.8-0.9-1.7-1.6-2.8-2.1c-1.1-0.5-2.3-0.7-3.6-0.7c-1.5,0-2.8,0.3-4.1,1
		c-1.2,0.7-2.1,1.6-2.8,2.8c-0.7,1.2-0.9,2.5-0.9,3.9c0,0.1,0,0.2,0,0.3c0.1,1.6,0.5,2.9,1.3,4.2c0.8,1.3,1.9,2.3,3.2,3
		c1.4,0.7,2.8,1.2,4.3,1.2c1.2,0.1,2.4-0.1,3.6-0.6c1-0.4,1.9-1.2,2.6-2.1C109.8,63.4,109,62.6,108.2,61.8z"/>
	<path class="st0" d="M124.9,64.4c-2.8-0.1-5.6-0.3-8.4-0.4c-0.1-1.3-0.2-2.5-0.3-3.8c2.4,0.1,4.7,0.2,7.1,0.3
		c-0.1-0.6-0.1-1.2-0.2-1.8c0-0.4-0.1-0.8-0.1-1.2c-2.4-0.1-4.7-0.1-7.1-0.2c-0.1-1.2-0.2-2.3-0.3-3.5c2.6,0.1,5.3,0.1,8,0.2
		c-0.1-1-0.2-2-0.3-3c-3.8-0.1-7.6-0.1-11.4-0.1c0.2,2.5,0.4,5.1,0.6,7.6c0.2,2.8,0.4,5.7,0.7,8.5c4,0.2,8,0.4,12,0.6
		C125.1,66.5,125,65.4,124.9,64.4z"/>
	<g>
		<path d="M40.6,58.3c0-4.5-3.9-8-8.4-8c-4.5,0-8.4,3.8-8.4,8.3c0,4.5,3.8,8.1,8.4,7.9C36.6,66.5,40.6,62.9,40.6,58.3z"/>
		<path class="st4" d="M27,52.2c0.1-0.1,0.2-0.2,0.3-0.3c0.8-0.5,1.5-0.9,2.4-1.2c0.5-0.1,0.9-0.2,1.4-0.3c0.5-0.1,1-0.1,1.5-0.1
			c0.7,0,1.3,0.2,2,0.3c0.8,0.2,1.5,0.6,2.2,1c0.5,0.4,1,0.8,1.5,1.2c0.6,0.6,1,1.2,1.4,1.9c0.3,0.7,0.6,1.4,0.7,2.1
			c0.1,0.3,0.1,0.6,0.1,0.9c0,0.1,0,0.1-0.1,0.1c-0.4-0.2-0.9-0.3-1.3-0.5c-0.6-0.2-1.1-0.4-1.7-0.5c-0.1,0-0.2,0-0.3-0.1
			c-0.1,0-0.1,0-0.1-0.1c-0.1-0.5-0.4-1-0.8-1.4c-0.4-0.4-1.1-0.7-1.6-0.8c-0.7-0.1-1.5,0.1-2.1,0.5c-0.4,0.3-0.9,0.8-1,1.2
			c0,0.1-0.1,0.1-0.1,0.1c-0.4,0-0.7,0.1-1.1,0.1c-0.6,0.1-1.3,0.2-1.9,0.3c-0.5,0.1-1.1,0.3-1.6,0.4c-0.9,0.3-1.9,0.7-2.8,1
			c-0.1,0-0.1,0-0.1-0.1c0-0.4,0.1-0.7,0.1-1.1c0.1-0.6,0.3-1.1,0.5-1.7c0.3-0.7,0.7-1.4,1.2-2c0.2-0.2,0.3-0.4,0.5-0.6c0,0,0,0,0,0
			c0,0,0,0.1-0.1,0.1c-0.3,0.4-0.5,1-0.4,1.5c0,0.3,0.2,0.6,0.4,0.8c0.3,0.2,0.6,0.3,0.9,0.3c0.2,0,0.4,0,0.6-0.1
			c0.9-0.2,1.7-0.9,2.1-1.7c0.2-0.4,0.2-0.7,0.2-1.1c-0.1-0.6-0.6-0.9-1.2-0.9C28.2,51.7,27.5,51.9,27,52.2
			C27.1,52.1,27.1,52.2,27,52.2z"/>
		<path class="st0" d="M26.7,59.6c0.7-0.2,1.3-0.3,2-0.5c0.4-0.1,0.8-0.1,1.2-0.2c0.3,0,0.5-0.1,0.8-0.1c0.2,0,0.5,0,0.7-0.1
			c0.1,0,0.1,0,0.1,0.1c0.2,0.4,0.4,0.7,0.8,1c0.4,0.3,1,0.6,1.5,0.6c0.2,0,0.4,0,0.6,0c0.4,0,0.7-0.1,1-0.2c0.4-0.2,0.8-0.4,1-0.7
			c0.1-0.1,0.2-0.2,0.3-0.4c0-0.1,0.1-0.1,0.1-0.1c0.4,0.1,0.9,0.2,1.3,0.3c0.4,0.1,0.8,0.2,1.3,0.4c0.3,0.1,0.7,0.2,1,0.3
			c0.1,0,0,0.1,0,0.1c0,0.1-0.1,0.2-0.1,0.3c-0.2,0.6-0.4,1.1-0.7,1.6c-0.1,0.2-0.2,0.3-0.3,0.5c-0.1,0-0.1,0.1-0.2,0.1
			c-0.4,0.3-0.8,0.7-1.2,0.9c-0.4,0.2-0.8,0.4-1.2,0.6c-0.7,0.3-1.3,0.4-2,0.5c-0.7,0.1-1.3,0.1-2,0c-0.5-0.1-1.1-0.2-1.6-0.4
			c-0.5-0.2-1.1-0.5-1.5-0.8c-0.3-0.2-0.5-0.4-0.7-0.6c-0.5-0.5-0.8-0.9-1.2-1.4c-0.3-0.5-0.6-1-0.7-1.5
			C26.8,59.9,26.7,59.7,26.7,59.6z"/>
		<path class="st5" d="M26.7,59.5c0,0.2,0.1,0.3,0.1,0.5c0.2,0.5,0.4,1.1,0.7,1.5c0.4,0.5,0.7,1,1.2,1.4c0.2,0.2,0.5,0.4,0.7,0.6
			c0.5,0.3,1,0.6,1.5,0.8c0.5,0.2,1.1,0.3,1.6,0.4c0.7,0.1,1.3,0.1,2,0c0.7-0.1,1.3-0.3,2-0.5c0.4-0.2,0.8-0.4,1.2-0.6
			c0.4-0.3,0.8-0.6,1.2-0.9c0.1-0.1,0.1-0.1,0.2-0.1c0,0,0,0,0,0.1c-0.2,0.3-0.4,0.6-0.6,0.9c-0.3,0.3-0.5,0.6-0.8,0.8
			c-0.4,0.3-0.8,0.6-1.2,0.9c-0.4,0.2-0.8,0.4-1.2,0.6c-0.5,0.2-0.9,0.4-1.4,0.5c-0.2,0.1-0.5,0.1-0.7,0.2c-0.3,0.1-0.7,0.1-1,0.1
			c-0.2,0-0.4,0-0.6,0c-1,0-2-0.2-3-0.6c-0.6-0.3-1.1-0.6-1.7-0.9c-0.3-0.2-0.6-0.5-0.9-0.7c-0.9-1-1.5-2-2-3.2
			c-0.1-0.2-0.1-0.4-0.2-0.6c0-0.1,0-0.1,0.1-0.1c0.8-0.3,1.6-0.6,2.4-0.8C26.6,59.6,26.7,59.5,26.7,59.5z"/>
		<path class="st0" d="M27,52.2C27.1,52.2,27.1,52.2,27,52.2c0.5-0.3,1.1-0.5,1.6-0.5c0.6,0,1.1,0.4,1.2,0.9c0.1,0.4,0,0.8-0.2,1.1
			c-0.4,0.9-1.2,1.5-2.1,1.7c-0.2,0.1-0.4,0.1-0.6,0.1c-0.3,0-0.7-0.1-0.9-0.3c-0.2-0.2-0.4-0.5-0.4-0.8c-0.1-0.5,0.1-1.1,0.4-1.5
			c0,0,0.1-0.1,0.1-0.1c0,0,0,0,0,0c0,0,0,0,0,0l0,0c0,0,0,0,0-0.1C26.5,52.6,26.7,52.4,27,52.2C27,52.2,27,52.2,27,52.2
			C27,52.2,27,52.2,27,52.2z"/>
		<path class="st0" d="M36.1,57.5c0,1-0.9,1.9-1.9,1.9c-0.9,0-1.9-0.8-1.8-1.8c0-1,0.9-1.8,1.9-1.8C35.2,55.7,36.1,56.5,36.1,57.5z
			 M32.8,57.6c0,0.7,0.7,1.4,1.4,1.4c0.7,0,1.5-0.6,1.4-1.4c0-0.8-0.7-1.4-1.4-1.4C33.5,56.1,32.8,56.8,32.8,57.6z"/>
		<path class="st0" d="M34.2,58.8c-0.7,0-1.3-0.6-1.3-1.3c0-0.7,0.6-1.3,1.3-1.3c0.7,0,1.3,0.6,1.3,1.3C35.5,58.2,35,58.8,34.2,58.8
			z"/>
	</g>
	<g class="st6">
		<g>
			<g>
				<path class="st7" d="M21.1,58.7c-0.1,0.2-0.2,0.5-0.4,0.7c-0.6,0.8-1.4,1.6-2.3,2c-0.9,0.5-2,0.7-3.4,0.8c-1,0-2.1,0.1-3.1,0.1
					l-0.3,0l0,0.3c-0.1,0.8-0.1,1.5-0.2,2.3c-0.1,0.7-0.1,1.3-0.2,2c-0.9,0.1-1.9,0.1-2.8,0.2c0.2-2.7,0.5-5.4,0.7-8.1
					c0.9,0,1.9-0.1,2.8-0.1c0,0,0,0.1,0,0.1c0,0.2,0,0.3,0,0.5l0,0.4l0.4,0l2.2-0.1l0.7,0c1.2,0,2.1-0.3,2.7-0.9
					c0,0,0.1-0.1,0.1-0.1C19.1,58.8,20.1,58.8,21.1,58.7z"/>
			</g>
			<g>
				<path class="st7" d="M56.8,65.5c-1.1,0-2.2,0-3.3,0c-1.8-2.3-3.3-4.2-4.7-5.9l-0.3-0.3l-0.3,0.3c-0.7,0.7-1.4,1.5-2.1,2.2
					L46,61.9V62l-0.1,3.6c-0.9,0-1.9,0-2.8,0.1l0.2-4.8l0.1-2.6c2.5,0,5.1-0.1,7.8-0.1C53,60.6,54.7,62.9,56.8,65.5z"/>
			</g>
			<g>
				<path class="st7" d="M70.7,65.5c-1.4,0-2.7,0-4,0c-2.4,0-4.8,0-7.2,0c0-2.4,0-4.8,0.1-7.2c2.1,0,4.4,0,7.1,0c0.9,0,1.9,0,2.8,0
					l0,0.5V59c-0.9,0-1.7,0-2.6,0c-1.4,0-2.8,0-4.1,0h-0.4v0.4v1.8v1.8v0.4h0.4c1.3,0,2.7,0,4,0c1.4,0,2.7,0,4,0
					C70.7,64,70.7,64.7,70.7,65.5z"/>
			</g>
			<g>
				<path class="st7" d="M84.5,58.3c-1,2.6-2,5-2.9,7.2c-1,0-2,0-3.1,0c-1-2.2-2.1-4.7-3.3-7.3c1,0,2,0,3,0c0.4,0.8,0.7,1.6,1.1,2.5
					l0.4,0.8l0.3,0.8l0.3-0.8c0.4-1.1,0.9-2.2,1.3-3.3l1.5,0L84.5,58.3z"/>
			</g>
			<g>
				<path class="st7" d="M93,65.8c-1.1,0-2-0.1-2.9-0.1L90,60.8l-0.1-2.4l0.8,0c0.7,0,1.3,0,2,0C92.8,60.9,92.9,63.3,93,65.8z"/>
			</g>
			<g>
				<path class="st7" d="M110.2,64.2c-0.6,0.8-1.4,1.3-2.2,1.7c-0.9,0.4-1.9,0.6-3,0.6c-0.1,0-0.3,0-0.4,0c-1.4-0.1-2.8-0.4-4.2-1.2
					c-1.2-0.7-2.3-1.7-3-2.9c-0.7-1.2-1.1-2.4-1.2-3.9c0.9,0,1.8,0,2.8,0c0.1,1,0.4,2,0.8,2.7c0.5,0.9,1.2,1.5,2,2
					c0.9,0.5,1.8,0.8,2.8,0.8c0.1,0,0.1,0,0.2,0c1.4,0,2.7-0.6,3.6-1.6C108.9,63,109.5,63.6,110.2,64.2z"/>
			</g>
			<g>
				<path class="st7" d="M124.8,67.2c-3.7-0.2-7.5-0.4-11.2-0.6c-0.2-2.5-0.4-5.1-0.6-7.6l0-0.2c3.4,0.1,6.7,0.2,9.9,0.2
					c0,0.4,0.1,0.7,0.1,1.1c-2.2-0.1-4.5-0.2-6.7-0.2l-0.4,0l0,0.4c0.1,1.3,0.2,2.5,0.3,3.8l0,0.3l0.3,0c2.9,0.1,5.5,0.2,8.1,0.4
					L124.8,67.2z"/>
			</g>
		</g>
	</g>
</g>
</svg>
