<?xml version="1.0" encoding="utf-8"?>
<!-- Generator: Adobe Illustrator 27.2.0, SVG Export Plug-In . SVG Version: 6.00 Build 0)  -->
<svg version="1.1" id="Capa_1" xmlns="http://www.w3.org/2000/svg" xmlns:xlink="http://www.w3.org/1999/xlink" x="0px" y="0px"
	 viewBox="0 0 587.47 505.26" style="enable-background:new 0 0 587.47 505.26;" xml:space="preserve">
<style type="text/css">
	.st0{fill:#FFFFFF;}
	.st1{fill:#B5241D;}
	.st2{fill:#B4241D;}
	.st3{fill:#020203;}
	.st4{fill:#1E1F1D;}
	.st5{fill:#E4352B;}
	.st6{fill:#C7C7C6;}
	.st7{opacity:0.5;}
	.st8{fill:#552770;}
	.st9{fill:#1E1E1C;}
	.st10{opacity:0.27;}
	.st11{fill:#585857;}
	.st12{fill:#E5352B;}
	.st13{fill:#CAE8FB;}
</style>
<g>
	<path class="st0" d="M534.91,326.59l-1.09-11.79c-0.45-4.99-2.49-9.62-5.81-13.26c-0.01-0.46-0.04-0.91-0.09-1.35l-0.03-0.46v-0.03
		l-0.01-0.02c-0.19-2.08-0.38-4.15-0.57-6.16c-0.13-1.51-0.27-3.02-0.41-4.56v-0.03c-0.03-0.24-0.05-0.49-0.09-0.73
		c1.91-3.82,2.73-8.14,2.34-12.39l-1.05-11.21c-1.09-11.66-10.74-20.56-22.46-20.72c-14.42-0.18-28.93-0.34-42.47-0.48h-0.24
		c-3.78,0-7.55,0.97-10.88,2.76c-6.03-2.44-12.46-3.72-20.07-4.01c-0.37-0.02-0.69-0.02-0.95-0.02h-0.54
		c-9.67,0.24-17.64,2.16-24.97,6.03c-4.05-3.41-9.17-5.31-14.59-5.34c-1.91-0.01-3.8-0.02-5.7-0.03l-0.59-0.01l-2.87-0.01l-3.9-0.02
		c-0.74,0-1.48,0.03-2.21,0.11c-0.69-0.07-1.36-0.11-2.02-0.13c-1.32,1.83-2.7,3.61-4.15,5.36c1.25,0.01,2.5,0.01,3.75,0.01
		c0.79,0,1.6,0.06,2.39,0.17c0.75-0.09,1.48-0.14,2.21-0.14h0.17l6.59,0.03c2.1,0.01,4.2,0.03,6.3,0.03
		c5.55,0.03,10.51,2.64,13.69,6.72c0.84-0.54,1.7-1.06,2.58-1.55c6.8-3.78,14.25-5.65,23.44-5.87h0.42c0.22,0,0.46,0,0.69,0.01
		c7.58,0.29,13.83,1.63,19.69,4.21c0.36,0.15,0.73,0.32,1.1,0.49c2.98-2.2,6.65-3.44,10.41-3.44h0.17
		c12.62,0.13,27.53,0.3,42.45,0.48c8.96,0.12,16.34,6.93,17.17,15.84l1.05,11.21c0.37,3.86-0.58,7.7-2.6,10.93
		c0.15,0.73,0.28,1.46,0.35,2.21c0.14,1.54,0.28,3.05,0.41,4.57c0.19,2.01,0.39,4.07,0.57,6.14l0.04,0.5
		c0.1,1.03,0.1,2.06,0.01,3.08c3.32,2.88,5.48,6.97,5.89,11.56l1.09,11.78c0.46,5.07-1.3,10.09-4.83,13.75
		c-3.27,3.39-7.85,5.33-12.56,5.33c-0.35,0-0.71-0.01-1.06-0.03c-14.21-0.83-29.11-1.62-44.31-2.35c-4.06-0.19-7.82-1.77-10.73-4.34
		c-0.32,0.14-0.63,0.28-0.94,0.4c-5.66,2.41-11.94,3.63-18.65,3.63c-0.87,0-1.56-0.01-2.22-0.04c-8.11-0.33-15.84-2.48-23.6-6.58
		c-0.19-0.11-0.36-0.19-0.52-0.29c-1.01-0.58-2-1.19-2.98-1.84c-0.3,0.38-0.63,0.74-0.97,1.09c-3.28,3.34-7.82,5.25-12.49,5.25
		c-0.19,0-0.38,0-0.56-0.01c-5.03-0.13-9.21-0.24-13.16-0.32c-6.2-0.14-11.64-3.55-14.63-8.57c-3.17,4.94-8.63,7.99-14.68,7.99
		h-0.27c-4.24-0.07-8.47-0.12-12.69-0.17l-0.43-0.01c-5.28-0.06-10.19-2.53-13.42-6.55c-0.32,0.4-0.67,0.79-1.03,1.16
		c-3.27,3.29-7.79,5.17-12.41,5.17h-0.07c-5.46-0.02-10.98-0.03-16.38-0.03c-9.39,0-18.83,0.03-28.04,0.1h-0.12
		c-0.94,0-1.89-0.08-2.84-0.23c-0.95,0.17-1.92,0.26-2.9,0.28c-5.19,0.05-10.35,0.11-15.54,0.17h-0.22c-4.97,0-9.59-2.05-12.88-5.67
		c-3.14,3.66-7.75,6-12.92,6.11l-0.29,0.01c-4.31,0.09-8.61,0.18-12.91,0.29h-0.42c-4.64,0-9.16-1.89-12.42-5.18
		c-0.27-0.27-0.53-0.55-0.78-0.84c-7.69,4.95-16.41,7.69-25.37,8.01c-0.58,0.02-1.14,0.03-1.68,0.03c-6.16,0-12.18-1.18-17.91-3.5
		c-0.13-0.05-0.27-0.1-0.4-0.15c-0.17-0.07-0.37-0.15-0.57-0.25l-0.09-0.03c-0.07-0.03-0.19-0.09-0.34-0.15
		c-2.1-0.93-4.17-2.03-6.14-3.27c-0.85-0.52-1.62-1.01-2.34-1.48l-0.56-0.39c-1.89-1.37-3.65-2.87-5.23-4.44
		c-0.11-0.1-0.22-0.21-0.32-0.32l-0.21-0.23c-0.83-0.89-1.65-1.83-2.49-2.87c-1.14-1.36-2.2-2.78-3.16-4.25
		c-0.79,0.44-1.59,0.86-2.41,1.25c-5.86,2.87-11.52,4.02-16.27,4.57c-0.03,0.46-0.07,0.91-0.11,1.37l-0.05,0.65
		c-0.69,8.67-7.76,15.58-16.44,16.06c-4.25,0.24-8.49,0.48-12.73,0.73l-0.73,0.03c-0.3,0.01-0.56,0.02-0.83,0.02
		c-4.69,0-9.24-1.92-12.52-5.27c-3.53-3.62-5.32-8.59-4.9-13.64c0.91-10.99,1.83-21.98,2.75-32.96c0.5-5.97,0.99-11.94,1.49-17.91
		l0.93-11.09c0.75-9.01,8.14-15.89,17.19-16.01c8.12-0.1,16.23-0.2,24.33-0.29h0.52c5.36,0.1,12.44,0.65,19.71,4.05l0.4,0.19
		c0.01,0.01,0.03,0.01,0.03,0.02c3.21,1.57,6.12,3.53,8.64,5.8c0.34-0.3,0.69-0.58,1.04-0.85c1.09-0.98,2.07-1.65,2.55-1.98
		l0.17-0.11c3.95-2.71,8.14-4.8,13.16-6.56c0.2-0.07,0.41-0.14,0.61-0.21l0.08-0.03c2.53-0.77,5.22-1.36,8.01-1.73
		c2.14-0.28,4.25-0.42,6.29-0.42c0.77,0,1.52,0.02,2.28,0.06l0.43,0.03h0.09c3.25,0.18,6.51,0.69,9.68,1.53l0.54,0.13
		c0.3,0.07,0.58,0.15,0.85,0.24c4.47,1.3,8.72,3.23,12.63,5.72c0.17,0.11,0.35,0.22,0.52,0.34c3.16-4.27,8.23-7.01,13.95-7.04
		l2.67-0.01l8.53-0.04c-1.45-1.74-2.84-3.53-4.16-5.36l-7.07,0.03c-0.35,0-0.7,0.01-1.05,0.03c-5.19,0.26-10.02,2.21-13.84,5.55
		c-3.39-1.83-6.95-3.3-10.64-4.37c-0.42-0.13-0.81-0.24-1.2-0.32l-0.46-0.11c-3.48-0.91-7.07-1.47-10.67-1.67l-0.15-0.01h-0.07
		l-0.27-0.01l-0.02-0.01h-0.02c-0.84-0.05-1.71-0.07-2.57-0.07c-2.27,0-4.62,0.15-6.99,0.47c-3.06,0.4-6.05,1.05-8.88,1.92
		l-0.07,0.02l-0.06,0.02l-0.08,0.03l-0.12,0.04c-0.2,0.07-0.4,0.13-0.6,0.21c-5.49,1.92-10.07,4.21-14.41,7.19l-0.14,0.09
		l-0.03,0.02l-0.02,0.01l-0.07,0.05c-0.12,0.09-0.28,0.19-0.45,0.32c-1.94-1.39-4.02-2.63-6.23-3.71l-0.03-0.02l-0.09-0.05
		l-0.39-0.19l-0.03-0.01l-0.03-0.01c-8.18-3.82-15.99-4.43-21.89-4.55h-0.67c-7.93,0.09-15.86,0.18-23.8,0.28l-0.54,0.01
		c-11.83,0.16-21.5,9.16-22.48,20.94l-0.93,11.09l-0.5,5.98l-0.99,11.94c-0.92,10.97-1.83,21.97-2.75,32.96
		c-0.54,6.6,1.79,13.1,6.4,17.83c4.28,4.39,10.25,6.9,16.37,6.9c0.35,0,0.7-0.01,1.08-0.03l0.72-0.03h0.07
		c4.24-0.25,8.47-0.49,12.72-0.73c10.58-0.59,19.32-8.48,21.19-18.73c4.35-0.8,8.35-2.02,12.11-3.69c0.23,0.28,0.46,0.56,0.69,0.83
		c0.93,1.14,1.81,2.16,2.7,3.12l0.24,0.24c0.15,0.16,0.32,0.33,0.49,0.5c1.77,1.75,3.72,3.41,5.81,4.93l0.03,0.03l0.04,0.03
		l0.56,0.39l0.05,0.03l0.05,0.04c0.84,0.55,1.65,1.08,2.49,1.58c2.2,1.38,4.48,2.59,6.77,3.6l0.23,0.1l0.08,0.04l0.15,0.07l0.1,0.03
		c0.23,0.11,0.46,0.2,0.65,0.28l0.07,0.03l0.06,0.02l0.09,0.04c0.08,0.03,0.17,0.06,0.25,0.09c6.34,2.56,13.02,3.86,19.83,3.86
		c0.55,0,1.14-0.01,1.87-0.04c8.52-0.3,16.9-2.61,24.47-6.71c3.96,3.03,8.89,4.73,13.92,4.73h0.56c3.9-0.1,8.11-0.19,12.89-0.29
		l0.31-0.01c4.67-0.11,9.17-1.65,12.9-4.34c3.73,2.51,8.18,3.9,12.77,3.9h0.3c5.17-0.07,10.33-0.12,15.52-0.17
		c0.96-0.01,1.93-0.09,2.88-0.21c0.95,0.11,1.88,0.17,2.79,0.17h0.16c9.17-0.07,18.6-0.1,28-0.1c4.8,0,10.16,0.01,16.37,0.03h0.09
		c4.8,0,9.51-1.55,13.39-4.34c3.84,2.89,8.51,4.51,13.42,4.56l0.41,0.01c4.89,0.05,8.91,0.11,12.69,0.17h0.35
		c5.41,0,10.51-1.87,14.53-5.19c3.99,3.56,9.14,5.64,14.65,5.76c3.74,0.08,7.69,0.18,12.35,0.3l0.7,0.01
		c0.32,0.02,0.58,0.02,0.8,0.02c5.15,0,10.19-1.78,14.21-4.97l0.15,0.08l0.04,0.03l0.05,0.02c8.48,4.48,16.95,6.83,25.89,7.2
		c0.75,0.03,1.51,0.05,2.43,0.05c6.69,0,13.01-1.1,18.81-3.29c3.34,2.14,7.24,3.39,11.25,3.58c15.42,0.74,30.31,1.52,44.25,2.34
		c0.5,0.03,0.95,0.04,1.37,0.04c6.16,0,12.15-2.54,16.43-6.97C533.21,339.78,535.51,333.23,534.91,326.59z"/>
	<g>
		<path class="st1" d="M408.4,348.36c-0.58-3.26-2.34-6.27-5.21-8.96c-3.4-3.18-7.74-4.99-12.56-5.23
			c-19.18-0.94-38.64-1.62-57.89-2.04l0-0.05l-8.72-0.13l-10.25-0.19l0,0.05c-8.24-0.09-16.57-0.14-24.79-0.14
			c-1.09,0-2.17,0-3.26,0v-0.05l-12.04,0.11c-10.62,0.1-21.45,0.28-32.22,0.53l0.01-0.06l-11.01,0.35l-8.11,0.23l0,0.04
			c-12.75,0.44-25.6,0.99-38.23,1.64l-9.42,0.49l-8.25,46.07l15.18-8.02l-6.23,39.74l-0.78,4.99l14.12-0.71
			c6.36-0.32,12.87-0.62,19.35-0.89l8.56-0.36l0.6-0.03l10.2-0.32c14.89-0.46,29.94-0.77,44.74-0.91l4.9-0.04
			c4.72-0.03,9.44-0.04,14.04-0.04c1.68,0,3.36,0,5.03,0.01l4.72,0.01l4.78,0.04c6.2,0.05,12.63,0.13,19.08,0.24l4.91,0.09
			c6.43,0.13,12.87,0.29,19.12,0.47l4.78,0.14l4.76,0.17c6.49,0.23,12.95,0.48,19.2,0.75l4.89,0.21l4.81,0.24
			c6.22,0.31,12.71,0.65,19.31,1.03l14.51,0.83L408.4,348.36z"/>
		<path class="st0" d="M285.72,331.63v0.05c1.08,0,2.17,0,3.26,0c8.22,0,16.55,0.05,24.79,0.14l0-0.05l10.25,0.19l8.72,0.13l0,0.05
			c19.24,0.42,38.71,1.11,57.89,2.04c4.82,0.24,9.16,2.05,12.56,5.23c2.87,2.69,4.63,5.7,5.21,8.96l12.62,70.3l-14.51-0.83
			c-6.59-0.38-13.09-0.73-19.31-1.03l-4.81-0.24l-4.89-0.21c-6.24-0.27-12.7-0.52-19.2-0.75l-4.76-0.17l-4.78-0.14
			c-6.25-0.18-12.69-0.34-19.12-0.47l-4.91-0.09c-6.46-0.11-12.88-0.19-19.08-0.24l-4.78-0.04l-4.72-0.01
			c-1.67,0-3.35-0.01-5.03-0.01c-4.6,0-9.32,0.01-14.04,0.04l-4.9,0.04c-14.8,0.15-29.85,0.46-44.74,0.91l-10.2,0.32l-0.6,0.03
			l-8.56,0.36c-6.48,0.27-12.99,0.57-19.35,0.89l-14.12,0.71l0.78-4.99l6.23-39.74l-15.18,8.02l8.25-46.07l9.42-0.49
			c12.63-0.65,25.48-1.21,38.23-1.64l0-0.04l8.11-0.23l11.01-0.35l-0.01,0.06c10.77-0.26,21.6-0.44,32.22-0.53L285.72,331.63
			 M291.76,325.54l-6.09,0.06l-12.04,0.11c-8.39,0.08-16.93,0.2-25.46,0.38l0.01-0.13l-6.9,0.22l-11,0.35l-8.1,0.23l-5.42,0.15
			l-0.01,0.08c-11.01,0.41-22.07,0.89-32.95,1.46l-9.42,0.49l-4.79,0.25l-0.84,4.72l-8.25,46.07l-2.18,12.18l10.94-5.78l4.54-2.39
			l-4.37,27.84l-0.78,4.98l-1.15,7.34l7.42-0.37l14.12-0.71c6.36-0.32,12.86-0.62,19.3-0.89l8.56-0.36l0.03,0l0.03,0l0.53-0.03
			l10.13-0.31c14.84-0.46,29.85-0.76,44.61-0.91l4.89-0.04c4.7-0.03,9.42-0.04,13.99-0.04c1.68,0,3.35,0,5.02,0.01l4.71,0.01
			l4.76,0.04c6.18,0.05,12.58,0.13,19.04,0.24l4.89,0.09c6.39,0.13,12.81,0.29,19.06,0.47l4.77,0.14l4.74,0.17
			c6.47,0.23,12.91,0.48,19.15,0.75l4.87,0.21l4.79,0.24c6.21,0.31,12.69,0.65,19.26,1.03l14.51,0.83l7.64,0.44l-1.35-7.53
			l-12.62-70.3c-0.82-4.56-3.18-8.7-7.03-12.3c-4.46-4.17-10.12-6.54-16.39-6.85c-17.4-0.85-35.03-1.49-52.52-1.92l-0.01-0.1
			l-5.58-0.08l-8.71-0.13l-10.24-0.19l-6.53-0.12l0.01,0.11c-5.2-0.04-10.41-0.07-15.59-0.07V325.54L291.76,325.54z"/>
	</g>
	<path class="st2" d="M392.15,185.27c0,26.29-10.24,51.01-28.83,69.59c-18.59,18.59-43.31,28.83-69.59,28.83
		c-26.29,0-51-10.24-69.59-28.83c-18.59-18.59-28.83-43.31-28.83-69.59s10.24-51,28.83-69.59c18.59-18.59,43.31-28.83,69.59-28.83
		c26.29,0,51.01,10.24,69.59,28.83C381.91,134.27,392.15,158.98,392.15,185.27z"/>
	<path class="st0" d="M368.08,110.93c-19.86-19.86-46.26-30.79-74.34-30.79s-54.48,10.94-74.34,30.79
		c-19.86,19.86-30.79,46.27-30.79,74.34c0,20.74,5.97,40.58,17.09,57.53c1.19,1.81,2.44,3.59,3.74,5.34
		c3.01,4.03,6.34,7.86,9.95,11.48c19.87,19.86,46.27,30.79,74.35,30.79s54.48-10.94,74.34-30.79c3.62-3.61,6.94-7.45,9.95-11.48
		c1.32-1.75,2.57-3.53,3.76-5.36c11.12-16.95,17.08-36.77,17.08-57.51C398.87,157.2,387.94,130.79,368.08,110.93z M373.66,242.74
		c-1.32,1.83-2.7,3.61-4.15,5.36c-1.94,2.33-4,4.59-6.17,6.77c-18.59,18.59-43.31,28.83-69.59,28.83c-26.29,0-51-10.24-69.6-28.83
		c-2.17-2.18-4.23-4.43-6.17-6.77c-1.45-1.74-2.84-3.53-4.16-5.36c-12.01-16.63-18.49-36.55-18.49-57.47
		c0-26.29,10.24-51,28.82-69.59c18.6-18.59,43.31-28.83,69.6-28.83c26.29,0,51.01,10.24,69.59,28.83
		c18.59,18.59,28.82,43.31,28.82,69.59C392.15,206.19,385.67,226.11,373.66,242.74z"/>
	<circle class="st3" cx="293.74" cy="185.27" r="91.7"/>
	<path class="st2" d="M359.63,190.91c-1.38,2.09-3.17,3.75-5.48,4.75c-8.49,3.68-17.02,7.29-25.59,10.78
		c-1.84,0.75-3.59,1.65-4.62,3.47c-0.35,0.61-0.82,1.07-1.45,1.37c-2.02,0.96-4.04,1.94-6.07,2.88c-0.65,0.3-1.01,0.76-1.15,1.47
		c-0.59,2.96-1.18,5.93-1.81,8.88c-0.99,4.6-1.58,9.3-3.17,13.76c-0.12,0.33-0.06,0.62,0.11,0.91c0.76,1.24,1.46,2.53,2.35,3.68
		c3.49,4.54,6.98,9.08,10.51,13.59c1.76,2.25,3.56,4.46,5.11,6.86c0.94,1.46,1.62,3.04,2.39,4.57c0,0.01,0,0.01,0.01,0.01
		c0.03,0.06,0.06,0.12,0.09,0.19c0.06,0.12,0.12,0.22,0.19,0.29l0.31,0.53c-11.48,5.18-24.22,8.05-37.63,8.05h-0.2
		c-0.13,0-0.26,0-0.39,0c-28.65-0.18-54.17-13.5-70.87-34.23l1.28-0.54l0.01-0.01c2.92-1.01,5.85-2.02,8.82-2.89
		c1.74-0.51,3.52-0.9,5.19-1.63c0.97-0.43,1.88-0.93,2.59-1.77c3.02-3.58,6.26-6.93,10.19-9.55c0.32-0.21,0.52-0.49,0.58-0.86
		c0.07-0.37,0.14-0.75,0.2-1.12c1.14-6.68,3.04-13.13,6.08-19.21c1.06-2.12,2.28-4.15,3.64-6.09c0.32-0.46,0.45-0.87,0.08-1.38
		c-1.43-1.95-2.36-4.14-3.04-6.45c-0.39-1.35-0.66-1.44-1.83-0.59c-1.14,0.83-1.77,2.03-2.22,3.32c-0.57,1.63-0.7,3.35-0.83,5.05
		c-0.1,1.32,0.17,1.37-1.55,1.26c-2.94-0.19-5.37,0.83-7.31,3.05c-1.62,1.85-2.8,3.96-3.75,6.21c-1.76,4.16-2.66,8.54-3.27,12.99
		c-0.22,1.56-0.39,3.13-0.6,4.84c-0.1-0.26-0.17-0.38-0.2-0.51c-0.38-1.77-0.71-3.57-0.92-5.37c-0.57-4.83-0.71-9.69-0.92-14.54
		c-0.05-1.22-0.12-2.45-0.19-3.67c-0.01-0.14,0.04-0.34-0.12-0.4c-0.2-0.07-0.28,0.14-0.37,0.27c-0.89,1.21-1.71,2.47-2.43,3.79
		c-2.92,5.39-4.49,11.19-5.29,17.23c-0.14,1.1-0.25,2.21-0.39,3.45c-0.15-0.18-0.18-0.21-0.19-0.25c-0.08-0.22-0.16-0.44-0.24-0.66
		c-1.63-4.91-2.36-9.98-2.54-15.14c-0.17-5.02,0.16-10.01,0.93-14.97c1.62-10.56,4.57-20.74,8.76-30.57c0.47-1.1,0.92-1.3,2.03-0.81
		c1.69,0.75,3.46,1.24,5.25,1.67c3.9,0.93,7.87,1.34,11.87,1.49c2.92,0.11,5.14-1.33,6.57-3.71c2.17-3.61,4.37-7.19,7.14-10.37
		c3.31-3.81,7.3-6.83,11.43-9.68c1.09-0.75,2.34-1.32,3.25-2.3c2.17-2.3,4.54-4.35,6.99-6.34c0.91-0.73,1.85-1.04,2.99-0.89
		c1.3,0.16,2.62,0.13,3.93,0.07c1.17-0.05,2.28-0.32,3.33-0.9c1.62-0.9,3.07-2.01,4.42-3.27c0.84-0.78,1.7-1.52,2.64-2.17
		c7.15-4.93,14.29-9.87,21.43-14.81c0.8-0.55,1.6-1.11,2.39-1.67c0.63-0.45,1.24-0.44,1.86,0.03c0.42,0.32,0.86,0.62,1.28,0.93
		c0.36,0.27,0.76,0.47,1.21,0.53c1.16,0.17,2.16,0.7,3.09,1.38c1.16,0.85,2.24,1.8,3.3,2.77c3.43,3.14,6.41,6.66,9.22,10.35
		c1.93,2.54,2.03,5.01,0.26,7.46c-0.13,0.19-0.28,0.37-0.44,0.56c-0.22,0.26-0.44,0.53-0.7,0.73c-0.68,0.54-0.81,1.23-0.71,2.04
		c0.11,0.94,0.15,1.89,0.21,2.84c0.03,0.47-0.16,0.65-0.64,0.57c-0.9-0.13-1.81-0.2-2.71-0.33c-0.71-0.1-1.32,0.1-1.89,0.52
		c-2.18,1.61-4.37,3.18-6.56,4.77c-0.6,0.44-1.01,1-1.24,1.72c-0.21,0.69-0.44,1.37-0.68,2.05c-0.28,0.78-0.35,0.8-1.1,0.5
		c-0.25-0.1-0.51-0.21-0.76-0.31c-0.63-0.26-0.71-0.21-0.75,0.49c-0.04,0.59-0.07,1.18-0.11,1.77c-0.03,0.47-0.27,0.57-0.68,0.4
		c-0.63-0.25-1.29-0.44-1.89-0.73c-0.16-0.08-0.32-0.14-0.46-0.17c-0.52-0.12-0.96,0.06-1.41,0.51c-1.32,1.31-2.63,2.63-3.96,3.93
		c-0.55,0.53-1.09,1.06-1.65,1.58c-0.74,0.7-1.24,1.56-1.17,2.64c0.02,0.38-0.13,0.58-0.53,0.63c-1.23,0.14-1.23,0.14-1.23,1.39
		c0,0.1,0,0.21,0,0.32c0.03,0.53-0.2,0.84-0.75,0.89c-0.25,0.02-0.5,0.06-0.75,0.09c-0.69,0.07-1.18,0.39-1.48,1.04
		c-0.25,0.54-0.55,1.05-0.8,1.59c-0.29,0.63-0.43,1.27-0.2,1.96c0.28,0.83,0.27,0.86-0.6,0.98c-0.73,0.1-1.16,0.45-1.43,1.14
		c-0.49,1.28-1.06,2.53-1.59,3.8c-0.09,0.21-0.27,0.45-0.11,0.65c0.16,0.2,0.44,0.07,0.66,0.03c1.47-0.25,2.93-0.27,4.41-0.04
		c2.35,0.37,4.3,1.58,6.2,2.91c1.97,1.37,3.68,3.04,5.34,4.76c0.41,0.43,0.82,0.76,1.48,0.66c2.88-0.45,5.76-0.87,8.65-1.3
		c0.53-0.08,0.95-0.32,1.27-0.76c0.01-0.02,0.03-0.04,0.04-0.06c0.41-0.56,0.82-1.12,1.24-1.67c0.5-0.65,0.56-0.65,1.18-0.09
		c0.11,0.1,0.22,0.2,0.32,0.3c0.33,0.34,0.68,0.55,1.06,0.64c0.35,0.08,0.74,0.06,1.18-0.06c1.6-0.44,3.22-0.82,4.84-1.22
		c0.64-0.16,1.29-0.32,1.92-0.49c2.37-0.62,2.35-0.12,3.36-2.61c0.15-0.37,0.36-0.4,0.69-0.2c0.89,0.56,1.89,0.82,2.94,0.92
		c0.76,0.07,1.52,0.05,2.28-0.02c0.04,0,0.08-0.01,0.11-0.01h0c0.75-0.06,0.83,0.04,0.96,0.84c0.35,2.23,0.73,4.46,1.04,6.7
		C360.99,187.51,360.7,189.3,359.63,190.91z"/>
	<path class="st2" d="M524.72,340.83c-3.27,3.39-7.85,5.33-12.56,5.33c-0.35,0-0.71-0.01-1.06-0.03
		c-14.21-0.83-29.11-1.62-44.31-2.35c-4.07-0.19-7.82-1.77-10.73-4.34c-0.32,0.14-0.63,0.28-0.95,0.4
		c-5.66,2.41-11.93,3.63-18.64,3.63c-0.87,0-1.56-0.01-2.22-0.04c-8.11-0.33-15.84-2.48-23.6-6.58c-0.19-0.11-0.36-0.19-0.52-0.29
		c-1.01-0.58-2-1.19-2.98-1.84c-0.3,0.38-0.63,0.74-0.97,1.09c-3.28,3.34-7.83,5.25-12.49,5.25c-0.19,0-0.38,0-0.56-0.01
		c-5.03-0.13-9.21-0.24-13.16-0.32c-6.2-0.14-11.64-3.55-14.63-8.57c-3.17,4.94-8.63,7.99-14.68,7.99h-0.27
		c-4.24-0.07-8.47-0.12-12.69-0.17l-0.43-0.01c-5.28-0.06-10.19-2.53-13.42-6.55c-0.32,0.4-0.67,0.79-1.03,1.16
		c-3.27,3.29-7.79,5.17-12.41,5.17h-0.07c-5.46-0.02-10.98-0.03-16.38-0.03c-9.39,0-18.83,0.03-28.04,0.1h-0.12
		c-0.95,0-1.89-0.08-2.84-0.23c-0.95,0.17-1.92,0.26-2.9,0.28c-5.19,0.05-10.36,0.11-15.54,0.17h-0.23c-4.96,0-9.58-2.05-12.88-5.67
		c-3.13,3.66-7.74,6-12.91,6.11l-0.29,0.01c-4.31,0.09-8.61,0.18-12.91,0.29h-0.42c-4.64,0-9.16-1.89-12.42-5.18
		c-0.27-0.27-0.53-0.55-0.78-0.84c-7.69,4.95-16.41,7.69-25.37,8.01c-0.58,0.02-1.14,0.03-1.68,0.03c-6.16,0-12.18-1.18-17.91-3.5
		c-0.13-0.05-0.27-0.1-0.4-0.15c-0.17-0.07-0.37-0.15-0.58-0.25l-0.09-0.03c-0.07-0.03-0.19-0.09-0.34-0.15
		c-2.1-0.93-4.17-2.03-6.14-3.27c-0.85-0.52-1.62-1.01-2.34-1.48l-0.56-0.39c-1.89-1.37-3.65-2.87-5.23-4.44
		c-0.11-0.1-0.22-0.21-0.32-0.32l-0.21-0.23c-0.83-0.89-1.65-1.83-2.49-2.87c-1.14-1.36-2.2-2.78-3.17-4.25
		c-0.79,0.44-1.59,0.86-2.4,1.25c-5.86,2.87-11.52,4.02-16.27,4.57c-0.03,0.46-0.07,0.91-0.11,1.37l-0.05,0.65
		c-0.69,8.67-7.76,15.58-16.44,16.06c-4.25,0.24-8.49,0.48-12.73,0.73l-0.73,0.03c-0.3,0.01-0.56,0.02-0.83,0.02
		c-4.68,0-9.24-1.92-12.51-5.27c-3.53-3.62-5.32-8.59-4.9-13.64c0.91-10.99,1.83-21.98,2.75-32.96c0.5-5.97,0.99-11.94,1.49-17.91
		l0.93-11.09c0.75-9.01,8.14-15.89,17.19-16.01c8.12-0.1,16.23-0.2,24.33-0.29h0.51c5.37,0.1,12.45,0.65,19.71,4.05l0.39,0.19
		c0.01,0.01,0.03,0.01,0.04,0.02c3.21,1.57,6.12,3.53,8.64,5.8c0.34-0.3,0.69-0.58,1.04-0.85c1.09-0.98,2.06-1.65,2.55-1.98
		l0.17-0.11c3.95-2.71,8.14-4.8,13.16-6.56c0.2-0.07,0.41-0.14,0.61-0.21l0.08-0.03c2.53-0.77,5.22-1.36,8.01-1.73
		c2.96-0.39,5.85-0.51,8.56-0.36l0.44,0.03h0.09c3.25,0.18,6.5,0.69,9.68,1.53l0.54,0.13c0.3,0.07,0.58,0.15,0.85,0.24
		c4.47,1.3,8.71,3.23,12.63,5.72c0.17,0.11,0.35,0.22,0.52,0.34c3.16-4.27,8.23-7.01,13.95-7.04l13.01-0.06
		c4.62,0,9.12,1.87,12.38,5.15c3.25-3.32,7.77-5.23,12.42-5.24c4.82-0.01,9.65-0.03,14.46-0.03h0.1c1.16,0.01,2.32,0.13,3.45,0.36
		c1.18-0.25,2.39-0.38,3.59-0.38c14.15-0.02,28.31-0.03,42.47-0.01c0.51,0,1.03,0.03,1.57,0.08c0.54-0.05,1.08-0.08,1.63-0.08
		l14.06,0.02c6.84,0.01,13.08,4.05,15.89,10.29c0.46,1.01,0.91,2.02,1.37,3.03c0.3-0.73,0.58-1.47,0.89-2.22
		c2.65-6.69,9.02-11.01,16.23-11.01h0.65c4.13,0.02,8.22,0.04,12.32,0.05c0.79,0,1.59,0.06,2.39,0.17c0.74-0.09,1.48-0.14,2.21-0.14
		l6.77,0.03c2.1,0.01,4.19,0.03,6.3,0.03c5.55,0.03,10.51,2.64,13.69,6.72c0.84-0.54,1.7-1.06,2.58-1.55
		c6.8-3.78,14.25-5.65,23.44-5.87h0.42c0.22,0,0.46,0,0.69,0.01c7.58,0.29,13.83,1.63,19.69,4.21c0.36,0.15,0.73,0.32,1.1,0.49
		c2.98-2.2,6.65-3.44,10.41-3.44h0.17c12.62,0.13,27.53,0.3,42.45,0.48c8.96,0.12,16.34,6.93,17.17,15.84l1.05,11.21
		c0.36,3.86-0.58,7.7-2.61,10.93c0.16,0.73,0.28,1.46,0.36,2.21c0.14,1.54,0.28,3.05,0.41,4.57c0.19,2.01,0.38,4.07,0.57,6.14
		l0.04,0.5c0.1,1.03,0.1,2.06,0.01,3.08c3.31,2.88,5.47,6.97,5.89,11.56l1.09,11.78C530.02,332.16,528.26,337.17,524.72,340.83z"/>
	<path class="st4" d="M522.19,327.76l-1.09-11.79c-0.38-4.19-3.31-7.6-7.19-8.74c1.02-1.78,1.49-3.85,1.29-5.93l-0.04-0.46
		c-0.19-2.06-0.38-4.11-0.57-6.16c-0.13-1.5-0.27-3-0.41-4.51c-0.15-1.6-0.67-3.08-1.47-4.37c0.38-0.3,0.73-0.63,1.07-0.99
		c1.96-2.1,2.92-4.94,2.65-7.79l-0.06-0.64l-0.99-10.59c-0.48-5.13-4.75-9.07-9.9-9.14c-14.92-0.19-29.83-0.35-42.44-0.48h-0.1
		c-2.8,0-5.46,1.16-7.36,3.2c-0.61,0.65-1.11,1.37-1.52,2.14c-1.8-1.18-3.68-2.19-5.62-3.02c-4.97-2.19-10.37-3.33-17.02-3.58
		c-0.13-0.01-0.26-0.01-0.38-0.01h-0.24c-7.94,0.19-14.31,1.76-20.03,4.95c-3.7,2.05-6.99,4.72-9.74,7.86l-0.12-2.52
		c-0.26-5.35-4.66-9.56-10.02-9.59c-2.11-0.01-4.21-0.02-6.32-0.03c-2.22-0.01-4.46-0.02-6.69-0.03h-0.04
		c-0.77,0-1.53,0.09-2.26,0.26c-0.77-0.19-1.56-0.29-2.37-0.29c-4.11-0.01-8.2-0.03-12.3-0.05h-0.65c-4.12,0-7.83,2.51-9.36,6.35
		c-2.61,6.56-5.05,12.65-7.35,18.4c-2.75-6.13-5.6-12.46-8.51-18.91c-1.63-3.61-5.21-5.93-9.17-5.94l-7.13-0.01l-6.91-0.01
		c-0.01,0-0.01,0-0.01,0c-0.55,0-1.1,0.05-1.63,0.13c-0.51-0.08-1.03-0.13-1.57-0.13c-5-0.01-9.99-0.01-14.99-0.01
		c-9.15,0-18.31,0.01-27.47,0.02c-1.26,0-2.46,0.24-3.57,0.67c-1.1-0.41-2.28-0.65-3.52-0.65h-0.05c-4.81,0.01-9.64,0.02-14.45,0.03
		c-2.71,0.01-5.32,1.12-7.2,3.06c-2.6,2.68-5.12,5.28-7.57,7.81c0.01-0.13,0.01-0.27,0.01-0.41c0.08-2.73-0.95-5.38-2.86-7.33
		c-1.89-1.94-4.5-3.04-7.21-3.04h-0.16l-12.81,0.06c-5.41,0.03-9.84,4.32-10.03,9.73l-0.09,2.9c-0.33-0.37-0.65-0.71-0.95-1.03
		c-0.09-0.09-0.17-0.17-0.26-0.26c-0.1-0.1-0.2-0.19-0.31-0.29c-1.67-1.65-3.49-3.16-5.4-4.5l-0.08-0.05
		c-0.32-0.24-0.64-0.47-0.97-0.7c-0.11-0.08-0.22-0.15-0.34-0.22c-3.37-2.16-7.03-3.82-10.88-4.93c-0.12-0.04-0.25-0.07-0.37-0.1
		c-0.2-0.05-0.4-0.09-0.59-0.14l-0.03-0.01c-2.78-0.74-5.61-1.18-8.43-1.33c-0.06-0.01-0.12-0.01-0.18-0.01h-0.05
		c-0.68-0.04-1.37-0.06-2.08-0.06c-1.71,0-3.49,0.12-5.29,0.36c-2.36,0.32-4.66,0.81-6.83,1.47c-0.13,0.04-0.26,0.08-0.38,0.13
		c-4.4,1.54-8.04,3.35-11.46,5.69l-0.11,0.07c-0.43,0.3-1.19,0.81-2.02,1.59c-1.15,0.88-2.26,1.88-3.43,3.1
		c-0.28,0.26-0.55,0.52-0.81,0.81c-0.53,0.58-1.22,1.36-1.91,2.22c-2.63-4.19-6.61-7.68-11.59-10.12c-0.03-0.01-0.07-0.03-0.1-0.05
		c-6.06-2.88-12.22-3.35-16.9-3.43h-0.3c-8.1,0.09-16.21,0.19-24.31,0.29c-5.19,0.07-9.49,4.07-9.92,9.24l-0.77,9.23
		c-0.55,6.59-1.1,13.18-1.65,19.77c-0.92,10.98-1.83,21.96-2.75,32.95c-0.24,2.91,0.79,5.78,2.82,7.87
		c1.91,1.96,4.51,3.04,7.22,3.04c0.19,0,0.39-0.01,0.58-0.01c4.43-0.26,8.86-0.51,13.29-0.76c5.03-0.28,9.08-4.24,9.48-9.27
		c0.22-2.8,0.44-5.58,0.66-8.37c0.85-0.03,1.71-0.07,2.57-0.1c0.1-0.01,0.2-0.01,0.31-0.02c4.67-0.33,10.82-1.1,17.05-4.16
		c2.96-1.41,5.72-3.33,8.14-5.58c1.55,3.8,3.67,7.34,6.34,10.53c0.76,0.93,1.48,1.77,2.22,2.57c0.09,0.09,0.17,0.18,0.27,0.27
		c1.32,1.32,2.81,2.59,4.41,3.75c0.11,0.07,0.22,0.15,0.33,0.23c0.65,0.44,1.34,0.87,2.1,1.33c1.71,1.08,3.53,2.05,5.41,2.87
		c0.05,0.03,0.09,0.05,0.14,0.07c0.15,0.07,0.3,0.13,0.46,0.19c0.1,0.04,0.2,0.08,0.3,0.11c4.88,2,10.01,3.01,15.27,3.01
		c0.47,0,0.95-0.01,1.42-0.03c8.22-0.29,16.21-3,23.1-7.82l0.21-0.15c0.38-0.27,0.75-0.54,1.1-0.81c0.19-0.14,0.37-0.28,0.55-0.42
		c0.31-0.24,0.63-0.5,0.94-0.75c0.01-0.01,0.01-0.02,0.03-0.03c0.13-0.11,0.26-0.21,0.38-0.32c0.85-0.73,1.66-1.48,2.44-2.26
		l-0.01,0.14c-0.09,2.77,0.96,5.46,2.92,7.43c1.89,1.91,4.47,2.99,7.16,2.99h0.24c4.31-0.11,8.62-0.2,12.93-0.29l0.3-0.01
		c5.37-0.11,9.7-4.42,9.86-9.79l0.13-4.66c2.51,3.18,5.17,6.54,8.06,10.19c1.91,2.42,4.82,3.82,7.9,3.82h0.13
		c5.18-0.07,10.35-0.12,15.54-0.17c1.01-0.01,2-0.17,2.93-0.47c0.93,0.28,1.91,0.42,2.9,0.42h0.07c9.25-0.07,18.7-0.1,28.09-0.1
		c5.42,0,10.94,0.01,16.41,0.03h0.05c2.69,0,5.26-1.08,7.16-2.98c1.9-1.92,2.96-4.52,2.92-7.23v-0.42
		c-0.05-3.45-0.09-6.89-0.13-10.34c-0.04-3.94-2.35-7.33-5.66-8.95c0.59-1.28,0.91-2.67,0.93-4.1c4.48,9.98,8.91,19.87,12.69,28.29
		c1.6,3.59,5.15,5.91,9.07,5.96h0.04c4.36,0.05,8.73,0.11,13.1,0.17h0.15c4.13,0,7.84-2.51,9.37-6.36
		c2.92-7.34,5.99-15.13,9.35-23.63l0.05,1.25l0.86,19.68c0.23,5.3,4.54,9.52,9.84,9.64c3.98,0.09,8.2,0.19,13.28,0.33
		c0.09,0.01,0.18,0.01,0.28,0.01c2.71,0,5.3-1.09,7.2-3.03c1.96-2.01,3-4.74,2.86-7.55l-0.05-0.91c2.94,3.12,6.35,5.82,10.1,7.96
		c0.09,0.05,0.19,0.11,0.3,0.16c6.77,3.57,13.46,5.45,20.46,5.73c0.64,0.03,1.28,0.03,1.9,0.03c5.72,0,11.03-1.03,15.78-3.06
		c2.06-0.85,4.04-1.96,5.9-3.25c1.36,3.74,4.85,6.42,8.99,6.62c14.76,0.71,29.7,1.49,44.42,2.35c0.19,0.01,0.4,0.02,0.59,0.02
		c2.72,0,5.34-1.1,7.24-3.07C521.45,333.58,522.46,330.69,522.19,327.76z"/>
	<path class="st0" d="M127.17,274.65c-1.72-3.24-4.73-5.69-7.98-7.28c-4.03-1.92-8.36-2.38-12.76-2.46
		c-8.1,0.09-16.2,0.19-24.3,0.29c-0.81,9.66-1.62,19.33-2.42,28.99c-0.92,10.99-1.83,21.97-2.75,32.95
		c4.43-0.26,8.87-0.51,13.3-0.76c0.46-5.76,0.91-11.51,1.36-17.27c3.84-0.16,7.67-0.32,11.5-0.48c4.65-0.33,9.15-1.1,13.37-3.18
		c3.65-1.73,6.88-4.53,9.11-7.89c0.97-1.41,1.74-2.96,2.33-4.58c0.82-2.25,1.28-4.64,1.44-6.99
		C129.47,281.99,129.11,278.26,127.17,274.65z M112.5,294.09c-2.47,2.19-6.03,2.89-9.22,3.01c-3.57,0.12-7.14,0.24-10.72,0.36
		c0.09-1.21,0.19-2.42,0.29-3.63c0.46-5.83,0.92-11.66,1.38-17.5c3.54-0.07,7.09-0.13,10.63-0.2c2.95-0.05,6.49,0.37,8.75,2.51
		c2.26,2.08,2.49,4.78,2.51,7.66c-0.1,2.59-1.13,5.12-2.87,7.02C113.02,293.6,112.76,293.85,112.5,294.09z"/>
	<path class="st0" d="M238.7,291.39c-0.59-0.76-1.18-1.53-1.77-2.29c7.91-8.42,15.84-16.83,23.79-25.21
		c-4.81,0.01-9.63,0.02-14.44,0.03c-8.57,8.84-17.11,17.69-25.61,26.57c0.25-8.83,0.5-17.66,0.75-26.48
		c-4.31,0.02-8.61,0.04-12.91,0.06c-0.32,9.2-0.63,18.4-0.95,27.6c-0.34,10.03-0.69,20.06-1.03,30.1c4.42-0.11,8.84-0.2,13.25-0.3
		c0.14-4.94,0.28-9.88,0.42-14.82c2.63-2.74,5.25-5.48,7.89-8.22c5.95,7.54,11.9,15.06,17.86,22.59c5.19-0.07,10.37-0.12,15.56-0.17
		C253.91,311.05,246.3,301.22,238.7,291.39z"/>
	<path class="st0" d="M311.93,309.96c-10.41-0.04-20.81-0.04-31.22-0.01c0.01-4.43,0.01-8.86,0.02-13.3
		c8.82-0.02,17.64-0.03,26.47-0.01c-0.02-1.83-0.04-3.65-0.06-5.47c-0.02-1.59-0.03-3.18-0.05-4.76
		c-8.78-0.01-17.56-0.01-26.34,0.01c0.01-4.08,0.01-8.15,0.02-12.22c9.88-0.01,19.77-0.01,29.66,0c-0.05-3.45-0.09-6.9-0.13-10.35
		c-14.14-0.01-28.29-0.01-42.43,0.01c-0.07,9.12-0.13,18.24-0.2,27.35c-0.07,9.86-0.14,19.73-0.21,29.59
		c14.87-0.11,29.75-0.13,44.62-0.07C312.02,317.15,311.97,313.56,311.93,309.96z"/>
	<path class="st0" d="M361.95,263.98c-3.64,9.14-7.29,18.27-10.95,27.39c-1.74,4.35-3.49,8.71-5.23,13.06
		c-1.96-4.37-3.92-8.76-5.89-13.13c-4.1-9.14-8.21-18.29-12.33-27.43c-4.68-0.01-9.35-0.01-14.04-0.02
		c4.11,9.12,8.21,18.25,12.31,27.37c4.45,9.91,8.9,19.82,13.34,29.74c4.39,0.05,8.78,0.11,13.17,0.17
		c3.92-9.88,7.83-19.77,11.74-29.67c3.62-9.14,7.21-18.29,10.8-27.44C370.56,264.02,366.26,264,361.95,263.98z"/>
	<path class="st0" d="M393.87,291.8c-0.46-9.23-0.91-18.45-1.36-27.68c-4.33-0.02-8.66-0.05-13-0.07c0.4,9.19,0.81,18.38,1.2,27.58
		c0.44,10.03,0.87,20.05,1.31,30.08c4.44,0.1,8.89,0.22,13.33,0.34C394.86,311.97,394.36,301.89,393.87,291.8z"/>
	<path class="st0" d="M450.49,305.91c-3.34,4.43-8.35,6.87-13.9,6.66c-3.37-0.05-6.74-1.06-9.65-2.73
		c-2.86-1.62-5.21-4.13-6.91-6.91c-1.79-2.92-2.67-6.4-2.9-9.79c0-0.34,0-0.67,0.01-0.99c0.07-3.07,0.54-5.68,1.73-8.62
		c1.31-2.71,3.41-4.98,6.01-6.48c2.9-1.67,5.92-2.08,9.2-2.23c5.76,0.06,10.9,2.8,14.67,7.06c2.61-2.63,5.2-5.27,7.8-7.91
		c-2.85-3.3-6.48-6.06-10.49-7.78c-4.27-1.89-8.74-2.57-13.37-2.75c-5.42,0.13-10.58,1.01-15.37,3.68
		c-4.37,2.42-7.98,6.03-10.34,10.44c-2.45,4.54-3.19,9.35-3.18,14.4c0,0.31,0.01,0.62,0.01,0.93c0.5,5.78,1.98,10.68,4.88,15.7
		c2.93,4.68,6.99,8.55,11.78,11.29c5.21,2.75,10.45,4.34,16.15,4.57c4.46,0.17,9.1-0.4,13.38-2.24c3.82-1.57,7.19-4.35,9.58-7.69
		C456.56,311.63,453.53,308.76,450.49,305.91z"/>
	<path class="st0" d="M512.73,315.36c-10.39-0.52-20.77-0.99-31.16-1.44c-0.39-4.73-0.78-9.45-1.18-14.18
		c8.82,0.3,17.62,0.62,26.43,0.95c-0.2-2.2-0.4-4.41-0.61-6.62c-0.13-1.5-0.27-2.99-0.41-4.49c-8.77-0.26-17.54-0.5-26.31-0.74
		c-0.36-4.33-0.72-8.67-1.08-13c9.88,0.17,19.75,0.37,29.64,0.57c-0.35-3.74-0.7-7.49-1.05-11.22c-14.14-0.18-28.27-0.34-42.41-0.48
		c0.74,9.46,1.48,18.93,2.22,28.39c0.83,10.57,1.65,21.13,2.47,31.7c14.85,0.71,29.69,1.49,44.53,2.36
		C513.46,323.22,513.09,319.29,512.73,315.36z"/>
	<g>
		<path d="M198.55,292.86c0.02-16.77-14.7-29.89-31.12-29.77c-16.89,0.12-31.16,14.1-31.18,31.08
			c-0.02,16.94,14.34,30.2,31.11,29.61C183.81,323.2,198.53,309.7,198.55,292.86z"/>
		<path class="st5" d="M148.04,269.87c0.32-0.38,0.76-0.65,1.15-0.92c2.82-1.94,5.78-3.33,9.07-4.49c1.71-0.52,3.44-0.88,5.21-1.12
			c1.81-0.24,3.67-0.33,5.44-0.23c2.55,0.15,4.92,0.59,7.45,1.21c2.91,0.84,5.69,2.1,8.25,3.74c2.02,1.41,3.75,2.82,5.52,4.53
			c2.06,2.14,3.8,4.58,5.13,7.23c1.27,2.52,2.17,5.23,2.64,8.02c0.19,1.12,0.33,2.25,0.37,3.38c0.01,0.29,0,0.3-0.28,0.19
			c-1.62-0.64-3.24-1.28-4.86-1.92c-2.05-0.84-4.26-1.55-6.43-1.99c-0.37-0.08-0.75-0.16-1.13-0.22c-0.17-0.03-0.25-0.09-0.29-0.26
			c-0.39-1.8-1.61-3.84-3.01-5.04c-1.47-1.46-3.92-2.61-5.98-2.81c-2.77-0.38-5.57,0.27-7.88,1.84c-1.6,1-3.16,2.86-3.88,4.6
			c-0.1,0.23-0.23,0.3-0.47,0.31c-1.38,0.05-2.75,0.18-4.12,0.33c-2.4,0.3-4.72,0.69-7.09,1.18c-2,0.44-4,0.99-5.94,1.61
			c-3.52,1.17-6.97,2.48-10.4,3.88c-0.22,0.09-0.28,0.06-0.27-0.18c0.07-1.38,0.21-2.75,0.46-4.12c0.35-2.08,0.98-4.25,1.81-6.19
			c1.1-2.67,2.57-5.19,4.36-7.45c0.56-0.71,1.15-1.38,1.75-2.05c0.04-0.04,0.07-0.09,0.14-0.07c-0.02,0.13-0.12,0.22-0.19,0.32
			c-1.1,1.42-1.9,3.7-1.62,5.51c0.15,1.17,0.71,2.13,1.62,2.86c1,0.8,2.22,1.05,3.48,1.08c0.69,0.02,1.39-0.1,2.07-0.29
			c3.47-0.84,6.43-3.31,7.98-6.51c0.64-1.3,0.87-2.69,0.55-4.11c-0.47-2.15-2.41-3.43-4.53-3.53c-1.89-0.18-4.24,0.53-5.82,1.55
			C148.22,269.79,148.16,269.88,148.04,269.87z"/>
		<path class="st0" d="M146.78,297.39c2.5-0.68,4.97-1.27,7.51-1.79c1.45-0.27,2.91-0.51,4.38-0.69c0.96-0.12,1.93-0.22,2.89-0.31
			c0.87-0.08,1.75-0.12,2.62-0.21c0.19-0.02,0.29,0.02,0.38,0.21c0.64,1.43,1.58,2.65,2.79,3.66c1.4,1.24,3.61,2.21,5.47,2.39
			c0.72,0.1,1.45,0.14,2.18,0.09c1.3-0.09,2.56-0.37,3.76-0.88c1.5-0.64,2.8-1.55,3.91-2.73c0.4-0.42,0.76-0.87,1.07-1.35
			c0.12-0.18,0.24-0.21,0.43-0.18c1.61,0.29,3.2,0.64,4.78,1.04c1.57,0.4,3.12,0.85,4.66,1.34c1.26,0.41,2.51,0.86,3.76,1.27
			c0.23,0.08,0.17,0.22,0.14,0.35c-0.09,0.38-0.18,0.76-0.29,1.13c-0.56,2.09-1.44,4.25-2.48,6.14c-0.31,0.59-0.65,1.16-1.04,1.71
			c-0.27,0.13-0.47,0.35-0.68,0.54c-1.44,1.28-2.93,2.49-4.58,3.53c-1.37,0.86-2.8,1.61-4.3,2.24c-2.54,0.94-4.84,1.56-7.51,2.03
			c-2.64,0.23-4.99,0.24-7.63,0.01c-2.04-0.24-4.2-0.79-6.11-1.53c-1.97-0.71-4.01-1.77-5.72-2.98c-0.95-0.65-1.84-1.37-2.7-2.14
			c-1.74-1.72-3.13-3.37-4.53-5.38c-1.13-1.73-2.1-3.78-2.7-5.76C147.07,298.58,146.86,298,146.78,297.39z"/>
		<path class="st6" d="M146.91,297.29c0.08,0.61,0.29,1.18,0.48,1.76c0.61,1.97,1.57,4.03,2.7,5.75c1.4,2.01,2.79,3.65,4.53,5.38
			c0.85,0.77,1.75,1.49,2.7,2.14c1.71,1.21,3.75,2.27,5.72,2.98c1.91,0.74,4.08,1.29,6.11,1.53c2.64,0.23,4.99,0.22,7.63-0.01
			c2.67-0.47,4.97-1.09,7.51-2.03c1.49-0.63,2.92-1.38,4.3-2.24c1.65-1.03,3.14-2.24,4.58-3.53c0.22-0.19,0.42-0.41,0.68-0.54
			c0.02,0.1-0.05,0.17-0.09,0.24c-0.72,1.12-1.51,2.21-2.37,3.24c-0.92,1.11-1.94,2.15-3.01,3.13c-1.37,1.26-2.85,2.4-4.44,3.4
			c-1.39,0.88-2.84,1.67-4.35,2.33c-1.7,0.75-3.45,1.36-5.25,1.82c-0.88,0.23-1.76,0.41-2.65,0.56c-1.27,0.21-2.54,0.33-3.82,0.41
			c-0.78,0.05-1.56,0.06-2.33,0.05c-3.79-0.03-7.58-0.89-11.09-2.28c-2.25-1.03-4.18-2.11-6.24-3.48c-1.14-0.83-2.23-1.74-3.23-2.74
			c-3.34-3.59-5.64-7.32-7.31-11.92c-0.23-0.73-0.43-1.47-0.61-2.21c-0.05-0.2-0.02-0.29,0.18-0.37c2.91-1.16,5.84-2.21,8.84-3.15
			C146.36,297.44,146.63,297.37,146.91,297.29z"/>
		<path class="st0" d="M148.04,269.9c0.12,0.02,0.18-0.07,0.27-0.12c1.58-1.03,3.93-1.73,5.82-1.55c2.11,0.11,4.06,1.38,4.53,3.53
			c0.32,1.41,0.08,2.8-0.56,4.11c-1.55,3.2-4.51,5.67-7.98,6.51c-0.68,0.19-1.38,0.31-2.07,0.29c-1.26-0.03-2.48-0.29-3.48-1.08
			c-0.91-0.73-1.47-1.68-1.62-2.86c-0.28-1.81,0.53-4.09,1.62-5.51c0.07-0.1,0.18-0.18,0.19-0.32c0.01,0,0.02-0.01,0.02-0.02
			c0.04,0.02,0.04,0,0.03-0.03c0.01-0.01,0.02-0.03,0.04-0.04c0.09-0.03,0.11-0.1,0.12-0.18c0.9-0.96,1.85-1.86,2.92-2.62
			c0.07,0.02,0.1-0.01,0.12-0.07C148.03,269.92,148.04,269.91,148.04,269.9z"/>
		<path class="st0" d="M181.84,289.75c0.01,3.69-3.38,7-7.09,6.91c-3.52,0.02-7.03-2.97-6.86-6.66c-0.11-3.78,3.39-6.84,7.01-6.9
			C178.57,282.9,181.83,286.11,181.84,289.75z M169.5,289.96c0.11,2.76,2.45,5.31,5.36,5.12c2.72-0.17,5.47-2.35,5.37-5.29
			c0.13-2.94-2.65-5.06-5.36-5.13C171.96,284.59,169.64,287.19,169.5,289.96z"/>
		<path class="st0" d="M174.86,294.68c-2.68,0.02-4.92-2.05-4.94-4.76c0.08-2.69,2.31-4.77,4.97-4.85c2.64,0,4.89,2.04,4.93,4.72
			C179.74,292.49,177.53,294.59,174.86,294.68z"/>
	</g>
	<g class="st7">
		<g>
			<g>
				<path class="st8" d="M125.91,294.38c-0.41,0.87-0.89,1.68-1.41,2.45c-2.09,3.16-5.13,5.79-8.59,7.43
					c-3.48,1.71-7.45,2.65-12.85,3.04c-3.83,0.15-7.65,0.32-11.48,0.48l-1.19,0.05l-0.09,1.18c-0.23,2.88-0.46,5.76-0.69,8.63
					c-0.19,2.49-0.39,4.98-0.59,7.47c-3.53,0.2-7.06,0.4-10.59,0.6c0.84-10.07,1.68-20.14,2.52-30.21
					c3.48-0.09,6.96-0.19,10.43-0.28c-0.01,0.11-0.02,0.21-0.03,0.32c-0.05,0.6-0.09,1.21-0.14,1.81l-0.12,1.5l1.51-0.05l8.19-0.28
					l2.53-0.09c4.36-0.17,7.74-1.29,10.07-3.35c0.16-0.15,0.32-0.3,0.45-0.43C118.36,294.55,122.26,294.46,125.91,294.38z"/>
			</g>
			<g>
				<path class="st8" d="M258.8,319.55c-4.07,0.05-8.13,0.09-12.2,0.14c-6.74-8.51-12.3-15.54-17.45-22.07l-0.95-1.21l-1.07,1.11
					c-2.63,2.73-5.26,5.48-7.89,8.22l-0.36,0.37l-0.01,0.52l-0.38,13.54c-3.52,0.07-7.03,0.15-10.56,0.24l0.6-17.77l0.33-9.62
					c9.38-0.11,18.94-0.19,29.18-0.27C244.63,301.26,251.19,309.72,258.8,319.55z"/>
			</g>
			<g>
				<path class="st8" d="M310.7,319.4c-5.03-0.02-10.11-0.03-15.08-0.03c-8.96,0-17.97,0.03-26.81,0.09
					c0.06-8.97,0.13-17.93,0.19-26.9c7.96-0.03,16.41-0.05,26.45-0.05c3.45,0,6.91,0,10.36,0.01l0.02,1.78l0.01,1.01
					c-3.25-0.01-6.48-0.01-9.72-0.01c-5.13,0-10.26,0.01-15.39,0.02h-1.34v1.34l-0.01,6.65l-0.01,6.65v1.35l1.35-0.01
					c5.02-0.01,10.04-0.03,14.92-0.03c5.03,0,10.06,0.01,14.96,0.03C310.63,314,310.67,316.7,310.7,319.4z"/>
			</g>
			<g>
				<path class="st8" d="M362.09,292.8c-3.88,9.83-7.38,18.69-10.68,26.98c-3.8-0.05-7.59-0.1-11.39-0.15
					c-3.63-8.12-7.85-17.54-12.13-27.06c3.7,0.02,7.4,0.03,11.1,0.06c1.38,3.06,2.75,6.13,4.13,9.21l1.41,3.14l1.29,2.89l1.18-2.94
					c1.63-4.07,3.27-8.14,4.89-12.21l5.61,0.04L362.09,292.8z"/>
			</g>
			<g>
				<path class="st8" d="M393.95,320.68c-3.95-0.11-7.38-0.19-10.63-0.27L382.51,302l-0.39-9l2.95,0.04
					c2.51,0.03,5.01,0.05,7.52,0.09C393.04,302.31,393.49,311.5,393.95,320.68z"/>
			</g>
			<g>
				<path class="st8" d="M457.79,314.65c-2.22,2.79-5.14,5.01-8.31,6.31c-3.34,1.44-7.16,2.16-11.35,2.16
					c-0.47,0-0.96-0.01-1.44-0.03c-5.25-0.21-10.34-1.65-15.56-4.4c-4.59-2.63-8.49-6.37-11.28-10.8c-2.65-4.61-4.1-9.13-4.64-14.58
					c3.25,0.04,6.68,0.09,10.6,0.15c0.29,3.85,1.35,7.36,3.07,10.16c1.94,3.19,4.5,5.75,7.39,7.38c3.23,1.85,6.79,2.86,10.26,2.9
					c0.24,0.01,0.48,0.01,0.71,0.01c5.15,0,9.94-2.19,13.36-6.05C453.04,310.15,455.45,312.42,457.79,314.65z"/>
			</g>
			<g>
				<path class="st8" d="M512.33,325.71c-13.86-0.81-27.91-1.55-41.79-2.21c-0.73-9.42-1.47-18.83-2.2-28.25l-0.06-0.79
					c12.54,0.28,24.89,0.58,36.71,0.91c0.13,1.3,0.24,2.61,0.36,3.91c-8.23-0.31-16.6-0.6-24.91-0.89l-1.51-0.05l0.13,1.51
					c0.4,4.73,0.79,9.45,1.18,14.18l0.09,1.18l1.18,0.05c10.68,0.46,20.5,0.91,29.99,1.38L512.33,325.71z"/>
			</g>
		</g>
	</g>
	<path class="st9" d="M403.17,348.98c-0.44-2.44-1.78-4.73-4-6.81c-2.51-2.35-5.68-3.68-9.17-3.86
		c-20.72-1.01-41.68-1.73-62.32-2.13l0-0.02l-4.1-0.06l-4.94-0.09l0,0.02c-11.63-0.16-23.38-0.23-34.98-0.2
		c-1.14,0-2.25,0.14-3.31,0.41l0.01-0.41l-6.96,0.06c-12.49,0.11-25.16,0.34-37.69,0.67l0-0.02l-5.42,0.17l-3.68,0.1l0,0.02
		c-14.09,0.46-28.39,1.06-42.53,1.79l-5.43,0.28l-6.05,33.8l12.41-6.55c0.88-0.46,1.73-0.93,2.56-1.4l-7.61,48.55l8.13-0.41
		c6.45-0.32,12.97-0.63,19.4-0.9l5.74-0.24l0.61-4.8c1.89-14.9,3.79-29.8,5.68-44.7c1.04,0.59,2.14,1.22,3.27,1.86l1.1,0.62
		c-1.31,13.48-2.62,26.97-3.93,40.45l-0.62,6.33l7.57-0.23c14.9-0.46,30-0.77,44.86-0.92l2.47-0.02l2.45-0.01
		c6.34-0.04,12.78-0.05,19.12-0.04l4.74,0.01l4.8,0.04c6.32,0.05,12.76,0.13,19.13,0.24l2.45,0.04l2.48,0.05
		c6.37,0.13,12.82,0.29,19.17,0.47l4.81,0.14l4.77,0.17c6.37,0.22,12.85,0.48,19.24,0.75l4.91,0.21l4.83,0.24
		c6.43,0.32,12.94,0.67,19.35,1.03l8.36,0.48L403.17,348.98z"/>
	<g>
		<g>
			<path class="st0" d="M184.03,344.25c-1.02,5.71-2.05,11.41-3.07,17.12c1.7-0.9,3.29-1.8,4.78-2.71c1.49-0.9,3.24-1.4,5.25-1.5
				c1.65-0.08,2.48-0.12,4.12-0.2c-0.84,5.38-1.68,10.77-2.53,16.15c-0.17,1.06-0.33,2.13-0.5,3.19
				c-1.61,10.32-3.23,20.63-4.85,30.95c6.49-0.32,12.97-0.63,19.47-0.9c0.94-7.44,1.89-14.89,2.84-22.34
				c0.53-4.18,1.06-8.36,1.6-12.55c0.65-5.09,1.29-10.19,1.94-15.28c1.56-0.06,2.34-0.09,3.9-0.14c2-0.08,3.65,0.27,4.97,1.02
				c1.31,0.75,2.7,1.54,4.15,2.36c0.6-5.67,1.19-11.34,1.78-17.01C213.25,342.89,198.63,343.5,184.03,344.25z"/>
			<path class="st0" d="M232.36,342.29c-0.9,9.29-1.81,18.59-2.71,27.88c-0.41,4.17-0.81,8.34-1.22,12.51
				c-0.21,2.15-0.42,4.3-0.63,6.45c-0.23,2.35-0.46,4.69-0.68,7.03c-0.31,3.16-0.61,6.32-0.92,9.48c15-0.46,30.02-0.77,45.03-0.92
				c0.18-6.54,0.37-13.08,0.55-19.62c-1.77,0.96-3.39,1.89-4.85,2.79c-1.46,0.9-3.29,1.37-5.47,1.4c-0.9,0.01-1.8,0.03-2.7,0.04
				c-2.36,0.03-4.71,0.07-7.07,0.12c-1.73,0.03-3.46,0.07-5.19,0.1c0.24-3.45,0.47-6.89,0.7-10.34c2.67-0.06,5.35-0.11,8.02-0.15
				c0.68-0.02,1.35-0.02,2.03-0.04c0.24,0.01,0.48,0.02,0.7,0.05c0.98,0.08,1.88,0.22,2.7,0.45c0.58,0.16,1.12,0.35,1.62,0.58
				c1.35,0.63,2.77,1.43,4.27,2.41c0.06-1.82,0.13-3.64,0.2-5.46c0.1-2.85,0.2-5.69,0.31-8.53c0.08-2.28,0.16-4.55,0.25-6.83
				c0.01-0.22,0.02-0.43,0.02-0.65c-1.64,0.95-3.17,1.77-4.58,2.46c-1.41,0.69-3,1.06-4.75,1.08c-2.92,0.05-5.84,0.1-8.76,0.16
				c-0.35,0-0.71,0.01-1.06,0.02c0.03-0.42,0.06-0.84,0.08-1.26c0.19-2.79,0.38-5.58,0.57-8.37c4.71-0.1,9.43-0.18,14.15-0.24
				c2.12-0.02,3.81,0.35,5.08,1.14c0.88,0.54,1.87,1.1,2.96,1.68c0.48,0.25,0.98,0.51,1.5,0.77c0.03-1.14,0.06-2.29,0.1-3.44
				c0.13-4.5,0.25-9.01,0.38-13.51C259.45,341.66,245.91,341.92,232.36,342.29z"/>
			<path class="st0" d="M323.04,383.85c-0.28-5.1-0.55-10.2-0.82-15.3c-0.48-8.94-0.96-17.89-1.44-26.84
				c-12.52-0.18-25.04-0.26-37.56-0.24c-1.62,0-2.99,0.6-4.12,1.78c-1.13,1.18-1.71,2.44-1.74,3.77c-0.11,5.6-0.23,11.19-0.34,16.79
				c-0.03,1.5-0.06,3.01-0.09,4.51c-0.25,12.12-0.49,24.24-0.74,36.36c6.4-0.04,12.79-0.05,19.19-0.04
				c-0.03-3.54-0.06-7.08-0.1-10.63c0-0.78-0.01-1.55-0.02-2.33c1.95-1.09,3.89-2.19,5.84-3.28c1.14-0.64,2.29-1.28,3.43-1.92
				c0.14,6.07,0.29,12.13,0.44,18.21c6.4,0.05,12.8,0.14,19.2,0.24C323.79,397.91,323.41,390.88,323.04,383.85z M296.21,354.74
				c2.52,0.01,5.04,0.02,7.56,0.04c0.11,4.48,0.22,8.96,0.32,13.45c0.02,0.62,0.03,1.24,0.04,1.86c-2.86,1.53-5.72,3.06-8.58,4.59
				c-0.15,0.08-0.3,0.16-0.46,0.24c0-0.28,0-0.56-0.01-0.83c-0.02-1.97-0.04-3.94-0.06-5.91c-0.03-3.83-0.07-7.65-0.1-11.48
				C294.92,355.39,295.35,354.74,296.21,354.74z"/>
			<path class="st0" d="M401.63,380.91c-0.36-2.02-0.72-4.04-1.09-6.06c-0.08-0.43-0.16-0.87-0.23-1.3
				c-0.15-0.86-0.31-1.72-0.46-2.57c-1.26-7.06-2.53-14.1-3.8-21.16c-0.24-1.34-1.03-2.63-2.36-3.88c-1.33-1.25-2.84-1.9-4.55-1.99
				c-21.28-1.04-42.57-1.76-63.88-2.16c0.55,8.97,1.1,17.93,1.64,26.9c0.03,0.51,0.06,1.02,0.09,1.54
				c0.72,11.6,1.42,23.2,2.13,34.81c6.41,0.13,12.82,0.29,19.23,0.47c-0.61-6.71-1.22-13.41-1.83-20.12
				c-0.19-2.15-0.39-4.3-0.58-6.45l-0.26-2.85c-0.2-2.22-0.4-4.44-0.6-6.66c-0.42-4.65-0.84-9.3-1.26-13.95
				c2.96,0.08,5.93,0.17,8.89,0.26c0.5,4.72,1,9.44,1.5,14.17c0.17,1.63,0.34,3.26,0.52,4.89c1.09,10.34,2.18,20.68,3.27,31.03
				c6.44,0.22,12.87,0.48,19.31,0.76c-1.03-7.64-2.07-15.28-3.1-22.92c-0.28-2.09-0.56-4.17-0.84-6.26
				c-0.06-0.48-0.13-0.96-0.19-1.44c-0.22-1.62-0.44-3.23-0.66-4.85c-0.66-4.91-1.32-9.82-1.99-14.74c2.57,0.1,5.15,0.21,7.72,0.33
				c0.87,0.04,1.4,0.71,1.6,2.04c0.62,4.14,1.24,8.28,1.86,12.41c0.04,0.23,0.07,0.46,0.1,0.68c1.76,11.73,3.52,23.45,5.28,35.18
				c6.47,0.32,12.95,0.67,19.41,1.04C404.88,399.01,403.26,389.96,401.63,380.91z"/>
		</g>
	</g>
	<path d="M400.36,374.39c-0.46-1.17-0.62-2.3-0.52-3.41c0.16,0.86,0.31,1.72,0.46,2.57c0.08,0.43,0.16,0.87,0.23,1.3
		C400.48,374.7,400.42,374.55,400.36,374.39z"/>
	<g class="st10">
		<path class="st11" d="M209.53,384.02c-0.94,7.44-1.89,14.89-2.84,22.34c-6.49,0.27-12.98,0.58-19.47,0.9
			c1.62-10.32,3.24-20.63,4.85-30.95c0.37-0.37,0.76-0.72,1.19-1.06c0.24-0.19,0.54-0.3,0.76-0.42c0.48,0.3,0.38,0.61,0.21,0.9
			c-2.45,4.15-2.45,5.32,0.5,9c1.66,2.08,3.11,4.06,2.99,6.98c-0.07,1.62,1.41,2.13,2.87,1.47c1.49-0.67,2.12-1.95,1.97-3.61
			c-0.14-1.68-0.84-3.17-1.67-4.57c-2.45-4.13-2.31-8.22-0.08-12.35c0.54-1,1.02-2.03,1.24-3.18c0.48-2.57-0.3-4.62-2.67-6.12
			c4.39-1.32,8.02,1.84,7.56,6.32c-0.18,1.78-0.7,3.52-1.04,5.28c-0.43,2.27-0.77,4.57,0.58,6.66
			C207.27,382.78,208.23,383.85,209.53,384.02z"/>
		<path class="st11" d="M260.65,379.53c-0.81-0.22-1.71-0.37-2.7-0.45c0.77-1.45,2.07-2.64,3.6-3.81c0.51,1.25-0.33,1.92-0.56,2.7
			C260.84,378.5,260.72,379.02,260.65,379.53z"/>
		<path class="st11" d="M264.41,371.94c-1.5-3.92-0.47-7.52,2.89-10.23c-0.08,2.28-0.16,4.55-0.25,6.83
			c-0.1,2.84-0.21,5.69-0.31,8.53c-0.14-0.3-0.27-0.6-0.4-0.9C265.74,374.74,264.96,373.38,264.41,371.94z"/>
		<path class="st11" d="M266.92,387.9c-1.46,0.9-3.29,1.37-5.47,1.4c-0.9,0.01-1.8,0.03-2.7,0.04c0.18,1.42-0.13,2.77-1.57,3.47
			c-1.66,0.82-3.18-0.03-4.41-1.24c-0.66-0.65-0.98-1.36-1.08-2.11c-1.73,0.03-3.46,0.07-5.19,0.1c0.24-3.45,0.47-6.89,0.7-10.34
			c2.67-0.06,5.35-0.11,8.02-0.15c0.89-3.41,0.04-6.66-2.43-9.81c-1.18-1.5-2.36-3.01-3.56-4.5c-0.35,0-0.71,0.01-1.06,0.02
			c0.03-0.42,0.06-0.84,0.08-1.26c-2.44-3.28-3.17-6.68-0.46-10.38c0.05-0.07-0.1-0.28-0.16-0.42c-5.15,1.63-7.28,7.49-4.45,12.53
			c0.97,1.72,1.8,3.47,2.21,5.41c0.31,1.46,0.22,2.84-1.04,3.77c-1.22,0.9-2.53,0.32-3.71-0.25c-1.57-0.76-2.17-2.09-2.19-3.8
			c0-0.85,0.55-1.72,0.01-2.59c-1.97,1.69-2.71,3.86-2.5,7.22c-3.79,1.52-6.31,4.04-7.53,7.68c-0.24,0.7-0.42,1.44-0.56,2.23
			c-0.25,1.43-0.22,2.83-0.07,4.22c0.14,1.27,0.38,2.53,0.58,3.79c0.24,1.43,0.01,2.68-1.27,3.24c-0.31,3.16-0.61,6.32-0.92,9.48
			c15-0.46,30.02-0.77,45.03-0.92c0.18-6.54,0.37-13.08,0.55-19.62C270.01,386.06,268.39,386.99,266.92,387.9z M240.29,385.77
			c-2.21,1.44-4.93,1.1-6.05-0.81c-1.48-2.53-1.08-5.01,0.35-7.42c0.49-0.82,1.23-1.5,1.4-2.5c1,2.47,3.09,4.16,4.51,6.33
			C241.47,382.87,242.39,384.4,240.29,385.77z"/>
		<path class="st11" d="M271.02,357.72c0.31-0.96,0.84-1.86,1.6-2.67c-0.03,1.15-0.06,2.29-0.1,3.44
			C272,358.23,271.5,357.98,271.02,357.72z"/>
		<path class="st11" d="M295.55,374.68c2.5,3.4,2.36,7.1,0.37,11.08c-0.84,1.68-2.07,3.15-2.54,5.01c-0.47,1.85,0.18,2.97,1.88,3.25
			c0.04,3.54,0.07,7.08,0.1,10.63c-6.4-0.02-12.79,0-19.19,0.04c0.25-12.12,0.49-24.24,0.74-36.36c0.03-1.5,0.06-3.01,0.09-4.51
			c0.72,0.68,1.46,1.34,2.2,1.99c2.83,2.49,4.26,5.5,3.93,9.32c-0.18,2.09,0.1,4.11,1.5,5.79c0.86,1.02,1.89,1.99,3.36,1.29
			c1.4-0.66,2.01-1.94,1.74-3.46c-0.19-1.03-0.56-2.05-1-3.01c-1.36-3.07-1.37-5.99,0.62-8.82c0.76-1.08,1.35-2.28,0.71-3.66
			c-0.64-1.37,0.33-1.39,1.17-1.31c1.3,0.12,2.13,0.92,2.17,2.24c0.02,0.96-0.08,1.98-0.39,2.89c-0.86,2.44-0.33,4.47,1.42,6.3
			c0.23,0.24,0.45,0.48,0.66,0.73C295.25,374.29,295.41,374.49,295.55,374.68z"/>
		<path class="st11" d="M323.04,383.85c0.38,7.03,0.75,14.06,1.13,21.09c-6.4-0.1-12.8-0.19-19.2-0.24
			c-0.14-6.07-0.29-12.14-0.44-18.21c-1.14,0.64-2.29,1.28-3.43,1.92c-0.08-0.96-0.27-1.9-0.36-2.86c-0.44-4.5,1.94-9.09,5.42-10.49
			c0.3,0.45-0.05,0.76-0.26,1.08c-1.94,2.93-1.58,5.71,0.6,8.34c1.74,2.09,3.46,4.1,3.28,7.12c-0.07,1.19,0.95,1.98,2.18,1.76
			c1.72-0.3,2.78-1.42,2.76-3.23c-0.02-1.58-0.61-3.09-1.43-4.39c-2.92-4.64-2.74-9.15-0.1-13.88c1.44-2.59,2.09-5.43-0.85-7.71
			c-0.31-0.24-0.73-0.6-0.37-0.99c0.22-0.24,0.73-0.3,1.1-0.3c3.37,0,5.71,2.24,5.88,5.64c0.12,2.49-0.68,4.83-1.19,7.22
			c-0.58,2.7-0.42,5.23,1.87,7.18C320.65,383.77,321.73,384.45,323.04,383.85z"/>
		<path class="st11" d="M345.95,378.93c-0.5,1.27-0.68,2.61-0.45,4.04c0.16,1,0.52,1.8,1.04,2.41c0.61,6.71,1.22,13.41,1.83,20.12
			c-6.41-0.18-12.82-0.34-19.23-0.47c-0.71-11.6-1.42-23.2-2.13-34.81c0.73-0.47,1.44-1.65,2.21-1.14c0.93,0.62-0.12,1.61-0.39,2.38
			c-0.89,2.52-0.44,4.65,1.57,6.44c0.55,0.49,1.07,1.01,1.65,1.46c3.47,2.69,4.36,6.15,3.09,10.25c-0.36,1.18-0.6,2.38-0.48,3.62
			c0.18,2.03,1.76,3.46,3.59,3.17c2.11-0.33,2.49-1.68,2.15-3.61c-0.74-4.12-1.34-8.28,0.96-12.17c1.11-1.88,2.55-3.41,4.35-4.56
			L345.95,378.93z"/>
		<path class="st11" d="M377.3,406.57c-6.44-0.28-12.87-0.53-19.31-0.76c-1.09-10.35-2.19-20.69-3.27-31.03
			c1.68,0.18,2.65-0.57,2.81-2.45c0.21-2.51-0.82-4.6-2.03-6.68c-3.07-5.31-1.28-10.59,4.47-13.26c0.06,0.14,0.21,0.36,0.17,0.42
			c-3.16,4.12-2.08,7.9,0.89,11.56c1.49,1.84,2.93,3.72,4.37,5.61c2.96,3.9,3.01,7.97,0.64,12.15c-0.93,1.64-1.64,3.37-2.11,5.21
			c-0.68,2.71,0.21,4.47,2.77,5.43c2.27,0.85,3.89-0.2,4.06-2.65c0.16-2.11-0.87-3.97-1.26-5.96c-0.72-3.68,0.61-6.68,3.67-8.2
			c0.06,0.48,0.13,0.96,0.19,1.44c-0.02,0.04-0.04,0.08-0.05,0.12c-0.54,1.34-0.65,2.71-0.33,4.09c0.18,0.81,0.64,1.52,1.23,2.05
			C375.24,391.29,376.27,398.93,377.3,406.57z"/>
		<path class="st11" d="M406.5,408.05c-6.47-0.37-12.94-0.72-19.41-1.04c-1.76-11.73-3.52-23.45-5.28-35.18
			c-0.04-0.23-0.07-0.46-0.1-0.68c1.26,1.71,2.3,3.57,2.53,5.76c0.1,0.96,0.38,1.83,1.52,1.9c1.14,0.06,1.86-0.63,2.15-1.66
			c0.84-3.01,0.02-5.83-1.25-8.52c-0.76-1.62-1.89-3.06-2.73-4.65c-1.82-3.48-1.31-6.86,1.47-9.72c0.46,1.13-0.25,2.09-0.25,3.09
			c-0.01,2.47,1.3,4.23,3.08,5.59c4.69,3.57,7.87,7.79,7.14,14.1c-0.14,1.22,0.36,2.41,1.08,3.45c0.96,1.38,2.18,2.43,3.9,1.56
			c0.58-0.29,1-0.68,1.28-1.13C403.26,389.96,404.88,399.01,406.5,408.05z"/>
	</g>
	<g>
		<g>
			<g>
				<path class="st0" d="M226.75,343.46l-0.04,0.41c-0.49,4.64-0.97,9.29-1.46,13.94c-0.97-0.55-1.91-1.09-2.81-1.61
					c-1.35-0.77-3-1.16-4.93-1.16c-0.19,0-0.38,0-0.57,0.01l-1.94,0.07l-1.96,0.07l-0.85,0.03l-0.11,0.84l-1.04,8.16l-0.9,7.12
					l-1.6,12.55l-1.43,11.25l-1.3,10.24c-5.44,0.23-11.16,0.49-17.4,0.8l1.42-9.06c1.08-6.89,2.16-13.79,3.24-20.68l0.25-1.61
					l0.25-1.58c0.56-3.57,1.12-7.14,1.68-10.7l0.85-5.44l0.19-1.21l-1.22,0.06c-1.6,0.07-2.43,0.11-4,0.19l-0.13,0.01
					c-2.17,0.11-4.09,0.66-5.72,1.65c-0.94,0.57-1.92,1.14-2.91,1.69l1.16-6.46l1.4-7.83C198.88,344.49,212.96,343.91,226.75,343.46
					 M227.87,342.42c-14.62,0.46-29.23,1.08-43.84,1.83c-1.02,5.71-2.05,11.41-3.07,17.12c1.7-0.9,3.29-1.8,4.78-2.71
					c1.49-0.9,3.24-1.4,5.25-1.5c1.65-0.08,2.48-0.12,4.12-0.2c-0.84,5.38-1.68,10.77-2.53,16.15c-0.17,1.06-0.33,2.13-0.5,3.19
					c-1.61,10.32-3.23,20.63-4.85,30.95c6.49-0.32,12.97-0.63,19.47-0.9c0.94-7.44,1.89-14.89,2.84-22.34
					c0.53-4.18,1.06-8.36,1.6-12.55c0.65-5.09,1.29-10.19,1.94-15.28c1.56-0.06,2.34-0.09,3.9-0.14c0.18-0.01,0.36-0.01,0.54-0.01
					c1.76,0,3.24,0.35,4.43,1.03c1.31,0.75,2.7,1.54,4.15,2.36C226.68,353.76,227.28,348.09,227.87,342.42L227.87,342.42z"/>
			</g>
			<g>
				<path class="st0" d="M271.97,342.55l-0.16,5.63l-0.19,6.85l-0.05,1.86c-0.03-0.01-0.06-0.03-0.08-0.04
					c-1.08-0.57-2.05-1.12-2.9-1.65c-1.38-0.85-3.2-1.29-5.42-1.29l-0.2,0c-4.99,0.07-9.62,0.15-14.15,0.24l-0.92,0.02l-0.06,0.91
					c-0.19,2.79-0.38,5.58-0.57,8.37l-0.08,1.26l-0.07,1.09l1.09-0.02c0.35-0.01,0.7-0.02,1.06-0.02c2.92-0.06,5.84-0.12,8.75-0.16
					c1.89-0.03,3.63-0.42,5.18-1.18c0.95-0.47,1.98-1,3.07-1.61l-0.08,2.27l-0.12,3.42c-0.1,2.84-0.21,5.69-0.31,8.53
					c-0.05,1.24-0.09,2.49-0.14,3.73c-1-0.59-1.97-1.11-2.91-1.55c-0.56-0.26-1.16-0.48-1.78-0.64c-0.86-0.24-1.83-0.4-2.86-0.48
					c-0.25-0.03-0.5-0.04-0.76-0.05l-0.03,0l-0.03,0l-0.68,0.01c-0.45,0.01-0.9,0.01-1.35,0.02c-2.67,0.04-5.35,0.1-8.03,0.15
					l-0.92,0.02l-0.06,0.91c-0.23,3.45-0.46,6.89-0.7,10.34l-0.07,1.09l1.09-0.02l0.07,0c1.71-0.04,3.42-0.07,5.12-0.1
					c2.35-0.05,4.71-0.09,7.07-0.12l0.07,0c0.88-0.02,1.75-0.03,2.63-0.04c2.36-0.03,4.37-0.56,5.98-1.55
					c1.03-0.63,2.13-1.28,3.28-1.93c-0.16,5.64-0.31,11.28-0.47,16.91c-14.38,0.15-28.81,0.45-42.95,0.88l0.37-3.85l0.44-4.49
					l0.67-6.93l0.01-0.1l0.01-0.11c0.2-2.11,0.41-4.22,0.62-6.34l0.09-0.91c0.37-3.87,0.75-7.74,1.13-11.61c0.87-9,1.75-18,2.62-27
					C246.18,342.91,259.19,342.67,271.97,342.55 M273,341.54c-13.55,0.12-27.09,0.38-40.64,0.75c-0.9,9.29-1.81,18.59-2.71,27.88
					c-0.41,4.17-0.81,8.34-1.22,12.51c-0.21,2.15-0.42,4.3-0.63,6.45c-0.23,2.35-0.46,4.69-0.68,7.03
					c-0.31,3.16-0.61,6.32-0.92,9.48c15-0.46,30.02-0.77,45.03-0.92c0.18-6.54,0.37-13.08,0.55-19.62
					c-1.77,0.96-3.39,1.89-4.85,2.79c-1.46,0.9-3.29,1.37-5.47,1.4c-0.9,0.01-1.8,0.03-2.7,0.04c-2.36,0.03-4.71,0.07-7.07,0.12
					c-1.73,0.03-3.46,0.07-5.19,0.1c0.24-3.45,0.47-6.89,0.7-10.34c2.67-0.06,5.35-0.11,8.02-0.15c0.68-0.02,1.35-0.02,2.03-0.04
					c0.24,0.01,0.48,0.02,0.7,0.05c0.98,0.08,1.88,0.22,2.7,0.45c0.58,0.16,1.12,0.35,1.62,0.58c1.35,0.63,2.77,1.43,4.27,2.41
					c0.06-1.82,0.13-3.64,0.2-5.46c0.1-2.85,0.2-5.69,0.31-8.53c0.08-2.28,0.16-4.55,0.25-6.83c0.01-0.22,0.02-0.43,0.02-0.65
					c-1.64,0.95-3.17,1.77-4.58,2.46c-1.41,0.69-3,1.06-4.75,1.08c-2.92,0.05-5.84,0.1-8.76,0.16c-0.35,0-0.71,0.01-1.06,0.02
					c0.03-0.42,0.06-0.84,0.08-1.26c0.19-2.79,0.38-5.58,0.57-8.37c4.71-0.1,9.43-0.18,14.15-0.24c0.06,0,0.13,0,0.19,0
					c2.03,0,3.66,0.38,4.89,1.14c0.88,0.54,1.87,1.1,2.96,1.68c0.48,0.25,0.98,0.51,1.5,0.77c0.03-1.14,0.06-2.29,0.1-3.44
					C272.75,350.55,272.87,346.05,273,341.54L273,341.54z"/>
			</g>
			<g>
				<path class="st0" d="M288.1,342.47c10.47,0,21.14,0.08,31.73,0.23l1.39,25.91c0.27,5.1,0.54,10.2,0.82,15.29l1.07,20.02
					c-6.17-0.1-11.8-0.17-17.17-0.21l-0.2-8.25l-0.22-8.99l-0.04-1.66l-1.45,0.81l-1.27,0.71l-2.16,1.21
					c-1.6,0.89-3.2,1.79-4.79,2.69l-1.05,0.59l-0.52,0.29l0.01,0.59c0.01,0.77,0.02,1.55,0.02,2.33c0.03,3.2,0.06,6.39,0.09,9.61
					c-1.35,0-2.69,0-4.04,0c-4.17,0-8.47,0.01-13.12,0.04l0.35-17.28l0.37-18.05l0.05-2.27l0.05-2.23l0.17-8.39l0.17-8.41
					c0.02-1.08,0.5-2.09,1.46-3.1c0.94-0.98,2.05-1.46,3.4-1.47C284.85,342.48,286.47,342.47,288.1,342.47 M294.12,376.57l1.44-0.76
					l0.24-0.13l0.23-0.12c2.84-1.53,5.69-3.05,8.58-4.59l0.54-0.29l-0.02-0.62l-0.02-0.94l-0.02-0.92l-0.16-6.8l-0.16-6.64
					l-0.02-0.97l-0.97-0.01c-2.52-0.02-5.04-0.03-7.58-0.04c-0.61,0-1.13,0.21-1.52,0.6c-0.51,0.52-0.75,1.29-0.74,2.37
					c0.04,3.83,0.07,7.65,0.1,11.48l0,0.12c0.02,1.93,0.04,3.86,0.05,5.8l0,0.4l0,0.43L294.12,376.57 M288.1,341.47
					c-1.63,0-3.25,0-4.88,0.01c-1.62,0-2.99,0.6-4.12,1.78c-1.13,1.18-1.71,2.44-1.74,3.77c-0.11,5.6-0.23,11.19-0.34,16.79
					c-0.03,1.5-0.06,3.01-0.09,4.51c-0.25,12.12-0.49,24.24-0.74,36.36c4.71-0.03,9.43-0.04,14.14-0.04c1.68,0,3.36,0,5.04,0.01
					c-0.03-3.54-0.06-7.08-0.1-10.63c0-0.78-0.01-1.55-0.02-2.33c1.95-1.09,3.89-2.19,5.84-3.28c1.14-0.64,2.29-1.28,3.43-1.92
					c0.14,6.07,0.29,12.13,0.44,18.21c6.4,0.05,12.8,0.14,19.2,0.24c-0.38-7.03-0.75-14.06-1.13-21.09
					c-0.28-5.1-0.55-10.2-0.82-15.3c-0.48-8.94-0.96-17.89-1.44-26.84C309.89,341.56,298.99,341.47,288.1,341.47L288.1,341.47z
					 M295.1,374.93c0-0.28,0-0.56-0.01-0.83c-0.02-1.97-0.04-3.94-0.06-5.91c-0.03-3.83-0.07-7.65-0.1-11.48
					c-0.01-1.31,0.41-1.97,1.27-1.97c0,0,0.01,0,0.01,0c2.52,0.01,5.04,0.02,7.56,0.04c0.11,4.48,0.22,8.96,0.32,13.45
					c0.02,0.62,0.03,1.24,0.04,1.86c-2.86,1.53-5.72,3.06-8.58,4.59C295.4,374.76,295.25,374.85,295.1,374.93L295.1,374.93z"/>
			</g>
			<g>
				<path class="st0" d="M326.32,342.81c20.85,0.4,41.96,1.12,62.77,2.14c1.48,0.07,2.76,0.64,3.91,1.72
					c1.17,1.09,1.86,2.21,2.06,3.33c1.27,7.06,2.53,14.11,3.8,21.17c0.16,0.85,0.31,1.71,0.46,2.57l0.12,0.65l0.12,0.65
					c0.36,2.02,0.73,4.04,1.09,6.05l0.06,0.34c1.53,8.52,3.06,17.04,4.59,25.56c-6.08-0.34-11.78-0.65-17.34-0.92
					c-1.72-11.46-3.44-22.91-5.16-34.38l-0.05-0.34l-0.05-0.34l-1.63-10.87l-0.23-1.54c-0.37-2.43-1.75-2.85-2.54-2.89
					c-2.58-0.12-5.15-0.22-7.73-0.33l-1.19-0.05l0.16,1.18l0.36,2.67c0.54,4.02,1.09,8.04,1.63,12.06l0.33,2.43l0.33,2.42l0.19,1.45
					c0.28,2.08,0.56,4.17,0.84,6.25l2.64,19.54l0.3,2.19c-5.73-0.25-11.52-0.47-17.25-0.67l-0.19-1.79c-1-9.46-2-18.92-2.99-28.37
					l-0.24-2.3l-0.27-2.59c-0.5-4.72-1-9.44-1.5-14.17l-0.09-0.87l-0.87-0.03c-2.96-0.09-5.93-0.18-8.89-0.26l-1.12-0.03l0.1,1.12
					l0.6,6.63l0.66,7.31l0.3,3.36l0.3,3.31l0.26,2.88c0.2,2.14,0.39,4.28,0.58,6.42c0.58,6.33,1.15,12.67,1.73,19
					c-5.58-0.16-11.36-0.3-17.19-0.42c-0.69-11.3-1.38-22.59-2.08-33.88c-0.03-0.51-0.06-1.03-0.09-1.54L326.32,342.81
					 M325.26,341.79c0.55,8.97,1.1,17.93,1.64,26.9c0.03,0.51,0.06,1.02,0.09,1.54c0.72,11.6,1.42,23.2,2.13,34.81
					c6.41,0.13,12.82,0.29,19.23,0.47c-0.61-6.71-1.22-13.41-1.83-20.12c-0.19-2.15-0.39-4.3-0.58-6.45l-0.26-2.85
					c-0.2-2.22-0.4-4.44-0.6-6.66c-0.42-4.65-0.84-9.3-1.26-13.95c2.96,0.08,5.93,0.17,8.89,0.26c0.5,4.72,1,9.44,1.5,14.17
					c0.17,1.63,0.34,3.26,0.52,4.89c1.09,10.34,2.18,20.68,3.27,31.03c6.44,0.22,12.87,0.48,19.31,0.76
					c-1.03-7.64-2.07-15.28-3.1-22.92c-0.28-2.09-0.56-4.17-0.84-6.26c-0.06-0.48-0.13-0.96-0.19-1.44
					c-0.22-1.62-0.44-3.23-0.66-4.85c-0.66-4.91-1.32-9.82-1.99-14.74c2.57,0.1,5.15,0.21,7.72,0.33c0.87,0.04,1.4,0.71,1.6,2.04
					c0.62,4.14,1.24,8.28,1.86,12.41c0.04,0.23,0.07,0.46,0.1,0.68c1.76,11.73,3.52,23.45,5.28,35.18
					c6.47,0.32,12.95,0.67,19.41,1.04c-1.62-9.04-3.25-18.09-4.87-27.14c-0.36-2.02-0.72-4.04-1.09-6.06
					c-0.08-0.43-0.16-0.87-0.23-1.3c-0.15-0.86-0.31-1.72-0.46-2.57c-1.26-7.06-2.53-14.1-3.8-21.16c-0.24-1.34-1.03-2.63-2.36-3.88
					c-1.33-1.25-2.84-1.9-4.55-1.99C367.86,342.91,346.57,342.19,325.26,341.79L325.26,341.79z"/>
			</g>
		</g>
	</g>
</g>
</svg>
