<?xml version="1.0" encoding="utf-8"?>
<!-- Generator: Adobe Illustrator 27.2.0, SVG Export Plug-In . SVG Version: 6.00 Build 0)  -->
<svg version="1.1" id="Capa_1" xmlns="http://www.w3.org/2000/svg" xmlns:xlink="http://www.w3.org/1999/xlink" x="0px" y="0px"
	 viewBox="0 0 587.47 505.26" style="enable-background:new 0 0 587.47 505.26;" xml:space="preserve">
<style type="text/css">
	.st0{fill:#FFFFFF;}
	.st1{fill:#B5241D;}
	.st2{fill:#B4241D;}
	.st3{fill:#020203;}
	.st4{fill:#1E1F1D;}
	.st5{fill:#E4352B;}
	.st6{fill:#C7C7C6;}
	.st7{opacity:0.5;}
	.st8{fill:#552770;}
	.st9{fill:#1E1E1C;}
	.st10{opacity:0.27;}
	.st11{fill:#585857;}
	.st12{fill:#E5352B;}
	.st13{fill:#CAE8FB;}
</style>
<path class="st6" d="M173.01,365.23c1.01-1.22,1.94-2.5,2.79-3.82c0.06-0.09,0.13-0.17,0.11-0.28c-0.05,0.03-0.09,0.06-0.14,0.09
	c-0.01,0.01-0.01,0.02-0.02,0.02c-0.12,0.06-0.23,0.14-0.33,0.23c-0.11,0.1-0.21,0.2-0.32,0.29c-0.88,0.78-1.77,1.54-2.7,2.26
	c-0.92,0.72-1.86,1.4-2.86,2.02c-1.62,1.01-3.3,1.9-5.07,2.64c-3,1.11-5.71,1.84-8.86,2.4c-3.12,0.28-5.89,0.29-9,0.02
	c-2.4-0.29-4.95-0.93-7.21-1.8c-2.33-0.84-4.73-2.09-6.75-3.51c-1.12-0.76-2.18-1.62-3.18-2.53c-2.06-2.03-3.69-3.97-5.34-6.34
	c-1.33-2.04-2.47-4.46-3.19-6.79c-0.22-0.68-0.47-1.35-0.56-2.07c0.06-0.02,0.11-0.03,0.17-0.04c0-0.03-0.01-0.05-0.01-0.08
	c-0.32,0.09-0.65,0.18-0.97,0.27c-3.53,1.11-6.99,2.35-10.42,3.72c-0.24,0.1-0.27,0.2-0.22,0.44c0.1,0.43,0.21,0.85,0.33,1.27
	c0.14,0.49,0.28,0.98,0.44,1.46c1.58,4.32,3.65,7.99,6.43,11.44c2.32,2.74,5.04,5.13,8.08,7.06c1.63,0.98,3.26,1.85,5.06,2.68
	c0.15,0.07,0.31,0.13,0.46,0.19c4.05,1.58,8.43,2.55,12.79,2.58c0.91,0.02,1.83,0.01,2.74-0.05c1.51-0.1,3.01-0.24,4.5-0.49
	c1.05-0.17,2.09-0.39,3.12-0.66c2.12-0.55,4.19-1.26,6.2-2.15c1.79-0.79,3.49-1.72,5.13-2.75c0.44-0.28,0.87-0.56,1.29-0.86
	c0.07-0.05,0.13-0.09,0.2-0.14c0.34-0.24,0.67-0.48,1-0.73c0.16-0.12,0.33-0.25,0.49-0.38c0.29-0.23,0.58-0.45,0.86-0.69
	c0.12-0.1,0.24-0.2,0.36-0.3c0.35-0.3,0.7-0.6,1.04-0.91C170.72,367.77,171.92,366.55,173.01,365.23z"/>
<g>
	<path class="st0" d="M571.9,383.07l-1.28-13.89c-0.49-5.42-3.04-10.24-6.94-13.64c0.1-1.2,0.1-2.42-0.02-3.63l-0.05-0.59
		c-0.22-2.44-0.44-4.87-0.67-7.24c-0.16-1.79-0.32-3.57-0.48-5.39c-0.09-0.89-0.23-1.75-0.42-2.61c2.39-3.81,3.5-8.35,3.08-12.9
		l-1.24-13.23c-0.98-10.52-9.69-18.55-20.26-18.69c-17.6-0.22-35.19-0.41-50.08-0.57h-0.21c-4.45,0-8.77,1.46-12.29,4.06
		c-0.44-0.2-0.87-0.4-1.3-0.58c-6.9-3.04-14.28-4.62-23.22-4.96c-0.28-0.02-0.55-0.02-0.82-0.02h-0.49
		c-10.83,0.26-19.62,2.46-27.65,6.93c-1.04,0.57-2.05,1.18-3.04,1.82c-3.76-4.81-9.61-7.89-16.15-7.93
		c-2.48-0.01-4.95-0.02-7.43-0.04l-7.98-0.04c-0.86,0-1.74,0.06-2.61,0.17c-0.94-0.13-1.89-0.2-2.82-0.2
		c-1.48,0-2.96-0.01-4.44-0.02c17.3-20.79,26.72-46.72,26.72-74.1c0-31.01-12.08-60.16-34-82.09c-21.92-21.92-51.08-34-82.09-34
		c-31.01,0-60.16,12.08-82.09,34c-21.92,21.93-34,51.08-34,82.09c0,27.38,9.43,53.32,26.73,74.11l-13.22,0.06
		c-6.74,0.03-12.72,3.27-16.45,8.31c-0.21-0.14-0.41-0.28-0.62-0.4c-4.62-2.95-9.63-5.22-14.9-6.75c-0.33-0.1-0.66-0.2-1.01-0.28
		l-0.64-0.15c-3.74-0.98-7.58-1.59-11.41-1.8h-0.1l-0.52-0.03c-3.2-0.17-6.61-0.03-10.1,0.43c-3.29,0.44-6.47,1.13-9.45,2.04
		l-0.1,0.03c-0.24,0.08-0.48,0.16-0.72,0.25c-5.93,2.08-10.87,4.53-15.53,7.74l-0.2,0.13c-0.57,0.4-1.72,1.18-3,2.34
		c-0.41,0.33-0.82,0.66-1.23,1.01c-2.97-2.68-6.4-4.99-10.19-6.84c-0.02-0.01-0.03-0.02-0.05-0.02l-0.46-0.22
		c-8.57-4-16.92-4.65-23.25-4.77h-0.6c-9.56,0.1-19.12,0.22-28.7,0.34c-10.67,0.14-19.39,8.26-20.27,18.89l-1.09,13.08
		c-0.59,7.05-1.17,14.09-1.76,21.13c-1.09,12.95-2.16,25.91-3.24,38.88c-0.49,5.95,1.62,11.82,5.78,16.09
		c3.86,3.96,9.23,6.22,14.76,6.22c0.32,0,0.63-0.01,0.98-0.02l0.86-0.04c5-0.29,10-0.58,15.01-0.86
		c10.23-0.57,18.57-8.71,19.39-18.94l0.06-0.76c0.04-0.54,0.09-1.08,0.13-1.62c5.6-0.64,12.29-2.01,19.2-5.39
		c0.96-0.46,1.9-0.95,2.83-1.47c1.15,1.74,2.39,3.41,3.74,5.02c0.99,1.22,1.95,2.33,2.93,3.38l0.25,0.27
		c0.12,0.13,0.25,0.25,0.37,0.37c1.86,1.85,3.94,3.62,6.17,5.24l0.66,0.46c0.85,0.56,1.75,1.14,2.76,1.75
		c2.33,1.46,4.76,2.76,7.24,3.85c0.17,0.08,0.32,0.14,0.4,0.18l0.1,0.04c0.25,0.11,0.48,0.21,0.68,0.29
		c0.15,0.06,0.31,0.12,0.47,0.17c6.76,2.74,13.86,4.13,21.13,4.13c0.63,0,1.29-0.02,1.98-0.04c10.57-0.37,20.85-3.61,29.93-9.45
		c0.29,0.34,0.6,0.67,0.92,0.99c3.84,3.88,9.18,6.11,14.65,6.11h0.5c5.07-0.13,10.14-0.24,15.23-0.34l0.34-0.01
		c6.1-0.13,11.54-2.9,15.23-7.21c3.89,4.27,9.34,6.69,15.19,6.69h0.27c6.1-0.08,12.2-0.14,18.32-0.21c1.15-0.02,2.29-0.13,3.42-0.32
		c1.11,0.17,2.23,0.27,3.34,0.27h0.14c10.87-0.08,21.99-0.12,33.07-0.12c6.37,0,12.88,0.02,19.32,0.04h0.09
		c5.45,0,10.78-2.22,14.64-6.1c0.43-0.44,0.84-0.89,1.22-1.36c3.8,4.74,9.6,7.66,15.83,7.73l0.51,0.01
		c4.98,0.06,9.97,0.12,14.97,0.2h0.32c7.13,0,13.58-3.6,17.32-9.42c3.53,5.92,9.94,9.94,17.25,10.11c4.66,0.1,9.6,0.23,15.53,0.38
		c0.21,0.02,0.44,0.02,0.67,0.02c5.5,0,10.87-2.26,14.73-6.2c0.4-0.41,0.78-0.84,1.14-1.28c1.15,0.77,2.32,1.49,3.51,2.17
		c0.19,0.11,0.39,0.21,0.62,0.34c9.15,4.83,18.27,7.37,27.84,7.76c0.78,0.03,1.59,0.05,2.62,0.05c7.91,0,15.31-1.44,21.99-4.29
		c0.37-0.15,0.74-0.31,1.12-0.48c3.43,3.04,7.86,4.89,12.66,5.12c17.92,0.86,35.5,1.78,52.26,2.77c0.41,0.02,0.84,0.04,1.25,0.04
		c5.56,0,10.95-2.29,14.81-6.29C570.37,394.96,572.45,389.05,571.9,383.07z M185.57,215.78c0-59.74,48.43-108.16,108.16-108.16
		S401.9,156.05,401.9,215.78c0,28.66-11.15,54.71-29.34,74.06h-0.32c-8.5,0-16.01,5.1-19.14,12.98c-0.36,0.88-0.7,1.75-1.05,2.62
		c-0.54-1.19-1.07-2.38-1.62-3.57c-3.31-7.36-10.68-12.13-18.74-12.14l-10.89-0.02c-1.54-2-3.09-3.98-4.62-5.98
		c-1.05-1.36-1.87-2.88-2.77-4.35c-0.21-0.34-0.27-0.69-0.13-1.07c1.87-5.27,2.57-10.81,3.73-16.23c0.75-3.49,1.45-6.98,2.14-10.48
		c0.16-0.84,0.58-1.38,1.35-1.73c2.4-1.12,4.78-2.26,7.16-3.4c0.74-0.35,1.3-0.89,1.71-1.62c1.22-2.15,3.28-3.21,5.45-4.09
		c10.11-4.12,20.16-8.38,30.18-12.72c2.72-1.18,4.84-3.13,6.47-5.6c1.26-1.9,1.6-4.02,1.29-6.23c-0.37-2.64-0.81-5.27-1.23-7.9
		c-0.15-0.94-0.24-1.06-1.13-0.99h0c-0.04,0-0.09,0.01-0.13,0.01c-0.9,0.08-1.79,0.11-2.69,0.03c-1.23-0.12-2.41-0.42-3.46-1.09
		c-0.38-0.24-0.63-0.21-0.81,0.24c-1.2,2.93-1.18,2.35-3.97,3.07c-0.75,0.2-1.51,0.39-2.27,0.57c-1.9,0.47-3.81,0.92-5.71,1.44
		c-0.51,0.14-0.97,0.17-1.39,0.07c-0.46-0.1-0.87-0.35-1.25-0.76c-0.12-0.13-0.25-0.24-0.38-0.36c-0.73-0.67-0.8-0.67-1.39,0.1
		c-0.5,0.65-0.98,1.31-1.47,1.97c-0.02,0.03-0.03,0.05-0.05,0.07c-0.38,0.51-0.88,0.8-1.5,0.89c-3.4,0.51-6.8,1.01-10.2,1.54
		c-0.78,0.12-1.26-0.28-1.75-0.78c-1.96-2.03-3.98-3.99-6.3-5.61c-2.24-1.56-4.54-2.99-7.31-3.43c-1.74-0.28-3.47-0.25-5.21,0.04
		c-0.26,0.05-0.59,0.2-0.78-0.04c-0.19-0.24,0.03-0.52,0.13-0.77c0.63-1.49,1.3-2.97,1.88-4.48c0.32-0.82,0.83-1.23,1.69-1.35
		c1.03-0.14,1.04-0.18,0.71-1.16c-0.28-0.82-0.11-1.58,0.24-2.32c0.29-0.63,0.65-1.24,0.94-1.87c0.35-0.76,0.93-1.14,1.74-1.22
		c0.3-0.03,0.59-0.08,0.89-0.11c0.65-0.05,0.92-0.42,0.89-1.05c-0.01-0.13,0-0.25,0-0.37c0-1.47,0-1.48,1.45-1.64
		c0.48-0.06,0.66-0.29,0.63-0.74c-0.08-1.27,0.5-2.29,1.38-3.11c0.66-0.61,1.3-1.23,1.95-1.86c1.57-1.53,3.12-3.09,4.67-4.63
		c0.53-0.53,1.05-0.74,1.66-0.6c0.17,0.04,0.36,0.1,0.55,0.2c0.71,0.35,1.49,0.57,2.23,0.87c0.49,0.2,0.77,0.08,0.81-0.47
		c0.04-0.7,0.08-1.39,0.13-2.09c0.06-0.83,0.15-0.89,0.89-0.58c0.3,0.12,0.6,0.25,0.9,0.37c0.88,0.35,0.96,0.32,1.29-0.6
		c0.29-0.8,0.55-1.6,0.8-2.41c0.26-0.84,0.75-1.51,1.46-2.02c2.58-1.87,5.17-3.74,7.74-5.63c0.68-0.5,1.39-0.73,2.23-0.61
		c1.06,0.15,2.13,0.23,3.19,0.39c0.57,0.08,0.8-0.12,0.76-0.68c-0.08-1.12-0.12-2.24-0.25-3.35c-0.11-0.96,0.04-1.77,0.84-2.41
		c0.31-0.25,0.57-0.56,0.82-0.87c0.18-0.22,0.36-0.44,0.52-0.66c2.09-2.89,1.97-5.8-0.3-8.79c-3.31-4.35-6.84-8.51-10.88-12.21
		c-1.25-1.14-2.53-2.26-3.89-3.27c-1.1-0.8-2.28-1.43-3.65-1.63c-0.53-0.08-0.99-0.31-1.42-0.63c-0.5-0.37-1.02-0.72-1.51-1.1
		c-0.73-0.56-1.45-0.57-2.2-0.04c-0.94,0.66-1.88,1.32-2.82,1.97c-8.43,5.82-16.85,11.65-25.28,17.47
		c-1.11,0.77-2.13,1.64-3.12,2.56c-1.59,1.49-3.31,2.79-5.22,3.86c-1.24,0.68-2.55,1-3.93,1.06c-1.54,0.07-3.09,0.11-4.63-0.08
		c-1.34-0.17-2.45,0.19-3.52,1.05c-2.89,2.34-5.69,4.76-8.25,7.47c-1.08,1.15-2.55,1.82-3.84,2.71c-4.87,3.36-9.58,6.93-13.49,11.42
		c-3.27,3.76-5.86,7.98-8.42,12.24c-1.69,2.81-4.31,4.51-7.75,4.38c-4.72-0.18-9.4-0.66-14-1.76c-2.11-0.5-4.2-1.08-6.19-1.97
		c-1.31-0.58-1.84-0.35-2.4,0.95c-4.95,11.59-8.42,23.61-10.33,36.06c-0.9,5.85-1.29,11.74-1.09,17.66
		c0.2,6.08,1.06,12.06,2.99,17.86c0.09,0.26,0.18,0.52,0.28,0.77c0.01,0.04,0.06,0.08,0.23,0.29c0.16-1.46,0.29-2.77,0.46-4.07
		c0.94-7.12,2.8-13.97,6.24-20.33c0.84-1.56,1.81-3.04,2.86-4.47c0.11-0.15,0.2-0.4,0.44-0.32c0.19,0.07,0.14,0.3,0.14,0.47
		c0.08,1.44,0.16,2.88,0.22,4.33c0.25,5.73,0.42,11.46,1.09,17.16c0.25,2.13,0.63,4.24,1.08,6.33c0.03,0.16,0.12,0.3,0.24,0.6
		c0.25-2.02,0.45-3.87,0.71-5.71c0.72-5.25,1.78-10.42,3.86-15.33c1.12-2.66,2.52-5.14,4.43-7.33c2.29-2.62,5.16-3.82,8.63-3.6
		c2.02,0.13,1.71,0.07,1.83-1.49c0.15-2.01,0.31-4.03,0.98-5.96c0.53-1.53,1.27-2.93,2.62-3.92c1.38-1.01,1.69-0.9,2.15,0.69
		c0.8,2.72,1.89,5.31,3.58,7.6c0.45,0.6,0.29,1.09-0.09,1.63c-1.6,2.29-3.04,4.68-4.29,7.18c-3.59,7.17-5.83,14.77-7.18,22.65
		c-0.07,0.44-0.16,0.88-0.24,1.33c-0.08,0.44-0.31,0.77-0.69,1.02c-4.63,3.08-8.45,7.04-12.02,11.26c-0.84,0.99-1.91,1.58-3.05,2.09
		c-1.97,0.86-4.07,1.33-6.13,1.92c-3.51,1.02-6.95,2.22-10.4,3.41l-0.01,0.01l-1.51,0.63C194.52,265.02,185.57,241.45,185.57,215.78
		z M221.12,295.94C221.12,295.94,221.12,295.94,221.12,295.94c-0.37-0.33-0.72-0.66-1.08-1
		C220.39,295.27,220.75,295.61,221.12,295.94z M559.93,393.23c-2.24,2.32-5.33,3.62-8.54,3.62c-0.23,0-0.47-0.01-0.7-0.02
		c-17.37-1.01-34.99-1.94-52.4-2.77c-4.88-0.23-9-3.4-10.6-7.81c-2.2,1.53-4.53,2.83-6.96,3.84c-5.6,2.39-11.87,3.61-18.62,3.61
		c-0.74,0-1.49-0.01-2.24-0.04c-8.26-0.33-16.15-2.54-24.13-6.76c-0.12-0.06-0.24-0.13-0.35-0.19c-4.42-2.53-8.44-5.71-11.91-9.39
		l0.06,1.07c0.16,3.3-1.06,6.53-3.38,8.9c-2.24,2.29-5.3,3.57-8.5,3.57c-0.11,0-0.22,0-0.33-0.01c-5.99-0.16-10.97-0.29-15.67-0.39
		c-6.26-0.14-11.34-5.12-11.61-11.37l-1.01-23.21l-0.06-1.47c-3.96,10.03-7.59,19.22-11.03,27.88c-1.8,4.54-6.18,7.51-11.05,7.51
		h-0.18c-5.16-0.08-10.31-0.14-15.46-0.21h-0.05c-4.63-0.06-8.81-2.8-10.7-7.03c-4.45-9.93-9.68-21.59-14.96-33.37
		c-0.02,1.69-0.4,3.33-1.09,4.83c3.92,1.91,6.63,5.91,6.68,10.56c0.05,4.07,0.1,8.13,0.16,12.2v0.5c0.05,3.19-1.2,6.26-3.44,8.53
		c-2.23,2.25-5.27,3.52-8.44,3.52h-0.06c-6.45-0.02-12.97-0.04-19.36-0.04c-11.08,0-22.23,0.04-33.14,0.12h-0.08
		c-1.17,0-2.31-0.17-3.42-0.5c-1.1,0.35-2.26,0.54-3.46,0.55c-6.11,0.06-12.21,0.13-18.32,0.21h-0.16c-3.62,0-7.06-1.66-9.31-4.51
		c-3.41-4.3-6.55-8.27-9.51-12.02l-0.16,5.5c-0.18,6.33-5.29,11.41-11.63,11.55l-0.35,0.01c-5.08,0.1-10.16,0.21-15.25,0.34h-0.29
		c-3.17,0-6.21-1.27-8.45-3.53c-2.31-2.32-3.55-5.49-3.44-8.77l0.01-0.17c-0.92,0.91-1.87,1.81-2.88,2.66
		c-0.15,0.13-0.3,0.25-0.45,0.38c-0.02,0.01-0.02,0.02-0.03,0.03c-0.37,0.3-0.74,0.6-1.11,0.89c-0.21,0.17-0.43,0.33-0.65,0.5
		c-0.42,0.32-0.86,0.63-1.3,0.95l-0.25,0.17c-8.13,5.69-17.56,8.88-27.25,9.23c-0.55,0.02-1.13,0.03-1.68,0.03
		c-6.2,0-12.25-1.2-18.01-3.55c-0.12-0.04-0.24-0.09-0.36-0.14c-0.18-0.07-0.36-0.15-0.54-0.23c-0.06-0.02-0.11-0.05-0.17-0.08
		c-2.22-0.97-4.36-2.11-6.38-3.38c-0.9-0.54-1.71-1.05-2.48-1.57c-0.13-0.09-0.26-0.18-0.39-0.27c-1.89-1.37-3.64-2.86-5.2-4.42
		c-0.11-0.1-0.21-0.21-0.32-0.32c-0.86-0.93-1.72-1.93-2.62-3.03c-3.15-3.76-5.66-7.93-7.48-12.42c-2.86,2.66-6.11,4.92-9.61,6.59
		c-7.34,3.61-14.6,4.52-20.11,4.91c-0.13,0.01-0.25,0.02-0.36,0.02c-1.01,0.04-2.02,0.08-3.03,0.12c-0.25,3.29-0.52,6.58-0.78,9.88
		c-0.48,5.93-5.25,10.6-11.18,10.93c-5.23,0.29-10.45,0.59-15.68,0.9c-0.23,0.01-0.46,0.02-0.69,0.02c-3.19,0-6.26-1.28-8.51-3.59
		c-2.4-2.46-3.61-5.85-3.33-9.28c1.08-12.97,2.16-25.92,3.24-38.87c0.64-7.78,1.29-15.55,1.94-23.33l0.91-10.88
		c0.51-6.1,5.57-10.82,11.7-10.9c9.56-0.12,19.13-0.24,28.68-0.34h0.35c5.52,0.1,12.78,0.66,19.93,4.05
		c0.04,0.02,0.08,0.04,0.12,0.06c5.88,2.88,10.57,6.99,13.67,11.94c0.82-1.01,1.62-1.93,2.25-2.62c0.3-0.34,0.62-0.66,0.95-0.96
		c1.38-1.43,2.69-2.62,4.04-3.65c0.98-0.92,1.88-1.52,2.39-1.87l0.13-0.09c4.03-2.77,8.32-4.9,13.51-6.71
		c0.15-0.06,0.3-0.1,0.45-0.15c2.56-0.78,5.27-1.36,8.05-1.74c2.12-0.28,4.22-0.42,6.24-0.42c0.83,0,1.65,0.02,2.45,0.07h0.06
		c0.07,0.01,0.14,0.01,0.21,0.02c3.32,0.17,6.66,0.7,9.94,1.57l0.04,0.01c0.23,0.06,0.46,0.11,0.7,0.17
		c0.14,0.03,0.29,0.07,0.44,0.12c4.53,1.31,8.85,3.27,12.83,5.82c0.13,0.08,0.26,0.17,0.4,0.26c0.39,0.27,0.77,0.55,1.14,0.82
		l0.1,0.06c2.25,1.58,4.4,3.36,6.36,5.31c0.13,0.11,0.25,0.22,0.36,0.34c0.1,0.1,0.21,0.2,0.31,0.3c0.36,0.37,0.73,0.78,1.12,1.21
		l0.11-3.42c0.22-6.38,5.44-11.44,11.83-11.48l15.11-0.07h0.19c3.2,0,6.27,1.29,8.5,3.58c2.25,2.31,3.47,5.43,3.38,8.65
		c-0.01,0.17-0.01,0.33-0.02,0.48c1.28-1.32,2.59-2.67,3.91-4.03c1.65-1.7,3.31-3.42,5.02-5.18c0.18-0.19,0.38-0.36,0.58-0.54
		c0,0,0,0,0,0c2.17-1.96,4.98-3.07,7.92-3.08c5.68-0.02,11.37-0.03,17.05-0.04h0.06c1.47,0.01,2.86,0.29,4.15,0.77
		c1.31-0.5,2.73-0.78,4.21-0.78c10.8-0.02,21.61-0.02,32.4-0.02c5.9,0,11.79,0,17.68,0.01c0.63,0,1.25,0.06,1.85,0.16
		c0.63-0.1,1.27-0.16,1.92-0.16c0,0,0.01,0,0.02,0l8.15,0.01l4.29,0.01l4.12,0.01c4.67,0.01,8.9,2.75,10.82,7.01
		c0.84,1.87,1.69,3.74,2.52,5.59c1.1,2.45,2.19,4.87,3.28,7.28c1.43,3.18,2.85,6.33,4.24,9.43c2.02-5.04,4.12-10.29,6.33-15.83
		c0.77-1.92,1.55-3.88,2.34-5.87c1.8-4.53,6.18-7.49,11.04-7.49H373c0.7,0,1.41,0.01,2.11,0.01c4.14,0.02,8.26,0.04,12.4,0.05
		c0.95,0,1.89,0.12,2.79,0.34c0.86-0.2,1.76-0.31,2.66-0.31h0.05c2.63,0.02,5.26,0.02,7.89,0.04c2.48,0.02,4.96,0.03,7.45,0.04
		c6.32,0.03,11.51,5,11.82,11.31l0.14,2.97c3.24-3.71,7.12-6.86,11.48-9.27c6.75-3.76,14.26-5.61,23.63-5.83h0.29
		c0.14,0,0.29,0,0.44,0.01c7.84,0.29,14.22,1.64,20.08,4.22c2.28,0.98,4.5,2.18,6.63,3.57c0.48-0.91,1.07-1.77,1.79-2.53
		c2.25-2.41,5.39-3.77,8.69-3.77h0.12c14.88,0.16,32.46,0.35,50.06,0.57c6.08,0.08,11.12,4.73,11.68,10.78l1.16,12.49l0.07,0.75
		c0.32,3.37-0.82,6.71-3.13,9.19c-0.4,0.43-0.82,0.82-1.26,1.17c0.94,1.52,1.55,3.27,1.74,5.15c0.17,1.78,0.33,3.54,0.48,5.32
		c0.23,2.42,0.45,4.84,0.67,7.27l0.05,0.55c0.23,2.46-0.32,4.9-1.52,7c4.58,1.35,8.03,5.37,8.48,10.31l1.28,13.9
		C563.53,387.31,562.34,390.73,559.93,393.23z"/>
	<path class="st0" d="M87.85,312.63c-4.76-2.26-9.86-2.81-15.05-2.9c-9.55,0.1-19.11,0.22-28.66,0.34
		c-0.95,11.4-1.91,22.8-2.85,34.2c-1.09,12.96-2.16,25.91-3.24,38.87c5.23-0.3,10.46-0.6,15.69-0.9c0.54-6.79,1.07-13.58,1.61-20.37
		c4.53-0.19,9.04-0.38,13.57-0.56c5.48-0.39,10.8-1.29,15.77-3.75c4.3-2.04,8.12-5.34,10.75-9.3c1.14-1.66,2.05-3.49,2.75-5.4
		c0.97-2.66,1.51-5.48,1.7-8.25c0.09-4.74-0.34-9.13-2.62-13.39C95.23,317.39,91.68,314.5,87.85,312.63z M80.85,343.25
		c-0.28,0.32-0.58,0.61-0.9,0.9c-2.91,2.58-7.12,3.41-10.87,3.55c-4.21,0.14-8.43,0.29-12.64,0.43c0.11-1.43,0.23-2.85,0.34-4.28
		c0.55-6.88,1.09-13.76,1.63-20.64c4.18-0.08,8.36-0.16,12.54-0.24c3.48-0.06,7.66,0.44,10.32,2.96c2.66,2.46,2.93,5.64,2.96,9.04
		C84.11,338.02,82.9,341.01,80.85,343.25z"/>
	<path class="st0" d="M226.74,338.25c5.57-5.93,11.17-11.84,16.76-17.76c1.92-2.03,3.83-4.07,5.75-6.09c0,0,0,0,0,0
		c1.85-1.96,3.7-3.93,5.55-5.88c-5.56,0.01-11.14,0.02-16.7,0.04c0,0-0.01,0-0.01,0c-0.11,0-0.22,0-0.32,0
		c-1.85,1.91-3.69,3.82-5.54,5.73c-8.25,8.52-16.48,17.05-24.67,25.62c0.29-10.41,0.59-20.83,0.89-31.24
		c-5.08,0.02-10.15,0.05-15.23,0.07c-0.37,10.85-0.74,21.71-1.12,32.56c-0.4,11.83-0.81,23.67-1.21,35.51
		c5.21-0.13,10.42-0.24,15.63-0.35c0.17-5.83,0.33-11.65,0.5-17.48c3.1-3.23,6.2-6.47,9.3-9.69c7.01,8.89,14.04,17.77,21.07,26.65
		c6.12-0.08,12.24-0.14,18.36-0.21c-8.98-11.58-17.96-23.17-26.92-34.77C228.12,340.06,227.43,339.16,226.74,338.25z"/>
	<path class="st0" d="M278.37,362.86c0.01-5.23,0.02-10.45,0.02-15.69c10.41-0.02,20.81-0.03,31.22-0.01
		c-0.02-2.16-0.05-4.3-0.07-6.45c-0.02-1.87-0.04-3.75-0.06-5.62c-10.35-0.02-20.71-0.02-31.07,0.01c0-1.41,0-2.82,0.01-4.24
		c0-2.67,0.01-5.34,0.01-8.01c0,0,0,0,0,0c0-0.72,0-1.45,0-2.17c11.66-0.02,23.32-0.02,34.98,0c-0.06-4.07-0.1-8.14-0.15-12.21
		c-16.68-0.02-33.37-0.01-50.05,0.02c-0.03,3.68-0.05,7.37-0.08,11.05c0,0,0,0,0,0c-0.02,2.75-0.04,5.5-0.06,8.25
		c-0.03,4.32-0.06,8.65-0.1,12.97c-0.08,11.63-0.17,23.27-0.25,34.91c17.54-0.13,35.09-0.15,52.63-0.08
		c-0.06-4.24-0.11-8.48-0.16-12.72C302.92,362.82,290.65,362.82,278.37,362.86z"/>
	<path class="st0" d="M361.28,340.94c-2.05,5.14-4.11,10.27-6.17,15.41c-2.31-5.16-4.63-10.33-6.95-15.49
		c-2.76-6.16-5.54-12.32-8.31-18.48c-1.09-2.42-2.17-4.84-3.26-7.26c0,0,0,0,0,0c-0.99-2.2-1.98-4.41-2.97-6.61
		c-5.52-0.01-11.03-0.02-16.56-0.02c1.75,3.88,3.49,7.76,5.24,11.65c0,0,0,0,0,0.01c1.1,2.44,2.2,4.89,3.3,7.33
		c1.99,4.44,3.99,8.87,5.98,13.31c5.25,11.69,10.49,23.38,15.73,35.08c5.18,0.06,10.35,0.13,15.53,0.21
		c4.63-11.66,9.24-23.33,13.85-35c4.26-10.79,8.5-21.57,12.74-32.37c-5.08-0.02-10.15-0.04-15.23-0.06
		C369.9,319.41,365.6,330.18,361.28,340.94z"/>
	<path class="st0" d="M410.24,308.8c-5.11-0.02-10.22-0.06-15.33-0.08c0.48,10.84,0.95,21.68,1.42,32.54
		c0.52,11.83,1.03,23.65,1.55,35.48c5.24,0.12,10.49,0.25,15.72,0.4c-0.59-11.9-1.17-23.79-1.75-35.69
		C411.31,330.57,410.77,319.68,410.24,308.8z"/>
	<path class="st0" d="M462.24,365.94c-3.98-0.06-7.95-1.25-11.38-3.22c-3.38-1.91-6.15-4.87-8.15-8.16
		c-2.12-3.45-3.15-7.55-3.42-11.55c0-0.4,0-0.79,0.02-1.17c0.08-3.62,0.63-6.7,2.04-10.17c1.55-3.19,4.02-5.87,7.09-7.65
		c3.42-1.97,6.98-2.46,10.85-2.63c6.79,0.07,12.86,3.3,17.3,8.33c3.08-3.11,6.13-6.21,9.2-9.33c-3.36-3.89-7.64-7.15-12.37-9.18
		c-5.04-2.23-10.31-3.04-15.77-3.24c-6.4,0.15-12.48,1.19-18.13,4.34c-5.16,2.85-9.41,7.12-12.2,12.32
		c-2.88,5.35-3.76,11.03-3.76,16.99c0,0.36,0.01,0.74,0.02,1.1c0.59,6.82,2.33,12.59,5.75,18.52c3.46,5.52,8.24,10.08,13.89,13.32
		c6.15,3.25,12.32,5.12,19.05,5.39c5.26,0.21,10.73-0.48,15.78-2.65c4.5-1.85,8.48-5.13,11.3-9.08c-3.57-3.38-7.15-6.77-10.74-10.14
		C474.7,363.31,468.79,366.18,462.24,365.94z"/>
	<path class="st0" d="M515.3,367.53c-0.46-5.58-0.92-11.15-1.39-16.73c10.4,0.36,20.79,0.73,31.18,1.12
		c-0.24-2.6-0.48-5.21-0.72-7.81c-0.16-1.77-0.32-3.53-0.48-5.29c-10.34-0.31-20.69-0.59-31.04-0.87
		c-0.42-5.11-0.85-10.22-1.27-15.34c11.65,0.21,23.3,0.44,34.96,0.67c-0.41-4.41-0.82-8.83-1.24-13.24
		c-16.68-0.21-33.35-0.4-50.03-0.57c0.87,11.16,1.74,22.33,2.62,33.49c0.97,12.47,1.95,24.93,2.92,37.39
		c17.52,0.83,35.02,1.76,52.52,2.78c-0.43-4.63-0.86-9.27-1.28-13.9C539.8,368.63,527.55,368.06,515.3,367.53z"/>
	<path class="st0" d="M180.7,336.78c-0.55-3.29-1.61-6.48-3.11-9.46c-1.53-3.05-3.52-5.84-5.86-8.31c-0.07-0.07-0.13-0.15-0.19-0.21
		c-0.1-0.09-0.19-0.17-0.28-0.26c-1.66-1.58-3.3-2.95-5.1-4.27c-0.38-0.27-0.75-0.55-1.14-0.82c-3.01-1.93-6.29-3.41-9.73-4.41
		c-0.26-0.07-0.51-0.12-0.76-0.18c-2.64-0.62-5.14-1.06-7.81-1.24c-0.07,0-0.14-0.01-0.21-0.01c-2.1-0.12-4.29-0.01-6.42,0.27
		c-2.09,0.28-4.14,0.71-6.15,1.32c-2.15,0.75-4.19,1.6-6.14,2.59c0.01-0.01,0.01-0.02,0.01-0.02c-1.95,0.89-3.72,2.03-5.28,3.22
		c0,0,0,0,0,0c-1.93,1.46-3.54,2.99-4.68,4.2c-0.04,0.04-0.07,0.07-0.1,0.11c-1.23,1.31-1.92,2.23-1.92,2.23l0.01,0.02
		c-0.02,0.02-0.03,0.04-0.05,0.06c-2.12,2.67-3.85,5.64-5.14,8.79c-0.97,2.29-1.72,4.85-2.13,7.3c-0.3,1.61-0.47,3.23-0.55,4.86
		c-0.01,0.11,0.01,0.17,0.04,0.21c0.04,0.06,0.12,0.06,0.28,0c4.05-1.65,8.12-3.19,12.27-4.57c2.29-0.75,4.65-1.39,7-1.91
		c2.79-0.57,5.54-1.03,8.36-1.39c1.62-0.17,3.24-0.32,4.86-0.38c0.29-0.01,0.44-0.1,0.56-0.36c0.84-2.07,2.68-4.25,4.57-5.44
		c2.73-1.85,6.04-2.62,9.3-2.16c2.44,0.23,5.33,1.58,7.06,3.3c1.65,1.42,3.08,3.83,3.55,5.95c0.05,0.19,0.14,0.27,0.34,0.3
		c0.44,0.08,0.88,0.18,1.33,0.27c2.56,0.51,5.17,1.36,7.58,2.35c1.91,0.75,3.83,1.51,5.74,2.26c0.33,0.13,0.35,0.12,0.33-0.22
		C181.09,339.43,180.93,338.1,180.7,336.78z"/>
	<path class="st0" d="M180.08,350.24c-1.48-0.49-2.95-1.02-4.44-1.5c-1.81-0.58-3.65-1.11-5.5-1.58c-1.86-0.47-3.74-0.88-5.64-1.23
		c-0.22-0.04-0.37,0-0.51,0.21c-0.37,0.57-0.8,1.1-1.27,1.59c-1.3,1.39-2.84,2.46-4.61,3.22c-1.42,0.61-2.91,0.94-4.44,1.04
		c-0.86,0.06-1.72,0-2.57-0.11c-2.2-0.22-4.8-1.35-6.46-2.82c-1.43-1.18-2.53-2.63-3.29-4.31c-0.1-0.22-0.22-0.28-0.45-0.25
		c-1.03,0.11-2.06,0.16-3.1,0.25c-1.14,0.1-2.28,0.22-3.41,0.37c-1.73,0.22-3.45,0.5-5.17,0.82c-2.93,0.6-5.8,1.29-8.69,2.07
		c0.1,0.69,0.34,1.34,0.55,2c0.72,2.33,1.86,4.75,3.19,6.79c1.66,2.37,3.29,4.31,5.34,6.34c1.01,0.91,2.06,1.76,3.18,2.53
		c2.02,1.42,4.42,2.68,6.75,3.51c2.26,0.88,4.81,1.52,7.21,1.8c3.12,0.27,5.89,0.26,9-0.02c3.15-0.56,5.86-1.29,8.86-2.4
		c1.76-0.74,3.45-1.62,5.07-2.64c0.94-0.59,1.84-1.23,2.71-1.9c0.87-0.68,1.72-1.4,2.54-2.14c0.16-0.14,0.31-0.28,0.48-0.41
		c0.11-0.09,0.23-0.17,0.35-0.25c0.45-0.64,0.84-1.31,1.21-1.99c1.23-2.23,2.26-4.78,2.92-7.24c0.12-0.44,0.24-0.89,0.34-1.33
		C180.28,350.5,180.35,350.33,180.08,350.24z"/>
	<path class="st0" d="M161.75,339.02c-0.01-4.28-3.85-8.08-8.2-7.84c-4.27,0.07-8.4,3.68-8.27,8.13c-0.2,4.35,3.95,7.88,8.1,7.85
		C157.75,347.28,161.76,343.37,161.75,339.02z M147.19,339.28c0.16-3.27,2.89-6.33,6.33-6.25c3.2,0.08,6.48,2.57,6.33,6.05
		c0.12,3.47-3.13,6.04-6.33,6.24C150.09,345.54,147.33,342.54,147.19,339.28z"/>
	<path class="st0" d="M159.36,339.07c-0.05-3.16-2.7-5.57-5.82-5.57c-3.13,0.09-5.77,2.55-5.86,5.72c0.03,3.19,2.67,5.64,5.83,5.61
		C156.66,344.73,159.27,342.25,159.36,339.07z"/>
</g>
</svg>
