<?xml version="1.0" encoding="utf-8"?>
<!-- Generator: Adobe Illustrator 27.2.0, SVG Export Plug-In . SVG Version: 6.00 Build 0)  -->
<svg version="1.1" id="Capa_1" xmlns="http://www.w3.org/2000/svg" xmlns:xlink="http://www.w3.org/1999/xlink" x="0px" y="0px"
	 viewBox="0 0 587.47 505.26" style="enable-background:new 0 0 587.47 505.26;" xml:space="preserve">
<style type="text/css">
	.st0{fill:#FFFFFF;}
	.st1{fill:#B5241D;}
	.st2{fill:#B4241D;}
	.st3{fill:#020203;}
	.st4{fill:#1E1F1D;}
	.st5{fill:#E4352B;}
	.st6{fill:#C7C7C6;}
	.st7{opacity:0.5;}
	.st8{fill:#552770;}
	.st9{fill:#1E1E1C;}
	.st10{opacity:0.27;}
	.st11{fill:#585857;}
	.st12{fill:#E5352B;}
	.st13{fill:#CAE8FB;}
</style>
<g>
	<g>
		<path class="st2" d="M549.77,338.41c-0.4-4.15-0.8-8.3-1.21-12.46c-0.28-3.49-1.65-6.93-3.57-9.8c-0.76-1.13-1.64-2.18-2.59-3.13
			c0.04-0.86,0.01-1.73-0.07-2.6c-0.37-3.91-0.75-7.82-1.12-11.73c-0.09-0.93-0.24-1.85-0.47-2.76c2.31-3.45,2.86-7.1,2.73-11.15
			c-0.39-3.95-0.77-7.9-1.15-11.85c-0.44-4.5-2.66-9.03-5.96-12.09c-3.18-2.95-7.65-5.06-12.09-4.98c-14.67-0.01-29.33-0.02-44-0.03
			c-3.16,0-6.3,0.91-8.92,2.68c-0.58,0.39-1.12,0.82-1.63,1.28c-0.58-0.28-1.17-0.56-1.76-0.81c-6.61-2.79-13.67-4.18-20.78-4.18
			c-8.35,0-16.53,1.94-23.96,5.95c-1.22,0.66-2.43,1.43-3.58,2.22c-3.28-4.44-8.62-7.16-14.14-7.17c-4.49,0-8.98,0-13.47,0
			c-0.8,0-1.61,0.06-2.41,0.17c-0.81-0.11-1.62-0.17-2.41-0.17c-1.37,0-2.75,0-4.12,0c2.3-2.74,4.45-5.6,6.45-8.55
			c3.72-5.51,6.92-11.41,9.51-17.52c5.38-12.72,8.11-26.22,8.11-40.14s-2.73-27.42-8.11-40.14c-2.59-6.11-5.79-12.01-9.51-17.52
			c-3.69-5.46-7.92-10.59-12.59-15.26c-4.66-4.66-9.8-8.9-15.25-12.59c-5.51-3.72-11.41-6.92-17.52-9.51
			c-12.72-5.38-26.22-8.11-40.14-8.11c-13.92,0-27.42,2.73-40.14,8.11c-6.11,2.59-12.01,5.79-17.52,9.51
			c-5.46,3.69-10.59,7.92-15.26,12.59c-4.66,4.66-8.9,9.8-12.59,15.26c-3.73,5.51-6.93,11.41-9.51,17.52
			c-5.38,12.72-8.11,26.22-8.11,40.14s2.73,27.42,8.11,40.14c2.59,6.11,5.79,12.01,9.51,17.52c1.99,2.95,4.15,5.81,6.44,8.55
			c-3.42,0-6.85,0-10.27,0c-5.53,0-10.88,2.73-14.11,7.23c-1.17-0.79-2.4-1.57-3.65-2.24c-7.51-4.02-15.77-5.98-24.19-5.98
			c-8.61,0-17.18,2-24.75,6.07c-3.19,1.71-6.18,3.86-9.06,6.2c-2.82-2.93-6.23-5.07-9.81-6.95c-0.04-0.02-0.06-0.03-0.1-0.05
			c-6.3-3.08-13.27-4.08-20.21-4.22c-8.4,0.01-16.8,0.01-25.2,0.02c-9.32,0.02-17.1,8.03-17.91,17.12
			c-1.92,21.82-3.84,43.63-5.74,65.45c-0.12,4.8,0.81,9.37,4.12,13.01c2.85,3.13,7.37,4.71,11.58,4.39
			c4.65-0.33,9.31-0.66,13.96-0.98c9.6-0.67,17.56-9.34,18.27-18.78c0.02-0.23,0.03-0.35,0.05-0.58c5.74-0.9,11.26-2.37,16.46-5
			c0.65-0.33,1.3-0.67,1.93-1.03c2.12,4.04,5,7.76,8.35,10.84c-2.67,3.58-4.11,6.99-4.7,11.45c-1.07,16.65-2.14,33.3-3.2,49.95
			c0.01,4.85,1.13,9.47,4.66,13c3.01,3.01,7.61,4.41,11.82,4.03c1.97-0.17,2.96-0.25,4.93-0.42c9.11-0.78,16.8-8.53,18.16-17.46
			c3.69-0.64,7.38-1.66,10.79-3.24c3.23,5.2,7.8,9.48,13.18,12.38c6.56,3.54,13.93,4.89,21.12,4.53c7.53-0.37,14.82-2.65,21.4-6.53
			c0.4-0.23,0.8-0.49,1.19-0.75c0.45,0.5,0.94,0.97,1.43,1.41c3.07,2.71,7.43,4.14,11.52,4.01c6.33-0.19,12.67-0.35,19-0.49
			c7.67-0.34,14.85-1.99,21.53-5.57c2.41-1.29,4.71-2.92,6.82-4.71c2.18,1.78,4.34,3.41,6.71,4.77c6.43,3.69,13.88,5.55,21.31,5.62
			c4.11,0.03,8.19-0.57,12.28-1.59c1.99,0.9,4.54,1.45,6.73,1.45c2.05,0.04,3.08,0.06,5.14,0.11c6.76,0.06,13.43-3.78,15.9-10.27
			c0.38-0.93,0.56-1.39,0.94-2.32c1.13,0.03,1.69,0.05,2.82,0.08c0.45,0.99,0.68,1.49,1.13,2.48c2.96,6.28,9.34,11.05,16.42,11.22
			c2.08,0.09,3.12,0.13,5.2,0.23c2.46-0.06,4.82-0.2,7.12-1.22c4.47,1.42,8.94,2.42,13.49,2.68c5.57,0.32,11.4-0.26,16.75-2.41
			c2-0.8,4.09-1.93,5.83-3.21c3.4,4.19,8.47,7.16,13.9,7.59c1.97,0.15,2.96,0.22,4.93,0.38c4.26,0.43,8.75-1.18,11.81-4.09
			c3.54-3.37,4.63-8.2,4.62-12.93c-0.62-9.09-1.24-18.18-1.87-27.26c3.78-0.13,7.71-1.64,10.36-4.32c3.15-3.18,4.74-8.16,4.4-12.63
			c-0.13-1.79-0.2-2.69-0.33-4.48c-0.03-0.4-0.07-0.8-0.13-1.21c2.69,1.23,4.78,1.86,7.7,2.27c15.58,0.9,31.16,1.92,46.73,3.04
			c4.24,0.42,8.65-1.35,11.54-4.39C549.09,347.93,549.93,343.1,549.77,338.41z M148.2,413.82c-1.97,0.16-2.96,0.24-4.92,0.41
			c-3.11,0.27-6.25-0.74-8.49-2.92c-0.38-0.37-0.97-1.12-1.22-1.43c0.23,0.28,0.74,0.89,1.06,1.2c2.31,2.19,5.68,3.42,8.92,3.06
			c1.97-0.16,2.95-0.25,4.92-0.4c0.87-0.07,2.41-0.45,2.87-0.56C150.84,413.3,149.15,413.74,148.2,413.82z M164.14,396.7
			c-0.72,0.09-1.08,0.13-1.8,0.22c0-0.02,0-0.03,0-0.05c0.57-0.04,1.59-0.16,1.96-0.19C164.25,396.69,164.19,396.7,164.14,396.7z
			 M186.5,401.63c0.06,0.05,0.14,0.11,0.21,0.17C186.64,401.74,186.57,401.68,186.5,401.63z M211.45,410.15
			c-6.36,0.31-13.07-0.81-18.71-4.03c-1.8-1.03-4.62-3.2-5.9-4.21c1.27,0.98,4.03,3.08,5.79,4.08c5.72,3.26,12.51,4.39,18.95,4.08
			c3.63-0.17,10.65-2.01,11.81-2.32C222.23,408.07,215.2,409.97,211.45,410.15z M235.24,401.11c0.02-0.01,0.04-0.03,0.05-0.04
			c0.07,0.14,0.14,0.29,0.21,0.43C235.39,401.34,235.34,401.27,235.24,401.11z M266,407.85c-6.33,0.13-12.67,0.29-19,0.48
			c-2.66,0.08-7.09-2.23-8.11-2.78c1.03,0.54,5.51,2.79,8.19,2.71c6.32-0.19,12.65-0.34,18.97-0.47c5-0.24,13.34-2.67,16.17-3.53
			C279.39,405.13,271.02,407.61,266,407.85z M282.23,404.25c0.1-0.03,0.19-0.06,0.28-0.09
			C282.42,404.19,282.32,404.22,282.23,404.25z M334.05,406.31c-3.79,1.21-7.78,1.63-11.69,1.65c-4.74,0.03-13.44-2.65-15.47-3.3
			c2.03,0.63,10.71,3.26,15.42,3.23c4.3-0.03,8.39-0.68,12.57-1.9c0.03,0.02,0.05,0.03,0.08,0.05
			C334.59,406.14,334.41,406.2,334.05,406.31z M346.5,407.91c-2.06-0.04-3.08-0.06-5.14-0.1c-1.51-0.03-4.24-0.84-4.75-1
			c0.51,0.15,3.19,0.91,4.66,0.93c2.05,0.04,3.08,0.06,5.13,0.1c2.57,0.06,6.96-2.03,7.86-2.48
			C353.37,405.82,349.05,407.97,346.5,407.91z M360.36,395.23c0-0.01,0.01-0.01,0.01-0.02c2.84,0.08,5.67,0.16,8.51,0.24
			c0,0.01,0.01,0.01,0.01,0.02C366.05,395.39,363.2,395.31,360.36,395.23z M394.7,408.1c-1.78,0.88-3.73,1.28-5.8,1.19
			c-2.08-0.09-3.12-0.13-5.2-0.22c-1.18-0.05-3.31-0.6-3.82-0.74c0.5,0.13,2.53,0.62,3.66,0.67c2.08,0.08,3.12,0.13,5.19,0.22
			c2.16,0.16,4.85-0.47,6.71-1.59c0.05,0.02,0.09,0.03,0.14,0.05C395.22,407.85,395.05,407.93,394.7,408.1z M424.25,408.61
			c-4.54,2.01-9.86,2.39-14.74,2.12c-2.98-0.17-8.36-1.39-10.22-1.83c1.83,0.42,7.1,1.59,10.01,1.75c4.96,0.27,10.2-0.18,14.96-2.15
			c1.38-0.57,2.75-1.27,4.04-2.09C427.03,407.24,425.72,407.96,424.25,408.61z M430.88,404.54c-0.29,0.23-0.58,0.45-0.87,0.66
			c-0.5,0.38-1.01,0.75-1.54,1.08c0.51-0.34,1.02-0.7,1.54-1.08c1.03-0.79,1.98-1.67,2.82-2.65c0.03,0.07,0.05,0.13,0.08,0.19
			C432.09,403.47,431.69,403.83,430.88,404.54z M459.4,410.03c-2.25,2.19-5.37,3.21-8.48,2.96c-1.97-0.15-2.96-0.22-4.93-0.37
			c-0.81-0.06-2.32-0.41-2.68-0.5c0.34,0.07,1.67,0.35,2.41,0.4c1.97,0.14,2.95,0.22,4.92,0.37c3.18,0.19,6.63-0.82,8.91-3.1
			c0.39-0.39,1.03-1.18,1.26-1.46C460.57,408.64,459.86,409.58,459.4,410.03z"/>
		<path class="st0" d="M304.03,86.47c13.92,0,27.42,2.73,40.14,8.11c6.11,2.59,12.01,5.79,17.52,9.51
			c5.46,3.69,10.59,7.92,15.25,12.59c4.67,4.66,8.9,9.8,12.59,15.26c3.72,5.51,6.92,11.41,9.51,17.52
			c5.38,12.72,8.11,26.22,8.11,40.14s-2.73,27.42-8.11,40.14c-2.59,6.11-5.79,12.01-9.51,17.52c-1.99,2.95-4.15,5.81-6.45,8.55
			c1.37,0,2.75,0,4.12,0c0.79,0,1.61,0.06,2.41,0.17c0.79-0.11,1.58-0.17,2.37-0.17c0.01,0,0.03,0,0.04,0c4.49,0,8.98,0,13.47,0
			c5.52,0.01,10.86,2.73,14.14,7.17c1.15-0.79,2.36-1.56,3.58-2.22c7.43-4,15.61-5.95,23.95-5.95c0,0,0.01,0,0.01,0
			c7.11,0,14.17,1.39,20.78,4.18c0.59,0.25,1.18,0.53,1.76,0.81c0.51-0.46,1.06-0.89,1.63-1.28c2.61-1.77,5.74-2.68,8.89-2.68
			c0.01,0,0.01,0,0.02,0c14.67,0.01,29.33,0.02,44,0.03c0.09,0,0.18,0,0.27,0c4.35,0,8.7,2.09,11.82,4.98
			c3.3,3.07,5.52,7.59,5.96,12.09c0.39,3.95,0.77,7.9,1.15,11.85c0.13,4.05-0.42,7.7-2.73,11.15c0.22,0.91,0.38,1.83,0.47,2.76
			c0.37,3.91,0.75,7.82,1.12,11.73c0.08,0.87,0.11,1.74,0.07,2.6c0.95,0.95,1.83,2,2.59,3.13c1.92,2.86,3.29,6.31,3.57,9.8
			c0.4,4.15,0.8,8.31,1.21,12.46c0.16,4.69-0.67,9.52-4.01,13.04c-2.6,2.74-6.45,4.45-10.29,4.45c-0.42,0-0.83-0.02-1.25-0.06
			c-15.57-1.12-31.15-2.13-46.73-3.04c-2.92-0.4-5.01-1.03-7.7-2.27c0.06,0.4,0.1,0.8,0.13,1.21c0.13,1.79,0.2,2.69,0.33,4.48
			c0.34,4.48-1.25,9.45-4.4,12.63c-2.65,2.67-6.58,4.19-10.36,4.32c0.62,9.09,1.25,18.18,1.87,27.26c0.01,4.73-1.08,9.56-4.62,12.93
			c-2.73,2.6-6.6,4.16-10.43,4.16c-0.46,0-0.93-0.02-1.39-0.07c-1.97-0.15-2.96-0.23-4.93-0.38c-5.43-0.43-10.5-3.39-13.9-7.59
			c-1.75,1.29-3.84,2.41-5.83,3.21c-4.46,1.79-9.25,2.5-13.95,2.5c-0.94,0-1.87-0.03-2.8-0.08c-4.55-0.26-9.02-1.26-13.49-2.68
			c-2.3,1.02-4.66,1.16-7.12,1.22c-2.08-0.09-3.12-0.14-5.2-0.23c-7.08-0.17-13.46-4.94-16.42-11.22c-0.45-0.99-0.68-1.49-1.12-2.48
			c-1.13-0.03-1.69-0.05-2.82-0.08c-0.38,0.93-0.56,1.39-0.94,2.32c-2.46,6.44-9.04,10.27-15.75,10.27c-0.05,0-0.1,0-0.15,0
			c-2.06-0.05-3.08-0.06-5.14-0.11c-0.01,0-0.02,0-0.03,0c-2.18,0-4.72-0.55-6.7-1.45c-3.98,1-7.95,1.6-11.94,1.6
			c-0.11,0-0.22,0-0.33,0c-7.43-0.07-14.87-1.93-21.31-5.62c-2.37-1.36-4.53-2.99-6.71-4.77c-2.11,1.79-4.42,3.42-6.82,4.71
			c-6.68,3.58-13.86,5.22-21.53,5.57c-6.33,0.14-12.67,0.3-19,0.49c-0.17,0.01-0.34,0.01-0.51,0.01c-3.94,0-8.06-1.42-11.01-4.02
			c-0.5-0.44-0.99-0.91-1.43-1.41c-0.4,0.26-0.8,0.52-1.19,0.75c-6.58,3.88-13.87,6.15-21.4,6.53c-0.74,0.04-1.48,0.06-2.22,0.06
			c-6.48,0-13.01-1.42-18.9-4.59c-5.37-2.89-9.95-7.17-13.18-12.38c-3.41,1.58-7.09,2.6-10.79,3.24
			c-1.37,8.93-9.05,16.68-18.16,17.46c-1.97,0.16-2.96,0.25-4.93,0.42c-0.45,0.04-0.9,0.06-1.35,0.06c-3.82,0-7.77-1.4-10.47-4.09
			c-3.53-3.53-4.66-8.15-4.66-13c1.06-16.65,2.13-33.3,3.2-49.95c0.59-4.46,2.02-7.86,4.7-11.45c-3.35-3.09-6.24-6.8-8.35-10.84
			c-0.63,0.36-1.28,0.7-1.93,1.03c-5.21,2.63-10.72,4.1-16.46,5c-0.02,0.23-0.03,0.35-0.05,0.58c-0.71,9.44-8.66,18.1-18.27,18.78
			c-4.65,0.32-9.31,0.64-13.96,0.98c-0.36,0.03-0.71,0.04-1.07,0.04c-3.88,0-7.89-1.56-10.5-4.43c-3.31-3.64-4.24-8.21-4.12-13.01
			c1.9-21.82,3.81-43.63,5.74-65.45c0.81-9.09,8.59-17.1,17.91-17.12c8.4-0.01,16.8-0.01,25.2-0.02c6.94,0.14,13.91,1.14,20.21,4.22
			c0.04,0.02,0.06,0.03,0.1,0.05c3.58,1.88,6.99,4.02,9.81,6.95c2.89-2.34,5.87-4.49,9.06-6.2c7.57-4.06,16.14-6.07,24.75-6.07
			c8.42,0,16.68,1.96,24.19,5.98c1.25,0.67,2.48,1.44,3.65,2.24c3.23-4.5,8.58-7.22,14.11-7.23c3.42,0,6.85,0,10.27,0
			c-2.3-2.74-4.45-5.6-6.44-8.55c-3.73-5.51-6.93-11.41-9.51-17.52c-5.38-12.72-8.11-26.22-8.11-40.14s2.73-27.42,8.11-40.14
			c2.59-6.11,5.79-12.01,9.51-17.52c3.69-5.46,7.92-10.59,12.59-15.26c4.66-4.66,9.8-8.9,15.26-12.59
			c5.51-3.72,11.41-6.92,17.52-9.51C276.61,89.19,290.11,86.47,304.03,86.47 M368.89,395.47c0-0.01-0.01-0.02-0.01-0.02
			c-2.84-0.09-5.67-0.17-8.51-0.24c0,0.01-0.01,0.02-0.01,0.02C363.2,395.31,366.05,395.39,368.89,395.47 M162.34,396.93
			c0.72-0.09,1.08-0.13,1.8-0.22c0.04-0.01,0.1-0.01,0.16-0.02c-0.36,0.04-1.38,0.15-1.96,0.19
			C162.35,396.9,162.34,396.91,162.34,396.93 M235.5,401.5c-0.07-0.14-0.14-0.28-0.21-0.43c-0.02,0.02-0.03,0.03-0.05,0.04
			C235.34,401.27,235.39,401.34,235.5,401.5 M186.72,401.8c-0.08-0.06-0.15-0.12-0.21-0.17
			C186.57,401.68,186.64,401.74,186.72,401.8 M209.44,410.19c0.67,0,1.34-0.02,2.01-0.05c3.75-0.18,10.78-2.07,11.96-2.39
			c-1.17,0.31-8.18,2.15-11.81,2.32c-0.67,0.03-1.35,0.05-2.02,0.05c-5.82,0-11.81-1.21-16.93-4.13c-1.76-1-4.53-3.1-5.79-4.08
			c1.27,1.01,4.09,3.18,5.9,4.21C197.79,409,203.7,410.19,209.44,410.19 M428.47,406.29c0.53-0.34,1.04-0.7,1.54-1.08
			c0.29-0.21,0.57-0.43,0.87-0.66c0.81-0.72,1.22-1.08,2.03-1.79c-0.03-0.06-0.05-0.13-0.08-0.19c-0.84,0.98-1.79,1.86-2.82,2.65
			C429.5,405.59,428.99,405.95,428.47,406.29 M282.23,404.25c0.1-0.03,0.19-0.06,0.28-0.09
			C282.42,404.19,282.32,404.22,282.23,404.25 M246.93,408.26c-2.69,0-7.04-2.18-8.05-2.71c1,0.54,5.3,2.78,7.97,2.78
			c0.05,0,0.09,0,0.14,0c6.33-0.19,12.67-0.34,19-0.48c5.02-0.24,13.39-2.72,16.22-3.6c-2.83,0.86-11.18,3.29-16.17,3.53
			c-6.33,0.13-12.65,0.29-18.97,0.47C247.03,408.26,246.98,408.26,246.93,408.26 M322.29,407.96c0.02,0,0.05,0,0.07,0
			c3.9-0.02,7.89-0.44,11.69-1.65c0.36-0.11,0.54-0.17,0.91-0.28c-0.03-0.02-0.05-0.03-0.08-0.05c-4.18,1.23-8.27,1.88-12.57,1.9
			c-0.03,0-0.06,0-0.09,0c-4.73,0-13.31-2.6-15.33-3.23C308.91,405.31,317.54,407.96,322.29,407.96 M346.51,407.84
			c-0.04,0-0.07,0-0.11,0c-2.05-0.05-3.07-0.06-5.13-0.1c-1.47-0.03-4.15-0.79-4.66-0.93c0.52,0.16,3.25,0.98,4.75,1
			c2.05,0.04,3.08,0.06,5.14,0.1c0.03,0,0.07,0,0.1,0c2.56,0,6.78-2.1,7.65-2.55C353.37,405.8,349.09,407.84,346.51,407.84
			 M411.89,410.71c-0.87,0-1.73-0.03-2.58-0.07c-2.91-0.16-8.18-1.33-10.01-1.75c1.85,0.44,7.24,1.66,10.22,1.83
			c0.89,0.05,1.8,0.08,2.72,0.08c4.08,0,8.31-0.55,12.02-2.19c1.47-0.65,2.78-1.37,4.05-2.2c-1.29,0.82-2.66,1.51-4.04,2.09
			C420.33,410.13,416.05,410.71,411.89,410.71 M389.41,409.24c-0.23,0-0.45-0.01-0.67-0.02c-2.08-0.09-3.12-0.13-5.19-0.22
			c-1.13-0.05-3.16-0.54-3.66-0.67c0.51,0.14,2.64,0.69,3.82,0.74c2.08,0.08,3.12,0.13,5.2,0.22c0.19,0.01,0.38,0.01,0.57,0.01
			c1.85,0,3.61-0.4,5.22-1.2c0.35-0.17,0.52-0.26,0.87-0.43c-0.05-0.02-0.09-0.03-0.14-0.05
			C393.77,408.63,391.43,409.24,389.41,409.24 M451.38,412.91c-0.25,0-0.5-0.01-0.75-0.02c-1.97-0.15-2.95-0.22-4.92-0.37
			c-0.74-0.05-2.07-0.33-2.41-0.4c0.36,0.09,1.87,0.44,2.68,0.5c1.97,0.14,2.96,0.22,4.93,0.37c0.3,0.02,0.61,0.04,0.91,0.04
			c2.8,0,5.54-1.02,7.57-3c0.46-0.45,1.17-1.38,1.41-1.7c-0.23,0.28-0.87,1.08-1.26,1.46C457.44,411.9,454.35,412.91,451.38,412.91
			 M142.27,414.27c0.33,0,0.67-0.01,1-0.04c1.97-0.16,2.95-0.25,4.92-0.41c0.95-0.08,2.64-0.52,3.13-0.65
			c-0.46,0.11-2,0.49-2.87,0.56c-1.97,0.16-2.95,0.24-4.92,0.4c-0.38,0.04-0.76,0.06-1.15,0.06c-2.87,0-5.73-1.19-7.77-3.12
			c-0.32-0.31-0.83-0.92-1.06-1.2c0.25,0.32,0.84,1.06,1.22,1.43C136.79,413.26,139.5,414.27,142.27,414.27 M304.03,81.06
			c-14.65,0-28.86,2.87-42.25,8.53c-6.43,2.72-12.63,6.09-18.44,10.01c-5.75,3.89-11.15,8.34-16.05,13.24
			c-4.91,4.91-9.37,10.31-13.24,16.05c-3.92,5.8-7.29,12-10.01,18.44c-5.66,13.39-8.53,27.6-8.53,42.25
			c0,14.64,2.87,28.86,8.53,42.25c2.72,6.44,6.09,12.64,10.01,18.44c0.03,0.04,0.06,0.08,0.08,0.12c-3.38,0.09-6.76,0.95-9.81,2.51
			c-1.69,0.87-3.27,1.94-4.69,3.18c-0.04-0.02-0.09-0.05-0.13-0.07c-8.2-4.39-17.2-6.62-26.75-6.62c-9.69,0-19.13,2.32-27.31,6.71
			c-2.06,1.1-4.1,2.39-6.26,3.95c-2.63-2.04-5.31-3.55-7.54-4.73l-0.1-0.05l-0.03-0.01l-0.04-0.02l-0.07-0.04
			c-6.27-3.07-13.41-4.58-22.47-4.77l-0.06,0l-0.06,0c-4.13,0-8.26,0.01-12.39,0.01c-4.27,0-8.54,0.01-12.81,0.01
			c-5.87,0.01-11.52,2.39-15.92,6.7c-4.24,4.15-6.86,9.6-7.37,15.35c-1.93,21.86-3.86,43.88-5.74,65.46l-0.01,0.17l0,0.17
			c-0.18,7.02,1.63,12.51,5.53,16.79c3.53,3.88,8.95,6.2,14.5,6.2c0.49,0,0.98-0.02,1.46-0.05v0c4.94-0.35,9.5-0.67,13.94-0.98
			c5.94-0.42,11.63-3.17,16.01-7.76c3.37-3.52,5.69-7.82,6.73-12.37c4.26-0.89,8.04-2.06,11.55-3.6c1.08,1.56,2.25,3.07,3.52,4.49
			c-1.68,3.1-2.69,6.32-3.18,10.03l-0.02,0.18l-0.01,0.18c-1.19,18.43-2.23,34.77-3.2,49.95l-0.01,0.18l0,0.18
			c0.01,3.23,0.42,6.07,1.28,8.68c1.03,3.14,2.7,5.88,4.97,8.14c3.61,3.61,8.82,5.67,14.29,5.67c0.61,0,1.22-0.03,1.81-0.08l0,0
			l0.17-0.01c1.86-0.16,2.84-0.24,4.75-0.4c5.61-0.48,11.05-3.03,15.31-7.19c3.19-3.11,5.55-6.94,6.86-11.05
			c1.51-0.36,2.97-0.78,4.36-1.25c3.42,4.32,7.7,7.92,12.58,10.55c6.36,3.42,13.78,5.23,21.46,5.23c0.83,0,1.66-0.02,2.49-0.06
			c7.43-0.37,14.87-2.45,21.66-6.03c3.69,2.68,8.36,4.19,13.11,4.19c0.23,0,0.46,0,0.68-0.01c6.2-0.19,12.58-0.35,18.95-0.49l0.06,0
			l0.06,0c9.01-0.4,16.8-2.43,23.84-6.2c1.43-0.77,2.86-1.65,4.27-2.64c1.23,0.89,2.58,1.79,4.02,2.62
			c7.09,4.07,15.38,6.26,23.95,6.33c0.13,0,0.26,0,0.38,0c3.68,0,7.48-0.44,11.55-1.35c2.26,0.77,4.75,1.2,7.07,1.2l1.01,0.02
			c1.41,0.03,2.4,0.05,4.06,0.08l0.04,0l0.04,0c0.07,0,0.13,0,0.2,0c7.37,0,14.14-3.46,18.2-8.99c1.65,2.26,3.68,4.26,5.99,5.88
			c3.84,2.69,8.22,4.18,12.68,4.3c2.05,0.09,3.08,0.13,5.14,0.22l0.19,0.01l0.19,0c2.27-0.06,4.66-0.19,7.13-0.93
			c4.67,1.37,8.95,2.15,13.03,2.38c1.04,0.06,2.09,0.09,3.11,0.09c5.83,0,11.2-0.97,15.96-2.89c1-0.4,2-0.86,2.96-1.37
			c4.09,3.53,9.12,5.71,14.33,6.12l0.01,0l0.01,0c1.92,0.14,2.91,0.22,4.85,0.37c0.61,0.06,1.24,0.09,1.87,0.09
			c5.22,0,10.38-2.06,14.15-5.65c4.19-4,6.31-9.67,6.3-16.86l0-0.18l-0.01-0.18c-0.51-7.47-1.02-14.95-1.53-22.42
			c3.25-0.99,6.23-2.72,8.48-4.99c3.65-3.69,5.86-9.15,6-14.66c0.34,0.06,0.7,0.11,1.06,0.16l0.21,0.03l0.21,0.01
			c15.47,0.9,31.14,1.92,46.59,3.03c0.56,0.05,1.13,0.08,1.7,0.08c5.26,0,10.57-2.3,14.22-6.14c3.89-4.11,5.74-9.81,5.49-16.95
			l-0.01-0.17l-0.02-0.16c-0.37-3.79-0.73-7.58-1.1-11.37l-0.1-1.05c-0.35-4.17-1.93-8.55-4.46-12.32c-0.52-0.77-1.08-1.52-1.7-2.24
			c-0.02-0.33-0.04-0.66-0.08-0.99c-0.37-3.9-0.75-7.81-1.12-11.73c-0.04-0.42-0.09-0.85-0.16-1.27c2.37-4.59,2.54-9.13,2.44-12.3
			l-0.01-0.18l-0.02-0.18c-0.19-1.97-0.38-3.95-0.58-5.92c-0.19-1.98-0.38-3.95-0.58-5.93c-0.57-5.8-3.43-11.6-7.66-15.53
			c-4.39-4.08-10.04-6.42-15.5-6.42c-0.11,0-0.21,0-0.32,0c-14.65-0.01-29.3-0.02-43.95-0.03h-0.03c-4.02,0-7.88,1.09-11.21,3.15
			c-6.93-2.77-14.28-4.18-21.85-4.18h-0.02c-9.47,0-18.39,2.22-26.51,6.59c-0.03,0.02-0.07,0.04-0.1,0.05
			c-4.14-3.59-9.5-5.65-15.05-5.66c-2.25,0-4.5,0-6.74,0c-1.61,0-3.22,0-4.83,0c0.03-0.04,0.05-0.08,0.08-0.11
			c3.92-5.8,7.29-12.01,10.01-18.44c5.66-13.39,8.53-27.6,8.53-42.25c0-14.64-2.87-28.86-8.53-42.25
			c-2.72-6.43-6.09-12.64-10.01-18.44c-3.89-5.75-8.34-11.15-13.25-16.05c-4.91-4.91-10.31-9.36-16.05-13.24
			c-5.81-3.92-12.01-7.29-18.44-10.01C332.89,83.93,318.68,81.06,304.03,81.06L304.03,81.06z"/>
	</g>
	<circle class="st3" cx="304.03" cy="189.58" r="95.67"/>
	<path class="st2" d="M350.31,273.33c-13.71,7.6-29.49,11.92-46.28,11.92c-21.93,0-42.13-7.38-58.27-19.78
		c-1.74,1.79-3.49,3.58-5.23,5.37c1.9,1.49,3.84,2.91,5.83,4.25c5.51,3.73,11.41,6.92,17.52,9.51c12.72,5.38,26.22,8.11,40.14,8.11
		c13.92,0,27.42-2.73,40.14-8.11c3.14-1.33,6.22-2.82,9.22-4.46C352.37,277.87,351.34,275.6,350.31,273.33z M230.94,262.32
		c0.06,0.06,0.12,0.12,0.18,0.18c2.02,2.02,4.13,3.96,6.32,5.81C236.37,265.43,233.91,263.22,230.94,262.32z M355.75,270.08
		c0.2,0.44,0.4,0.88,0.6,1.32c0.32-0.78,0.64-1.56,0.95-2.35C356.8,269.4,356.28,269.74,355.75,270.08z M373.96,261.87
		c-3.84-0.01-7.89,2.3-9.27,6.02c-0.96,2.37-1.92,4.75-2.88,7.12c5.42-3.67,10.51-7.88,15.14-12.51c0.21-0.21,0.41-0.41,0.61-0.62
		C376.36,261.88,375.16,261.88,373.96,261.87z"/>
	<path class="st2" d="M372.78,195.47c-1.44,2.18-3.31,3.91-5.72,4.95c-8.86,3.84-17.75,7.6-26.69,11.25
		c-1.92,0.78-3.74,1.72-4.82,3.62c-0.36,0.64-0.85,1.12-1.51,1.43c-2.11,1-4.21,2.02-6.33,3.01c-0.68,0.31-1.05,0.79-1.2,1.53
		c-0.61,3.09-1.23,6.18-1.89,9.27c-1.03,4.8-1.65,9.7-3.3,14.36c-0.12,0.34-0.06,0.65,0.12,0.95c0.8,1.29,1.52,2.64,2.45,3.84
		c3.64,4.74,7.28,9.47,10.96,14.18c1.83,2.34,3.71,4.65,5.33,7.16c0.98,1.52,1.69,3.17,2.5,4.77c0,0.01,0,0.01,0.01,0.01
		c0.03,0.07,0.06,0.13,0.1,0.19c0.06,0.12,0.13,0.23,0.2,0.3l0.32,0.55c-11.98,5.4-25.27,8.4-39.26,8.4h-0.21c-0.14,0-0.27,0-0.41,0
		c-29.89-0.19-56.52-14.08-73.93-35.71l1.34-0.56l0.01-0.01c3.05-1.05,6.1-2.11,9.2-3.01c1.82-0.53,3.67-0.94,5.42-1.7
		c1.01-0.45,1.96-0.97,2.7-1.85c3.15-3.73,6.53-7.23,10.63-9.96c0.33-0.22,0.54-0.51,0.61-0.9c0.07-0.39,0.14-0.78,0.21-1.17
		c1.19-6.97,3.17-13.69,6.35-20.04c1.11-2.21,2.38-4.33,3.79-6.35c0.33-0.48,0.47-0.9,0.08-1.44c-1.49-2.03-2.46-4.32-3.17-6.72
		c-0.41-1.41-0.68-1.5-1.9-0.61c-1.19,0.87-1.85,2.12-2.31,3.47c-0.59,1.71-0.73,3.49-0.87,5.27c-0.1,1.37,0.17,1.43-1.61,1.31
		c-3.07-0.2-5.61,0.86-7.63,3.18c-1.69,1.93-2.92,4.13-3.91,6.48c-1.84,4.34-2.77,8.91-3.41,13.56c-0.23,1.63-0.4,3.26-0.62,5.05
		c-0.11-0.27-0.18-0.4-0.21-0.53c-0.4-1.85-0.74-3.72-0.96-5.6c-0.59-5.04-0.74-10.11-0.96-15.17c-0.06-1.28-0.13-2.55-0.2-3.83
		c-0.01-0.15,0.04-0.35-0.13-0.41c-0.21-0.08-0.29,0.15-0.39,0.28c-0.93,1.26-1.78,2.57-2.53,3.95c-3.04,5.62-4.68,11.68-5.52,17.98
		c-0.15,1.15-0.26,2.3-0.41,3.6c-0.15-0.19-0.19-0.22-0.2-0.26c-0.09-0.23-0.17-0.46-0.25-0.68c-1.71-5.12-2.47-10.41-2.65-15.79
		c-0.18-5.23,0.17-10.44,0.97-15.62c1.69-11.02,4.76-21.64,9.14-31.9c0.49-1.15,0.96-1.35,2.12-0.84c1.76,0.78,3.61,1.29,5.47,1.74
		c4.07,0.97,8.21,1.4,12.38,1.56c3.05,0.11,5.36-1.39,6.86-3.87c2.27-3.76,4.56-7.5,7.45-10.82c3.45-3.97,7.62-7.13,11.93-10.1
		c1.14-0.79,2.44-1.38,3.4-2.4c2.26-2.4,4.74-4.54,7.29-6.61c0.95-0.76,1.93-1.08,3.12-0.93c1.36,0.17,2.73,0.13,4.1,0.07
		c1.22-0.05,2.38-0.33,3.48-0.94c1.69-0.94,3.21-2.1,4.61-3.41c0.87-0.81,1.78-1.58,2.76-2.26c7.46-5.15,14.91-10.3,22.36-15.45
		c0.83-0.58,1.67-1.16,2.49-1.74c0.66-0.47,1.3-0.46,1.94,0.03c0.44,0.34,0.9,0.64,1.34,0.97c0.38,0.28,0.79,0.49,1.26,0.56
		c1.21,0.18,2.26,0.73,3.23,1.44c1.21,0.89,2.34,1.88,3.44,2.89c3.57,3.27,6.69,6.95,9.62,10.8c2.01,2.65,2.12,5.23,0.27,7.78
		c-0.14,0.19-0.29,0.39-0.46,0.58c-0.23,0.27-0.45,0.55-0.73,0.77c-0.7,0.56-0.84,1.28-0.74,2.13c0.11,0.98,0.15,1.98,0.22,2.96
		c0.04,0.49-0.16,0.67-0.67,0.6c-0.94-0.14-1.88-0.21-2.82-0.34c-0.74-0.1-1.37,0.1-1.98,0.54c-2.27,1.68-4.56,3.32-6.85,4.98
		c-0.63,0.46-1.06,1.05-1.29,1.79c-0.22,0.72-0.45,1.43-0.71,2.13c-0.29,0.81-0.36,0.83-1.14,0.53c-0.27-0.11-0.53-0.22-0.8-0.33
		c-0.65-0.27-0.74-0.21-0.79,0.52c-0.04,0.62-0.08,1.23-0.11,1.85c-0.03,0.49-0.28,0.59-0.71,0.42c-0.66-0.26-1.34-0.46-1.97-0.77
		c-0.17-0.08-0.33-0.14-0.48-0.18c-0.54-0.12-1,0.06-1.47,0.53c-1.37,1.37-2.74,2.75-4.13,4.1c-0.57,0.56-1.14,1.1-1.72,1.64
		c-0.78,0.73-1.29,1.62-1.22,2.75c0.02,0.4-0.14,0.61-0.56,0.65c-1.28,0.14-1.28,0.15-1.28,1.45c0,0.11,0,0.22,0,0.33
		c0.03,0.56-0.21,0.88-0.78,0.93c-0.26,0.02-0.52,0.07-0.79,0.09c-0.72,0.07-1.23,0.41-1.54,1.08c-0.26,0.56-0.57,1.1-0.83,1.65
		c-0.31,0.65-0.45,1.33-0.21,2.05c0.29,0.86,0.28,0.9-0.63,1.02c-0.76,0.1-1.21,0.47-1.49,1.19c-0.52,1.34-1.11,2.64-1.66,3.97
		c-0.09,0.22-0.29,0.47-0.12,0.68c0.17,0.21,0.46,0.08,0.69,0.03c1.53-0.26,3.06-0.28,4.6-0.04c2.46,0.39,4.49,1.65,6.47,3.03
		c2.05,1.43,3.84,3.17,5.57,4.96c0.43,0.45,0.85,0.8,1.54,0.69c3.01-0.47,6.01-0.91,9.02-1.36c0.55-0.08,0.99-0.34,1.32-0.79
		c0.01-0.02,0.03-0.04,0.04-0.06c0.43-0.58,0.86-1.17,1.3-1.74c0.52-0.68,0.58-0.68,1.23-0.09c0.11,0.11,0.23,0.21,0.34,0.32
		c0.34,0.36,0.7,0.58,1.11,0.67c0.37,0.09,0.77,0.06,1.23-0.06c1.67-0.46,3.36-0.86,5.05-1.27c0.67-0.16,1.34-0.33,2.01-0.51
		c2.47-0.64,2.45-0.13,3.51-2.72c0.16-0.39,0.38-0.42,0.72-0.21c0.93,0.59,1.97,0.85,3.06,0.96c0.8,0.08,1.58,0.05,2.38-0.02
		c0.04,0,0.08-0.01,0.12-0.01h0c0.78-0.06,0.87,0.04,1,0.87c0.37,2.33,0.76,4.66,1.09,6.99
		C374.2,191.92,373.89,193.79,372.78,195.47z"/>
	<g>
		<path class="st2" d="M257.36,298.32c2.69,3.45,5.37,6.9,8.06,10.35c0.08-6.39,0.15-12.79,0.23-19.18
			C262.88,292.43,260.12,295.37,257.36,298.32z M257.36,298.32c2.69,3.45,5.37,6.9,8.06,10.35c0.08-6.39,0.15-12.79,0.23-19.18
			C262.88,292.43,260.12,295.37,257.36,298.32z M257.36,298.32c2.69,3.45,5.37,6.9,8.06,10.35c0.08-6.39,0.15-12.79,0.23-19.18
			C262.88,292.43,260.12,295.37,257.36,298.32z M257.36,298.32c2.69,3.45,5.37,6.9,8.06,10.35c0.08-6.39,0.15-12.79,0.23-19.18
			C262.88,292.43,260.12,295.37,257.36,298.32z M257.36,298.32c2.69,3.45,5.37,6.9,8.06,10.35c0.08-6.39,0.15-12.79,0.23-19.18
			C262.88,292.43,260.12,295.37,257.36,298.32z M257.36,298.32c2.69,3.45,5.37,6.9,8.06,10.35c0.08-6.39,0.15-12.79,0.23-19.18
			C262.88,292.43,260.12,295.37,257.36,298.32z M257.36,298.32c2.69,3.45,5.37,6.9,8.06,10.35c0.08-6.39,0.15-12.79,0.23-19.18
			C262.88,292.43,260.12,295.37,257.36,298.32z M257.36,298.32c2.69,3.45,5.37,6.9,8.06,10.35c0.08-6.39,0.15-12.79,0.23-19.18
			C262.88,292.43,260.12,295.37,257.36,298.32z M257.36,298.32c2.69,3.45,5.37,6.9,8.06,10.35c0.08-6.39,0.15-12.79,0.23-19.18
			C262.88,292.43,260.12,295.37,257.36,298.32z M257.36,298.32c2.69,3.45,5.37,6.9,8.06,10.35c0.08-6.39,0.15-12.79,0.23-19.18
			C262.88,292.43,260.12,295.37,257.36,298.32z M257.36,298.32c2.69,3.45,5.37,6.9,8.06,10.35c0.08-6.39,0.15-12.79,0.23-19.18
			C262.88,292.43,260.12,295.37,257.36,298.32z M137.98,340.09c1.07,0.88,2.2,1.7,3.38,2.47c1.47-1.13,3.18-1.93,5.01-2.25
			c-1.58-0.87-3.08-1.83-4.48-2.89C140.48,338.11,139.16,339.02,137.98,340.09z M257.36,298.32c2.69,3.45,5.37,6.9,8.06,10.35
			c0.08-6.39,0.15-12.79,0.23-19.18C262.88,292.43,260.12,295.37,257.36,298.32z M257.36,298.32c2.69,3.45,5.37,6.9,8.06,10.35
			c0.08-6.39,0.15-12.79,0.23-19.18C262.88,292.43,260.12,295.37,257.36,298.32z M257.36,298.32c2.69,3.45,5.37,6.9,8.06,10.35
			c0.08-6.39,0.15-12.79,0.23-19.18C262.88,292.43,260.12,295.37,257.36,298.32z M257.36,298.32c2.69,3.45,5.37,6.9,8.06,10.35
			c0.08-6.39,0.15-12.79,0.23-19.18C262.88,292.43,260.12,295.37,257.36,298.32z M257.36,298.32c2.69,3.45,5.37,6.9,8.06,10.35
			c0.08-6.39,0.15-12.79,0.23-19.18C262.88,292.43,260.12,295.37,257.36,298.32z M257.36,298.32c2.69,3.45,5.37,6.9,8.06,10.35
			c0.08-6.39,0.15-12.79,0.23-19.18C262.88,292.43,260.12,295.37,257.36,298.32z M257.36,298.32c2.69,3.45,5.37,6.9,8.06,10.35
			c0.08-6.39,0.15-12.79,0.23-19.18C262.88,292.43,260.12,295.37,257.36,298.32z M257.36,298.32c2.69,3.45,5.37,6.9,8.06,10.35
			c0.08-6.39,0.15-12.79,0.23-19.18C262.88,292.43,260.12,295.37,257.36,298.32z M257.36,298.32c2.69,3.45,5.37,6.9,8.06,10.35
			c0.08-6.39,0.15-12.79,0.23-19.18C262.88,292.43,260.12,295.37,257.36,298.32z M257.36,298.32c2.69,3.45,5.37,6.9,8.06,10.35
			c0.08-6.39,0.15-12.79,0.23-19.18C262.88,292.43,260.12,295.37,257.36,298.32z M257.36,298.32c2.69,3.45,5.37,6.9,8.06,10.35
			c0.08-6.39,0.15-12.79,0.23-19.18C262.88,292.43,260.12,295.37,257.36,298.32z M257.36,298.32c2.69,3.45,5.37,6.9,8.06,10.35
			c0.08-6.39,0.15-12.79,0.23-19.18C262.88,292.43,260.12,295.37,257.36,298.32z"/>
	</g>
	<g>
		<path class="st2" d="M141.89,337.42c-1.42,0.7-2.74,1.6-3.91,2.67c1.07,0.88,2.2,1.7,3.38,2.47c1.47-1.13,3.18-1.93,5.01-2.25
			C144.79,339.44,143.29,338.48,141.89,337.42z"/>
		<path class="st2" d="M141.47,345.47l-1.42-0.92c-1.23-0.8-2.44-1.68-3.58-2.62l-2.14-1.75l2.04-1.86
			c1.35-1.23,2.85-2.25,4.46-3.04l1.32-0.65l1.17,0.89c1.29,0.98,2.7,1.89,4.18,2.7l5.93,3.24l-6.65,1.19
			c-1.41,0.25-2.78,0.87-3.98,1.79L141.47,345.47z"/>
	</g>
	<path class="st2" d="M534.22,353.49c-15.57-1.09-31.15-2.08-46.73-2.97c-4.18-0.25-8.37-2.34-11.18-5.43
		c-0.16,0.09-0.32,0.17-0.48,0.25c1,1.88,1.69,4.32,1.81,6.44c0.13,1.79,0.2,2.68,0.33,4.47c0.61,7.94-5.52,15.35-13.82,14.63
		c-0.44-0.03-0.66-0.04-1.1-0.07c0.68,9.86,1.35,19.73,2.03,29.59c0.58,8.09-5.65,15.69-14.16,14.81c-1.97-0.15-2.96-0.23-4.93-0.37
		c-5.59-0.43-10.62-3.9-13.52-8.62c-2.13,1.87-4.59,3.35-7.21,4.42c-5.04,2.07-10.51,2.57-15.74,2.27
		c-4.63-0.27-9.16-1.33-13.7-2.86c-1.97,1.03-4.7,1.57-6.92,1.41c-2.08-0.09-3.12-0.14-5.2-0.22c-6.17-0.13-11.77-4.38-14.32-9.84
		c-0.69-1.52-1.03-2.28-1.72-3.8c-2.36-0.07-3.54-0.11-5.9-0.17c-0.6,1.48-0.9,2.22-1.5,3.7c-2.12,5.59-7.93,9-13.77,8.94
		c-2.05-0.04-3.08-0.07-5.14-0.11c-2.14,0.01-4.68-0.61-6.58-1.6c-4.14,1.13-8.18,1.71-12.43,1.75c-6.94,0.07-14.19-1.81-20.12-5.3
		c-2.84-1.67-5.4-3.66-7.86-5.93c-2.52,2.25-5.11,4.18-8,5.86c-6.14,3.57-13.28,4.95-20.39,5.27c-6.34,0.13-12.67,0.29-19,0.48
		c-3.59,0.2-7.27-1.2-9.95-3.48c-0.94-0.8-1.77-1.75-2.46-2.78c-0.94,0.68-1.92,1.33-2.91,1.94c-6.04,3.72-13.25,5.91-20.22,6.16
		c-7.01,0.25-13.85-0.99-19.92-4.29c-5.65-3.06-9.98-7.61-13.39-13.34c-4.37,2.28-9.02,3.47-13.87,4.21c0,0.04,0,0.06-0.01,0.09
		c-0.45,8.49-7.48,16.33-16.07,17.05c-1.97,0.16-2.96,0.24-4.92,0.41c-8.43,0.74-14.94-6.57-14.21-14.83
		c1.07-16.63,2.13-33.25,3.2-49.88c0.2-4.4,2.49-8.76,5.71-11.69c1.07,0.88,2.2,1.7,3.38,2.47c-2.83,2.07-4.54,5.55-4.84,8.99
		c-1.04,16.58-2.08,33.17-3.12,49.75c-0.28,5.71,4.02,11.3,10.15,10.58c1.97-0.16,2.95-0.24,4.92-0.4
		c6.01-0.6,11.3-6.06,11.48-12.17c0.1-1.81,0.14-2.71,0.24-4.52c0.64-0.04,0.96-0.06,1.6-0.11c6.62-0.63,12.95-2.26,18.44-6.17
		c0.41,1.04,0.87,2.06,1.39,3.05c2.74,5.29,7,9.64,12.23,12.48c5.42,2.95,11.7,4.21,17.75,3.83c6.33-0.4,12.47-2.09,18.01-5.45
		c2.5-1.52,4.83-3.33,6.91-5.38c0.64,5.27,5.25,9.21,10.56,9.04c6.32-0.18,12.65-0.34,18.97-0.47c6.42-0.3,12.61-1.59,18.27-4.69
		c3.85-2.1,7.38-5.06,10.11-8.51c2.66,3.5,6.16,6.43,9.96,8.6c5.44,3.11,11.76,4.76,17.92,4.71c4.41-0.04,8.57-0.76,12.83-2.15
		c1.63,1.2,4.12,2.01,6.14,1.99c2.05,0.04,3.08,0.06,5.13,0.1c4.19,0.22,8.26-2.55,9.83-6.38c0.86-2.1,1.71-4.2,2.56-6.3
		c3.86,0.1,7.72,0.21,11.58,0.32c0.98,2.16,1.97,4.32,2.95,6.47c1.68,3.99,5.94,6.83,10.22,7.02c2.08,0.08,3.11,0.13,5.19,0.22
		c2.07,0.16,4.72-0.6,6.37-1.88c0.15,0.06,0.29,0.13,0.44,0.19c4.45,1.74,9.08,2.85,13.77,3.11c4.61,0.26,9.5-0.22,13.95-2
		c4.09-1.64,7.82-4.66,10.03-8.51c0.29-0.49,0.55-1,0.79-1.52c0.04,0.75,0.06,1.13,0.11,1.88c0.44,5.91,5.36,11.71,11.53,12
		c1.97,0.14,2.95,0.21,4.92,0.36c5.9,0.36,10.7-4.64,10.11-10.57c-0.76-11.31-1.51-22.62-2.27-33.93c2.15,0.12,3.22,0.18,5.37,0.31
		c5.76,0.25,10.49-4.63,9.88-10.44c-0.13-1.79-0.19-2.68-0.32-4.46c-0.12-1.6-0.56-3.14-1.25-4.53c0,0-0.81-2.51-2.43-3.75
		c1.62-0.79,2.43-1.19,4.05-1.98c1.15-0.61,2.26-1.28,3.31-2.01c1.82,3.77,5.89,6.59,10.08,6.83c15.56,0.84,31.11,1.78,46.65,2.82
		c5.89,0.31,10.23-4.93,9.49-10.69c-0.39-4.13-0.79-8.26-1.19-12.39c-0.42-4.2-3.08-8.45-6.92-10.36c0.62-1.5,0.88-3.23,0.71-5.09
		c-0.37-3.89-0.74-7.78-1.11-11.68c-0.17-1.75-0.71-3.41-1.54-4.88c2.72-2.03,4.28-5.56,3.83-8.96c-0.38-3.93-0.76-7.87-1.13-11.8
		c-0.41-5.73-5.58-10.56-11.27-10.69c-14.69-0.08-29.38-0.15-44.07-0.21c-3.72-0.02-7.55,2.26-8.85,5.86
		c-1.9-1.27-4.03-2.44-6.12-3.3c-5.88-2.44-11.92-3.67-18.18-3.69c-7.15-0.03-14.59,1.5-20.89,5.12c-3.74,2.15-6.96,4.81-9.97,8.03
		c-0.05-0.91-0.07-1.36-0.12-2.27c-0.32-5.58-5.26-9.96-10.78-9.98c-4.5-0.01-9-0.02-13.5-0.03c-0.83,0-1.64,0.1-2.41,0.28
		c-0.79-0.18-1.6-0.28-2.42-0.29c-4.47-0.01-8.94-0.02-13.42-0.02c-3.84-0.01-7.89,2.3-9.27,6.02c-2.64,6.54-5.29,13.08-7.94,19.62
		c-2.97-6.54-5.94-13.08-8.91-19.62c-1.65-3.6-5.63-6.17-9.62-6.06c-4.86,0-9.72-0.01-14.58-0.01c-0.56,0-1.11,0.05-1.65,0.13
		c-0.55-0.08-1.11-0.13-1.68-0.13c-14.69,0-29.38,0-44.08,0.01c-1.31,0-2.56,0.24-3.72,0.67c-1.16-0.43-2.41-0.66-3.7-0.66
		c-5,0-10,0.01-15,0.02c-2.85,0.01-5.63,1.16-7.63,3.2c-2.75,2.82-5.49,5.63-8.23,8.45c0.02-0.72,0.03-1.08,0.04-1.81
		c0.13-5.52-4.62-9.82-10.01-9.8c-4.47,0.01-8.94,0.02-13.41,0.03c-5.49,0.02-10.4,4.37-10.63,9.94c-0.04,0.97-0.06,1.45-0.09,2.42
		c-2.88-3.25-6.43-6.03-10.19-8.11c-6.44-3.56-13.95-5.17-21.11-5.15c-7.52,0.02-14.91,1.83-21.67,5.36
		c-4.81,2.5-9.19,6.11-12.73,10.31c-2.92-4.89-7.11-8.2-12.08-10.82c0,0,0,0,0,0c-5.53-2.64-11.49-3.46-17.56-3.58
		c-8.41,0.04-16.83,0.08-25.24,0.13c-5.84-0.12-10.6,5.17-11.17,10.71c-1.89,21.71-3.77,43.42-5.64,65.14
		c-0.41,5.54,3.52,11.31,9.59,10.68c4.65-0.31,9.29-0.61,13.94-0.91c5.9-0.49,11.11-5.81,11.42-11.77c0.17-2.31,0.35-4.63,0.52-6.94
		c0.62-0.03,0.93-0.04,1.54-0.07c6.44-0.46,12.67-1.71,18.48-4.62c2.67-1.34,5.2-2.98,7.49-4.9c0.62,1.89,1.37,3.73,2.27,5.49
		c2.43,4.77,5.9,9,10.18,12.22c-1.42,0.7-2.74,1.6-3.91,2.67c-4.2-3.43-7.6-7.77-10.05-12.59c-0.2-0.4-0.4-0.82-0.6-1.23
		c-1.25,0.79-2.55,1.55-3.88,2.2c-5.6,2.72-11.38,4.2-17.64,4.97c-0.08,1.04-0.11,1.55-0.19,2.59c-0.61,8.12-7.57,16.1-15.99,16.5
		c-4.65,0.31-9.31,0.63-13.96,0.96c-8.36,0.62-14.32-6.96-13.43-14.97c1.9-21.78,3.82-43.56,5.74-65.34
		c0.55-7.94,7.62-14.93,15.64-14.96c8.4-0.02,16.8-0.04,25.2-0.06c6.64,0.14,13.16,1.08,19.21,3.97c0.01,0.01,0.02,0.01,0.03,0.01
		c0.01,0.01,0.02,0.01,0.03,0.02c4.05,1.89,7.78,4.71,10.68,8.11c3.22-2.88,6.62-5.43,10.32-7.42c7.24-3.89,15.43-5.81,23.66-5.82
		c7.85-0.01,16.01,1.78,23.06,5.67c1.87,1.03,3.77,2.24,5.46,3.57c2.5-5.03,7.82-8.27,13.43-8.28c4.46,0,8.93-0.01,13.39-0.01
		c5.07-0.01,9.98,2.69,12.44,7.18c1.07-1.1,1.61-1.65,2.68-2.74c2.78-2.72,6.72-4.55,10.67-4.45c4.99,0,9.98,0,14.97-0.01
		c1.26,0,2.49,0.15,3.69,0.46c1.21-0.31,2.45-0.46,3.71-0.46c14.67,0,29.33-0.01,44,0c0.55,0,1.12,0.03,1.68,0.09
		c0.56-0.06,1.11-0.09,1.65-0.09c4.85,0,9.71,0,14.56,0c2.83,0,5.63,0.81,8.03,2.31c2.36,1.48,4.28,3.62,5.44,6.16
		c1.63,3.57,3.25,7.14,4.88,10.7c1.46-3.58,2.91-7.16,4.37-10.75c2.12-5.21,7.41-8.41,12.96-8.41c4.46,0,8.93,0.01,13.39,0.01
		c0.8,0,1.61,0.07,2.41,0.2c0.79-0.13,1.6-0.2,2.41-0.2c4.49,0,8.98,0.01,13.47,0.01c5.6,0.01,10.91,3.24,13.5,8.21
		c1.66-1.31,3.51-2.52,5.36-3.53c7.1-3.87,14.97-5.64,22.82-5.63c6.8,0.01,13.54,1.34,19.86,4.01c1.05,0.44,2.1,0.97,3.13,1.51
		c0.72-0.82,1.55-1.55,2.47-2.17c2.24-1.51,4.92-2.29,7.62-2.28c14.67,0.03,29.33,0.06,44,0.09c8.13-0.15,15,7.14,15.77,14.94
		c0.39,3.94,0.77,7.89,1.15,11.83c0.46,3.66-0.7,7.53-2.98,10.4c0.36,1.13,0.59,2.3,0.71,3.49c0.37,3.9,0.75,7.81,1.12,11.71
		c0.11,1.13,0.1,2.26-0.03,3.36c1.17,1.02,2.22,2.21,3.12,3.53c1.74,2.55,2.84,5.53,3.15,8.6c0.4,4.14,0.8,8.29,1.21,12.43
		C548.28,346.34,542.72,354.33,534.22,353.49z"/>
	<path class="st2" d="M353.7,265.56c-1.4-3.07-3.67-5.47-6.27-7.11c-2.76-1.73-5.79-2.43-9.29-2.67c-4.85,0-9.71,0-14.56,0
		c-0.53,0-1.08,0.03-1.65,0.08c-0.57-0.05-1.14-0.08-1.67-0.08h-44c-1.25,0-2.49,0.13-3.7,0.4c-1.21-0.26-2.45-0.4-3.7-0.4
		c-4.99,0-9.98,0-14.97,0c-4.49,0-9.24,1.83-12.34,5.14c-0.23,0.24-0.37,0.38-0.58,0.59c1.56,1.37,3.16,2.68,4.8,3.95
		c0.14-0.14,0.27-0.28,0.41-0.42c2-2.04,4.78-3.18,7.63-3.2c5,0,10-0.01,14.99-0.02c1.29,0,2.54,0.23,3.7,0.66
		c1.15-0.43,2.41-0.66,3.71-0.66c14.69-0.01,29.38-0.01,44.08-0.01c0.57,0,1.13,0.05,1.68,0.13c0.54-0.08,1.1-0.13,1.65-0.13
		c4.86,0,9.72,0,14.58,0.01c4-0.11,7.97,2.46,9.63,6.06c0.82,1.81,1.65,3.62,2.47,5.44c1.85-1.03,3.67-2.11,5.45-3.26
		C355.07,268.57,354.38,267.06,353.7,265.56z M237.99,271.69c-0.02,0.72-0.03,1.08-0.04,1.81c0.86-0.89,1.73-1.77,2.59-2.66
		c-1.05-0.82-2.09-1.66-3.11-2.52C237.82,269.36,238.01,270.5,237.99,271.69z M361.69,275.09c-2.68,1.81-5.45,3.5-8.29,5.05
		c1.12,2.46,2.23,4.92,3.35,7.38c1.69-4.17,3.38-8.34,5.06-12.5C361.77,275.03,361.73,275.06,361.69,275.09z M358.72,265.59
		c-0.47,1.16-0.94,2.31-1.41,3.47c5.73-3.85,11.02-8.3,15.77-13.26C366.9,255.96,361.12,259.89,358.72,265.59z M361.69,275.09
		c-2.68,1.81-5.45,3.5-8.29,5.05c1.12,2.46,2.23,4.92,3.35,7.38c1.69-4.17,3.38-8.34,5.06-12.5
		C361.77,275.03,361.73,275.06,361.69,275.09z"/>
	<path class="st3" d="M543.28,338.24c-0.39-4.13-0.79-8.26-1.19-12.39c-0.42-4.2-3.08-8.45-6.92-10.36c0.62-1.5,0.88-3.23,0.71-5.09
		c-0.37-3.89-0.74-7.78-1.11-11.68c-0.17-1.75-0.71-3.41-1.54-4.88c2.72-2.03,4.28-5.56,3.83-8.96c-0.38-3.93-0.76-7.87-1.13-11.8
		c-0.41-5.73-5.58-10.56-11.27-10.69c-14.69-0.08-29.38-0.15-44.07-0.21c-3.72-0.02-7.55,2.26-8.85,5.86
		c-1.9-1.27-4.03-2.44-6.12-3.3c-5.88-2.44-11.92-3.67-18.18-3.69c-7.15-0.03-14.59,1.5-20.89,5.12c-3.74,2.15-6.96,4.81-9.97,8.03
		c-0.05-0.91-0.07-1.36-0.12-2.27c-0.32-5.58-5.26-9.96-10.78-9.98c-4.5-0.01-9-0.02-13.5-0.03c-0.83,0-1.64,0.1-2.41,0.28
		c-0.79-0.18-1.6-0.28-2.42-0.29c-4.47-0.01-8.94-0.02-13.42-0.02c-3.84-0.01-7.89,2.3-9.27,6.02c-2.64,6.54-5.29,13.08-7.94,19.62
		c-2.97-6.54-5.94-13.08-8.91-19.62c-1.65-3.6-5.63-6.17-9.62-6.06c-4.86,0-9.72-0.01-14.58-0.01c-0.56,0-1.11,0.05-1.65,0.13
		c-0.55-0.08-1.11-0.13-1.68-0.13c-14.69,0-29.38,0-44.08,0.01c-1.31,0-2.56,0.24-3.72,0.67c-1.16-0.43-2.41-0.66-3.7-0.66
		c-5,0-10,0.01-15,0.02c-2.85,0.01-5.63,1.16-7.63,3.2c-2.75,2.82-5.49,5.63-8.23,8.45c0.02-0.72,0.03-1.08,0.04-1.81
		c0.13-5.52-4.62-9.82-10.01-9.8c-4.47,0.01-8.94,0.02-13.41,0.03c-5.49,0.02-10.4,4.37-10.63,9.94c-0.04,0.97-0.06,1.45-0.09,2.42
		c-2.88-3.25-6.43-6.03-10.19-8.11c-6.44-3.56-13.95-5.17-21.11-5.15c-7.52,0.02-14.91,1.83-21.67,5.36
		c-4.81,2.5-9.19,6.11-12.73,10.31c-2.92-4.89-7.11-8.2-12.08-10.82c0,0,0,0,0,0c-5.53-2.64-11.49-3.46-17.56-3.58
		c-8.41,0.04-16.83,0.08-25.24,0.13c-5.84-0.12-10.6,5.17-11.17,10.71c-1.89,21.71-3.77,43.42-5.64,65.14
		c-0.41,5.54,3.52,11.31,9.59,10.68c4.65-0.31,9.29-0.61,13.94-0.91c5.9-0.49,11.11-5.81,11.42-11.77c0.17-2.31,0.35-4.63,0.52-6.94
		c0.62-0.03,0.93-0.04,1.54-0.07c6.44-0.46,12.67-1.71,18.48-4.62c2.67-1.34,5.2-2.98,7.49-4.9c0.62,1.89,1.37,3.73,2.27,5.49
		c2.43,4.77,5.91,8.99,10.18,12.22c1.4,1.06,2.9,2.02,4.48,2.89c-1.83,0.33-3.55,1.15-5.01,2.25c-2.77,2.08-4.54,5.55-4.84,8.99
		c-1.04,16.58-2.08,33.17-3.12,49.75c-0.28,5.71,4.02,11.3,10.15,10.58c1.97-0.16,2.95-0.24,4.92-0.4
		c6.01-0.6,11.3-6.06,11.48-12.17c0.1-1.81,0.14-2.71,0.24-4.52c0.64-0.04,0.96-0.06,1.6-0.11c6.62-0.63,12.95-2.26,18.44-6.17
		c0.41,1.04,0.87,2.06,1.39,3.05c2.74,5.29,7,9.64,12.23,12.48c5.42,2.95,11.7,4.21,17.75,3.83c6.33-0.4,12.47-2.09,18.01-5.45
		c2.5-1.52,4.83-3.33,6.91-5.38c0.64,5.27,5.25,9.21,10.56,9.04c6.32-0.18,12.65-0.34,18.97-0.47c6.42-0.3,12.61-1.59,18.27-4.69
		c3.85-2.1,7.38-5.06,10.11-8.51c2.66,3.5,6.16,6.43,9.96,8.6c5.44,3.11,11.76,4.76,17.92,4.71c4.41-0.04,8.57-0.76,12.83-2.15
		c1.63,1.2,4.12,2.01,6.14,1.99c2.05,0.04,3.08,0.06,5.13,0.1c4.19,0.22,8.26-2.55,9.83-6.38c0.86-2.1,1.71-4.2,2.56-6.3
		c3.86,0.1,7.72,0.21,11.58,0.32c0.98,2.16,1.97,4.32,2.95,6.47c1.68,3.99,5.94,6.83,10.22,7.02c2.08,0.08,3.11,0.13,5.19,0.22
		c2.07,0.16,4.72-0.6,6.37-1.88c0.15,0.06,0.29,0.13,0.44,0.19c4.45,1.74,9.08,2.85,13.77,3.11c4.61,0.26,9.5-0.22,13.95-2
		c4.09-1.64,7.82-4.66,10.03-8.51c0.29-0.49,0.55-1,0.79-1.52c0.04,0.75,0.06,1.13,0.11,1.88c0.44,5.91,5.36,11.71,11.53,12
		c1.97,0.14,2.95,0.21,4.92,0.36c5.9,0.36,10.7-4.64,10.11-10.57c-0.76-11.31-1.51-22.62-2.27-33.93c2.15,0.12,3.22,0.18,5.37,0.31
		c5.76,0.25,10.49-4.63,9.88-10.44c-0.13-1.79-0.19-2.68-0.32-4.46c-0.12-1.6-0.56-3.14-1.25-4.53c0,0-0.81-2.51-2.43-3.75
		c1.62-0.79,2.43-1.19,4.05-1.98c1.15-0.61,2.26-1.28,3.31-2.01c1.82,3.77,5.89,6.59,10.08,6.83c15.56,0.84,31.11,1.78,46.65,2.82
		C539.69,349.24,544.02,344,543.28,338.24z M265.42,308.67c-2.69-3.45-5.37-6.9-8.06-10.35c2.76-2.95,5.52-5.89,8.29-8.83
		C265.57,295.88,265.5,302.27,265.42,308.67z"/>
	<path class="st0" d="M129.36,282.83c-1.79-3.38-4.94-5.94-8.32-7.59c-4.21-2-8.72-2.48-13.31-2.57c-8.45,0.09-16.9,0.2-25.35,0.3
		c-0.84,10.08-1.69,20.17-2.52,30.25c-0.96,11.46-1.91,22.92-2.87,34.38c4.63-0.27,9.25-0.53,13.88-0.79
		c0.48-6.01,0.95-12.01,1.42-18.02c4-0.17,8-0.34,12-0.5c4.85-0.34,9.55-1.14,13.95-3.32c3.81-1.81,7.18-4.72,9.51-8.23
		c1.01-1.47,1.82-3.08,2.43-4.77c0.86-2.35,1.34-4.84,1.5-7.3C131.76,290.49,131.38,286.61,129.36,282.83z M114.05,303.12
		c-2.57,2.29-6.29,3.01-9.62,3.14c-3.72,0.13-7.45,0.25-11.18,0.38c0.1-1.26,0.2-2.52,0.3-3.79c0.48-6.08,0.96-12.17,1.44-18.25
		c3.69-0.07,7.4-0.14,11.09-0.21c3.08-0.05,6.77,0.39,9.13,2.62c2.36,2.17,2.59,4.98,2.62,7.99c-0.11,2.7-1.18,5.34-2.99,7.33
		C114.6,302.61,114.33,302.87,114.05,303.12z"/>
	<path class="st0" d="M245.72,300.3c-0.62-0.79-1.23-1.59-1.84-2.39c8.25-8.78,16.53-17.55,24.82-26.3
		c-5.02,0.01-10.05,0.02-15.07,0.04c-8.94,9.22-17.85,18.45-26.72,27.73c0.26-9.21,0.52-18.42,0.79-27.63
		c-4.49,0.02-8.98,0.04-13.47,0.06c-0.33,9.6-0.66,19.2-0.99,28.8c-0.36,10.47-0.72,20.93-1.07,31.41
		c4.61-0.11,9.22-0.21,13.82-0.31c0.15-5.15,0.29-10.31,0.44-15.46c2.74-2.86,5.48-5.72,8.23-8.57c6.2,7.87,12.42,15.72,18.63,23.57
		c5.41-0.07,10.82-0.13,16.24-0.18C261.59,320.81,253.65,310.56,245.72,300.3z"/>
	<path class="st0" d="M322.12,319.68c-10.86-0.04-21.71-0.04-32.57-0.01c0.01-4.63,0.01-9.25,0.02-13.87
		c9.2-0.02,18.41-0.03,27.61-0.01c-0.02-1.91-0.04-3.81-0.06-5.71c-0.02-1.65-0.03-3.32-0.06-4.97c-9.16-0.01-18.32-0.01-27.48,0.01
		c0.01-4.26,0.01-8.5,0.02-12.75c10.31-0.01,20.62-0.01,30.94,0c-0.05-3.6-0.09-7.2-0.13-10.8c-14.76-0.01-29.51-0.01-44.27,0.01
		c-0.07,9.51-0.14,19.03-0.21,28.54c-0.07,10.29-0.15,20.58-0.22,30.87c15.51-0.11,31.03-0.13,46.55-0.07
		C322.21,327.18,322.16,323.43,322.12,319.68z"/>
	<path class="st0" d="M374.31,271.7c-3.8,9.53-7.61,19.06-11.43,28.58c-1.82,4.54-3.64,9.09-5.46,13.63
		c-2.05-4.56-4.09-9.13-6.15-13.7c-4.28-9.54-8.57-19.08-12.86-28.62c-4.88-0.01-9.76-0.01-14.64-0.02
		c4.28,9.52,8.57,19.04,12.84,28.56c4.65,10.34,9.28,20.68,13.92,31.03c4.58,0.06,9.16,0.11,13.74,0.18
		c4.09-10.31,8.17-20.63,12.25-30.96c3.77-9.54,7.52-19.08,11.27-28.63C383.29,271.74,378.8,271.72,374.31,271.7z"/>
	<path class="st0" d="M407.61,300.73c-0.48-9.63-0.95-19.25-1.42-28.88c-4.52-0.02-9.04-0.05-13.56-0.07
		c0.42,9.59,0.84,19.18,1.25,28.78c0.46,10.46,0.91,20.92,1.37,31.39c4.63,0.11,9.27,0.22,13.91,0.35
		C408.64,321.78,408.12,311.25,407.61,300.73z"/>
	<path class="st0" d="M466.68,315.45c-3.48,4.62-8.71,7.16-14.5,6.95c-3.52-0.05-7.03-1.11-10.07-2.85
		c-2.99-1.69-5.44-4.3-7.21-7.21c-1.87-3.05-2.78-6.67-3.02-10.21c0-0.35,0-0.7,0.01-1.04c0.07-3.2,0.56-5.92,1.8-8.99
		c1.37-2.82,3.55-5.19,6.27-6.76c3.03-1.75,6.18-2.17,9.6-2.33c6.01,0.06,11.37,2.92,15.3,7.37c2.72-2.75,5.43-5.5,8.14-8.25
		c-2.97-3.44-6.76-6.32-10.94-8.12c-4.46-1.98-9.12-2.68-13.95-2.87c-5.66,0.13-11.03,1.05-16.03,3.83
		c-4.56,2.52-8.32,6.3-10.79,10.89c-2.55,4.73-3.33,9.76-3.32,15.02c0,0.32,0.01,0.65,0.01,0.97c0.53,6.03,2.06,11.14,5.09,16.38
		c3.06,4.88,7.29,8.92,12.29,11.78c5.44,2.87,10.9,4.53,16.85,4.77c4.65,0.18,9.49-0.42,13.96-2.34c3.98-1.64,7.5-4.54,10-8.03
		C473.02,321.42,469.86,318.43,466.68,315.45z"/>
	<path class="st0" d="M531.62,325.31c-10.84-0.54-21.67-1.04-32.51-1.51c-0.41-4.94-0.81-9.86-1.23-14.8
		c9.2,0.32,18.39,0.64,27.58,0.99c-0.21-2.3-0.42-4.61-0.64-6.91c-0.14-1.56-0.28-3.12-0.43-4.68c-9.15-0.27-18.3-0.53-27.45-0.77
		c-0.37-4.52-0.75-9.04-1.12-13.56c10.3,0.18,20.61,0.39,30.92,0.6c-0.36-3.9-0.73-7.81-1.09-11.71c-14.75-0.19-29.5-0.35-44.25-0.5
		c0.77,9.87,1.54,19.75,2.31,29.62c0.86,11.03,1.72,22.05,2.58,33.07c15.49,0.74,30.98,1.56,46.46,2.46
		C532.37,333.51,532,329.41,531.62,325.31z"/>
	<g>
		<path class="st6" d="M178.39,353.04C178.39,353.04,178.39,353.04,178.39,353.04c-3.99-3.49-9.11-4.1-14.2-4.07
			c-6.07,0.27-12.13,0.55-18.2,0.84c-1.03,17.34-2.06,34.68-3.09,52.03c2.46-0.19,4.91-0.37,7.37-0.56c0.3-5.27,0.6-10.53,0.9-15.8
			c3.71-0.24,7.42-0.48,11.13-0.7c5.46-0.54,10.67-1.83,14.85-5.59c3.82-3.43,5.77-8.32,6.01-13.38
			C183.38,361.09,182.05,356.26,178.39,353.04z M172.32,374.27L172.32,374.27c-2.65,2.45-6.34,3.04-9.77,3.4
			c-3.66,0.21-7.32,0.43-10.97,0.65c0.42-7.32,0.83-14.64,1.25-21.95c3.63-0.18,7.25-0.36,10.88-0.53c3.13-0.13,6.94,0.18,9.41,2.39
			c2.42,2.1,2.75,4.98,2.77,7.91C175.9,369.14,174.56,372.2,172.32,374.27z"/>
		<path class="st6" d="M226.31,349.7c-3.82-2.1-8.33-3.09-12.68-2.9c-4.49,0.12-9.11,1.33-12.96,3.68c-3.83,2.27-7.2,5.57-9.41,9.45
			c-2.34,3.97-3.69,8.65-3.82,13.26c-0.26,4.47,0.63,9.14,2.71,13.11c1.9,3.77,5.11,6.93,8.8,8.94c3.88,2.2,8.56,3.02,12.97,2.81
			c4.58-0.14,9.22-1.53,13.14-3.91c3.88-2.28,7.15-5.72,9.39-9.6c2.35-3.93,3.53-8.63,3.63-13.19c0.11-4.4-0.83-9.04-2.99-12.87
			C233.07,354.9,230,351.66,226.31,349.7z M228.18,381.21c-1.54,2.84-3.94,5.22-6.65,6.92c-3.1,1.64-5.88,2.45-9.36,2.8
			c-3.28-0.06-6.3-0.42-9.24-2.03c-2.68-1.48-4.86-3.74-6.27-6.46c-1.58-3.05-1.93-6.19-1.99-9.57c0.35-3.57,1.14-6.48,2.75-9.69
			c1.84-2.77,3.82-5.12,6.71-6.85c2.91-1.75,5.94-2.37,9.27-2.67c3.23,0.1,6.2,0.49,9.08,2.1c2.64,1.48,4.79,3.71,6.21,6.38
			c1.59,3,2.16,6.28,2.08,9.43C230.69,374.92,229.73,378,228.18,381.21z"/>
		<path class="st6" d="M280,349.1c-4.17-2.19-8.64-2.85-13.29-2.96c-6.57,0.08-13.14,0.18-19.71,0.29
			c-0.33,16.66-0.65,33.31-0.98,49.97c6.71-0.18,13.42-0.34,20.13-0.47c4.78-0.26,9.36-1.08,13.61-3.42
			c3.83-2.04,7.1-5.29,9.24-9.05c2.28-3.85,3.27-8.5,3.26-12.94c0.01-4.38-1-8.99-3.22-12.77C286.94,354.17,283.75,351,280,349.1z
			 M282.65,380.05c-1.56,2.73-3.87,4.97-6.61,6.5c-3.01,1.75-6.62,2.42-10.06,2.5c-4.15,0.08-8.3,0.16-12.45,0.26
			c0.2-12.11,0.4-24.22,0.6-36.33c4.09-0.07,8.17-0.13,12.26-0.18c3.35-0.02,6.9,0.53,9.88,2.17c2.69,1.43,4.96,3.58,6.47,6.23
			c1.68,2.95,2.3,6.22,2.29,9.37C285.01,373.76,284.34,377.06,282.65,380.05z"/>
		<path class="st6" d="M340.01,388.78c0.3-0.34,0.44-0.51,0.74-0.84c-1.63-1.68-3.26-3.37-4.9-5.05c-0.35,0.38-0.52,0.57-0.87,0.94
			c-3.29,3.59-7.86,5.28-12.68,5.22c-3.36-0.23-6.43-0.78-9.38-2.49c-2.75-1.59-5.05-3.88-6.62-6.64c-1.69-2.98-2.21-6.06-2.42-9.43
			c0.18-3.33,0.65-6.4,2.31-9.35c1.52-2.7,3.76-4.95,6.45-6.48c2.91-1.66,5.91-2.15,9.2-2.33c4.81,0,9.33,1.78,12.68,5.26
			c0.36,0.37,0.54,0.55,0.9,0.92c1.55-1.6,3.09-3.2,4.64-4.79c-0.31-0.34-0.46-0.5-0.76-0.84c-2.23-2.45-4.87-4.04-7.83-5.44
			c-3.29-1.15-6.35-1.7-9.84-1.88c-4.38-0.03-8.96,0.95-12.78,3.16c-3.7,2.06-6.94,5.2-8.98,8.94c-2.18,3.86-3.31,8.41-3.23,12.85
			c-0.06,4.48,1.1,9.07,3.31,12.97c2.09,3.82,5.4,7.05,9.17,9.19c3.9,2.3,8.58,3.37,13.07,3.4c3.55-0.13,6.91-0.55,10.03-1.81
			C335.09,393.08,337.82,391.27,340.01,388.78z"/>
		<path class="st6" d="M360.05,346.38c-6.94,16.5-13.9,32.99-20.87,49.47c2.61,0.04,5.21,0.09,7.82,0.14
			c1.75-4.25,3.5-8.5,5.25-12.75c8.03,0.17,16.06,0.38,24.09,0.62c2.01,4.38,4.02,8.76,6.02,13.14c2.63,0.1,5.26,0.2,7.88,0.31
			c-7.91-16.96-15.87-33.9-23.87-50.82C364.26,346.46,362.16,346.42,360.05,346.38z M354.92,376.75c2.85-6.97,5.7-13.95,8.54-20.92
			c3.28,7.12,6.55,14.24,9.81,21.37C367.15,377.03,361.04,376.88,354.92,376.75z"/>
		<path class="st6" d="M417.69,372.35c-2.74-1.2-5.58-2.1-8.44-2.98c-2.27-0.69-4.54-1.37-6.75-2.24c-1.52-0.6-2.81-1.44-3.83-2.49
			c-0.93-0.96-1.42-2.2-1.49-3.79c-0.09-2.16,0.67-3.85,2.34-5.16c2.4-1.78,5.31-1.81,8.16-1.87c1.99,0.04,4.19,0.48,6.07,1.14
			c2.05,0.65,4.2,1.76,5.93,3.02c0.52,0.36,0.78,0.55,1.29,0.91c0.74-2.08,1.48-4.15,2.22-6.23c-0.32-0.24-0.49-0.36-0.81-0.59
			c-2.12-1.54-4.51-2.7-6.99-3.51c-2.75-0.76-5.18-1.2-8.03-1.43c-3.29-0.16-6.73,0.28-9.77,1.56c-2.39,1.04-4.54,2.7-5.89,4.96
			c-1.39,2.2-1.59,4.59-1.71,7.1c0.09,2.84,0.94,5.69,2.8,7.88c1.93,1.93,3.52,3.13,5.93,4.41c2.78,1.21,5.67,2.13,8.56,3.04
			c2.26,0.69,4.54,1.37,6.73,2.28c1.47,0.62,2.75,1.48,3.79,2.55c0.94,0.97,1.44,2.23,1.52,3.85c0.11,2.17-0.65,3.84-2.34,5.12
			c-2.45,1.69-5.57,1.87-8.46,1.74c-3-0.33-5.37-0.89-8.21-1.92c-2.36-1-4.6-2.38-6.39-4.23c-0.51-0.53-0.76-0.8-1.27-1.33
			c-0.93,2.07-1.87,4.13-2.8,6.2c0.24,0.26,0.36,0.39,0.6,0.65c2.26,2.43,5.03,3.89,8.01,5.26c3.46,1.25,6.74,1.98,10.41,2.31
			c3.33,0.15,6.91-0.05,10.02-1.38c2.47-1,4.68-2.68,6.04-5c1.2-2.66,1.57-4.42,1.66-7.34c-0.13-2.89-1.01-5.79-2.89-8.01
			C422.05,374.93,419.99,373.38,417.69,372.35z"/>
		<path class="st6" d="M424.78,348.14c0.12,2.27,0.25,4.54,0.37,6.81c5.33,0.22,10.67,0.44,16,0.68
			c0.91,14.85,1.81,29.71,2.72,44.56c2.46,0.16,4.92,0.33,7.38,0.5c-0.95-14.91-1.9-29.82-2.84-44.73
			c5.33,0.26,10.66,0.52,15.99,0.8c-0.16-2.31-0.32-4.63-0.48-6.94C450.87,349.19,437.82,348.62,424.78,348.14z"/>
	</g>
	<g>
		<path d="M203.83,301.84c0.02-17.49-15.34-31.18-32.47-31.06c-17.62,0.12-32.51,14.71-32.53,32.42
			c-0.02,17.67,14.96,31.51,32.46,30.89C188.46,333.49,203.81,319.4,203.83,301.84z"/>
		<path class="st12" d="M151.14,277.84c0.34-0.4,0.79-0.68,1.2-0.96c2.94-2.02,6.03-3.48,9.46-4.68c1.78-0.54,3.59-0.92,5.44-1.17
			c1.89-0.25,3.82-0.35,5.68-0.24c2.66,0.16,5.13,0.61,7.77,1.27c3.04,0.88,5.94,2.2,8.6,3.9c2.11,1.47,3.91,2.94,5.76,4.73
			c2.15,2.23,3.97,4.77,5.36,7.54c1.32,2.63,2.26,5.46,2.75,8.36c0.2,1.17,0.34,2.34,0.39,3.53c0.01,0.3,0,0.31-0.3,0.19
			c-1.69-0.66-3.38-1.33-5.07-2c-2.13-0.87-4.45-1.62-6.71-2.08c-0.39-0.08-0.78-0.17-1.18-0.23c-0.18-0.03-0.26-0.1-0.3-0.27
			c-0.41-1.88-1.68-4.01-3.14-5.26c-1.54-1.53-4.09-2.72-6.24-2.93c-2.89-0.4-5.82,0.28-8.23,1.92c-1.67,1.04-3.3,2.98-4.05,4.8
			c-0.11,0.24-0.24,0.31-0.49,0.32c-1.43,0.05-2.86,0.19-4.29,0.34c-2.5,0.32-4.93,0.72-7.4,1.23c-2.08,0.45-4.17,1.03-6.2,1.68
			c-3.67,1.22-7.27,2.59-10.85,4.05c-0.23,0.1-0.29,0.06-0.28-0.19c0.07-1.44,0.22-2.87,0.48-4.3c0.37-2.17,1.03-4.44,1.88-6.46
			c1.14-2.79,2.68-5.41,4.55-7.78c0.58-0.74,1.2-1.44,1.83-2.14c0.04-0.04,0.07-0.09,0.14-0.07c-0.02,0.14-0.13,0.23-0.2,0.33
			c-1.14,1.48-1.98,3.86-1.69,5.74c0.15,1.22,0.74,2.22,1.69,2.98c1.04,0.83,2.31,1.1,3.63,1.13c0.73,0.02,1.45-0.11,2.16-0.3
			c3.62-0.88,6.71-3.45,8.32-6.79c0.67-1.36,0.91-2.81,0.58-4.28c-0.49-2.24-2.52-3.57-4.72-3.69c-1.97-0.18-4.42,0.55-6.07,1.62
			C151.33,277.77,151.26,277.86,151.14,277.84z"/>
		<path class="st0" d="M149.82,306.57c2.61-0.71,5.19-1.33,7.83-1.87c1.52-0.28,3.04-0.53,4.57-0.72c1-0.13,2.01-0.23,3.02-0.32
			c0.91-0.08,1.83-0.12,2.74-0.22c0.2-0.02,0.31,0.02,0.4,0.22c0.67,1.49,1.65,2.77,2.91,3.82c1.46,1.3,3.76,2.3,5.71,2.5
			c0.76,0.1,1.51,0.15,2.27,0.1c1.36-0.09,2.67-0.39,3.92-0.92c1.57-0.67,2.92-1.62,4.08-2.85c0.41-0.44,0.79-0.91,1.12-1.41
			c0.12-0.19,0.25-0.22,0.45-0.19c1.68,0.31,3.34,0.67,4.99,1.09c1.64,0.42,3.26,0.88,4.86,1.4c1.32,0.42,2.61,0.9,3.93,1.33
			c0.24,0.08,0.18,0.23,0.15,0.36c-0.09,0.4-0.19,0.79-0.3,1.18c-0.59,2.18-1.5,4.43-2.58,6.41c-0.33,0.61-0.68,1.21-1.08,1.78
			c-0.28,0.14-0.49,0.36-0.71,0.56c-1.5,1.34-3.06,2.6-4.78,3.68c-1.43,0.9-2.92,1.68-4.48,2.33c-2.65,0.98-5.05,1.63-7.83,2.12
			c-2.76,0.24-5.21,0.25-7.96,0.01c-2.13-0.25-4.38-0.82-6.38-1.6c-2.06-0.74-4.18-1.85-5.97-3.11c-0.99-0.68-1.92-1.43-2.82-2.23
			c-1.82-1.8-3.26-3.51-4.73-5.61c-1.18-1.8-2.19-3.95-2.82-6C150.12,307.8,149.9,307.2,149.82,306.57z"/>
		<path class="st6" d="M149.95,306.46c0.08,0.64,0.3,1.23,0.5,1.83c0.63,2.06,1.64,4.2,2.82,6c1.46,2.1,2.91,3.81,4.73,5.61
			c0.89,0.8,1.83,1.56,2.82,2.23c1.79,1.26,3.91,2.37,5.97,3.11c2,0.78,4.25,1.34,6.38,1.6c2.76,0.24,5.21,0.23,7.96-0.01
			c2.78-0.49,5.18-1.14,7.83-2.12c1.56-0.65,3.05-1.44,4.48-2.33c1.72-1.08,3.28-2.34,4.78-3.68c0.22-0.2,0.43-0.43,0.71-0.56
			c0.02,0.1-0.05,0.17-0.1,0.25c-0.75,1.17-1.57,2.3-2.47,3.38c-0.96,1.16-2.02,2.24-3.14,3.27c-1.43,1.31-2.98,2.51-4.64,3.55
			c-1.45,0.92-2.96,1.74-4.54,2.44c-1.78,0.78-3.6,1.42-5.48,1.9c-0.91,0.24-1.83,0.43-2.76,0.58c-1.32,0.22-2.65,0.34-3.98,0.43
			c-0.81,0.05-1.62,0.06-2.43,0.05c-3.95-0.03-7.91-0.93-11.57-2.38c-2.34-1.07-4.37-2.2-6.51-3.63c-1.19-0.87-2.33-1.82-3.37-2.86
			c-3.49-3.74-5.88-7.63-7.63-12.43c-0.24-0.76-0.45-1.53-0.64-2.31c-0.05-0.21-0.02-0.3,0.19-0.39c3.04-1.21,6.1-2.31,9.22-3.29
			C149.38,306.61,149.67,306.54,149.95,306.46z"/>
		<path class="st0" d="M151.14,277.88c0.12,0.02,0.19-0.08,0.28-0.13c1.64-1.07,4.1-1.81,6.07-1.62c2.21,0.11,4.23,1.44,4.72,3.69
			c0.33,1.47,0.09,2.92-0.58,4.28c-1.61,3.34-4.7,5.91-8.32,6.79c-0.71,0.19-1.44,0.32-2.16,0.3c-1.32-0.03-2.58-0.3-3.63-1.13
			c-0.95-0.76-1.53-1.76-1.69-2.98c-0.29-1.88,0.55-4.27,1.69-5.74c0.07-0.11,0.19-0.19,0.2-0.33c0.01,0,0.02-0.01,0.03-0.02
			c0.04,0.02,0.04,0,0.03-0.03c0.01-0.02,0.03-0.03,0.04-0.05c0.09-0.03,0.12-0.1,0.12-0.19c0.94-1,1.92-1.94,3.05-2.73
			c0.07,0.02,0.11-0.01,0.13-0.08C151.12,277.9,151.13,277.89,151.14,277.88z"/>
		<path class="st0" d="M186.4,298.59c0.02,3.85-3.53,7.31-7.4,7.2c-3.67,0.02-7.33-3.1-7.16-6.95c-0.12-3.94,3.54-7.14,7.31-7.19
			C182.99,291.44,186.39,294.8,186.4,298.59z M173.53,298.81c0.12,2.88,2.56,5.54,5.6,5.34c2.83-0.18,5.71-2.45,5.6-5.52
			c0.14-3.07-2.77-5.28-5.59-5.35C176.09,293.21,173.67,295.92,173.53,298.81z"/>
		<path class="st0" d="M179.12,303.73c-2.79,0.02-5.13-2.14-5.16-4.96c0.08-2.8,2.41-4.98,5.18-5.06c2.76,0,5.1,2.13,5.14,4.93
			C184.21,301.45,181.9,303.64,179.12,303.73z"/>
	</g>
	<g>
		<g>
			<path class="st13" d="M128.05,303.42c-0.43,0.9-0.93,1.75-1.47,2.55c-2.18,3.29-5.36,6.04-8.96,7.75
				c-3.63,1.79-7.77,2.77-13.4,3.17c-4,0.16-7.98,0.33-11.98,0.5l-1.24,0.06l-0.1,1.23c-0.24,3.01-0.48,6.01-0.72,9.01
				c-0.2,2.6-0.41,5.19-0.62,7.79c-3.68,0.21-7.36,0.42-11.05,0.63c0.88-10.51,1.75-21.01,2.63-31.52c3.63-0.1,7.26-0.2,10.89-0.29
				c-0.01,0.11-0.02,0.22-0.03,0.34c-0.05,0.63-0.1,1.26-0.15,1.89l-0.13,1.56l1.57-0.05l8.55-0.29l2.64-0.09
				c4.55-0.18,8.08-1.35,10.5-3.5c0.17-0.15,0.33-0.31,0.47-0.45C120.17,303.6,124.24,303.51,128.05,303.42z"/>
		</g>
		<g>
			<path class="st13" d="M266.69,329.68c-4.24,0.05-8.48,0.09-12.72,0.15c-7.03-8.88-12.83-16.21-18.21-23.03l-1-1.26l-1.11,1.16
				c-2.75,2.85-5.49,5.71-8.23,8.58l-0.38,0.39l-0.01,0.54l-0.4,14.13c-3.67,0.08-7.34,0.16-11.01,0.25l0.63-18.54l0.34-10.04
				c9.79-0.11,19.76-0.2,30.45-0.28C251.91,310.6,258.75,319.43,266.69,329.68z"/>
		</g>
		<g>
			<path class="st13" d="M320.84,329.52c-5.25-0.02-10.54-0.03-15.74-0.03c-9.35,0-18.75,0.03-27.97,0.1
				c0.06-9.36,0.13-18.71,0.2-28.07c8.31-0.04,17.12-0.05,27.59-0.05c3.6,0,7.21,0,10.81,0.01l0.02,1.86l0.01,1.05
				c-3.39-0.01-6.76-0.01-10.14-0.01c-5.36,0-10.7,0.01-16.05,0.02h-1.4v1.4l-0.01,6.94l-0.01,6.93v1.41l1.41-0.01
				c5.24-0.01,10.47-0.03,15.56-0.03c5.25,0,10.49,0.01,15.61,0.03C320.77,323.89,320.8,326.71,320.84,329.52z"/>
		</g>
		<g>
			<path class="st13" d="M374.45,301.78c-4.04,10.26-7.7,19.5-11.14,28.15c-3.96-0.06-7.91-0.11-11.88-0.15
				c-3.79-8.48-8.19-18.3-12.65-28.23c3.86,0.02,7.73,0.04,11.58,0.06c1.44,3.2,2.87,6.4,4.31,9.6l1.47,3.27l1.35,3.01l1.23-3.07
				c1.7-4.24,3.41-8.49,5.1-12.74l5.85,0.04L374.45,301.78z"/>
		</g>
		<g>
			<path class="st13" d="M407.69,330.85c-4.12-0.11-7.7-0.2-11.09-0.28l-0.84-19.21l-0.41-9.39l3.08,0.04
				c2.61,0.03,5.23,0.06,7.84,0.09C406.74,311.7,407.21,321.28,407.69,330.85z"/>
		</g>
		<g>
			<path class="st13" d="M474.3,324.57c-2.32,2.91-5.36,5.22-8.67,6.58c-3.48,1.5-7.47,2.26-11.84,2.26c-0.49,0-1-0.01-1.51-0.03
				c-5.48-0.22-10.79-1.72-16.24-4.59c-4.79-2.75-8.85-6.65-11.76-11.27c-2.77-4.81-4.28-9.53-4.84-15.21
				c3.39,0.04,6.97,0.09,11.06,0.16c0.3,4.02,1.41,7.68,3.2,10.6c2.03,3.33,4.69,5.99,7.71,7.7c3.37,1.93,7.09,2.98,10.7,3.03
				c0.25,0.01,0.5,0.01,0.74,0.01c5.37,0,10.38-2.29,13.94-6.32C469.35,319.87,471.85,322.25,474.3,324.57z"/>
		</g>
		<g>
			<path class="st13" d="M531.2,336.11c-14.46-0.84-29.11-1.62-43.6-2.31c-0.76-9.83-1.54-19.65-2.3-29.48l-0.06-0.82
				c13.09,0.29,25.97,0.61,38.3,0.95c0.13,1.36,0.25,2.72,0.38,4.08c-8.59-0.32-17.32-0.63-25.99-0.93l-1.58-0.06l0.13,1.58
				c0.41,4.94,0.82,9.86,1.23,14.79l0.1,1.23l1.23,0.06c11.14,0.48,21.39,0.95,31.29,1.44L531.2,336.11z"/>
		</g>
	</g>
</g>
</svg>
